<svg xmlns="http://www.w3.org/2000/svg" viewBox="27.83 116.63 575.35 269.53"><defs><style>.cls-1,.cls-10,.cls-13,.cls-14,.cls-7,.cls-9{fill:#fff;}.cls-1,.cls-10,.cls-13{stroke:#000;}.cls-1,.cls-10,.cls-11,.cls-12,.cls-13,.cls-15,.cls-2,.cls-3,.cls-5,.cls-6,.cls-7,.cls-8,.cls-9{stroke-miterlimit:10;}.cls-2{fill:#35b995;}.cls-11,.cls-15,.cls-2,.cls-3,.cls-5,.cls-6,.cls-7,.cls-8{stroke:#182e35;}.cls-10,.cls-12,.cls-13,.cls-2,.cls-3,.cls-5,.cls-6,.cls-7,.cls-8,.cls-9{stroke-width:0.75px;}.cls-11,.cls-12,.cls-3{fill:none;}.cls-4,.cls-5{fill:#182e35;}.cls-15,.cls-6{fill:#f7dc6b;}.cls-8{fill:#e5e5e5;}.cls-12,.cls-9{stroke:#282828;}.cls-13{stroke-linecap:round;}</style></defs><title>morut new</title><g id="Character"><path class="cls-1" d="M209.42,117.13H434.79A11.83,11.83,0,0,1,446.62,129V296a11.83,11.83,0,0,1-11.83,11.83H209.09A11.83,11.83,0,0,1,197.25,296V129.29A12.17,12.17,0,0,1,209.42,117.13Z"/><rect class="cls-2" x="345.96" y="237.62" width="34.85" height="5.51"/><rect class="cls-2" x="345.96" y="256.43" width="46.65" height="5.51"/><rect class="cls-2" x="345.96" y="268.5" width="34.85" height="5.51"/><rect class="cls-2" x="345.96" y="280.17" width="41.33" height="5.51"/><rect class="cls-3" x="339.91" y="233.19" width="76.84" height="64.98"/><rect class="cls-3" x="339.91" y="233.19" width="91.03" height="14.36"/><polygon class="cls-4" points="407.43 239.12 412.1 239.12 409.77 241.63 407.43 239.12"/><line class="cls-3" x1="421.42" y1="243.22" x2="426.21" y2="237.71"/><line class="cls-3" x1="421.72" y1="237.71" x2="426.93" y2="243.22"/><path class="cls-5" d="M438.12,117.13H206a8.74,8.74,0,0,0-8.74,8.74v20.24H446.62V125.63A8.5,8.5,0,0,0,438.12,117.13Z"/><polygon class="cls-6" points="385.02 173.93 380.81 178.57 394.29 191.91 416.75 168.88 412.68 164.95 393.87 183.48 385.02 173.93"/><rect class="cls-3" x="367.75" y="153.87" width="58.16" height="52.15"/><polyline class="cls-7" points="504.77 218.72 499.92 223.13 502.35 226"/><rect class="cls-5" x="456.32" y="226.96" width="146.48" height="158.82" rx="11.25" ry="11.25"/><rect class="cls-6" x="456.32" y="228.76" width="146.48" height="157.02" rx="11.25" ry="11.25"/><path class="cls-4" d="M507.11,212.62s-3.32-3.86-2.34-6.29,5.12-5.3,7.63-4.22,5.56,1.44,5.88,1.08,3.37-1.89,7.15-.09,7.19,4.67,11,6.56,6.74,3.5,6.83,5.48-2.25,12.13-4.67,17.16-3.86,7.28-6.47,7.1l-.18,5.3s5.12.77,4,5.1c0,0,12.4,0,16.71,6.67s25.58,43.63,25.58,43.63l19,.93-1.8,49.5L561,349.44v5.47a2.81,2.81,0,0,1-2.43,2.07l6.26,28.81-67.91-.48-7.31-34.14,3-86.48s-48.27-36-48.39-36.82-27.91-20.67-27.91-20.67l-18.09-9.58s-4.19-1.32-1.68-4.31,22.28,13.06,22.28,13.06l7.91-12.46s1.44-2.28,1.2-4.07.6-8.38,3.59-8.38a2.33,2.33,0,0,1,2.64,2.64v5.63l7.67,9.58,34.85,29.86,32.7,20,4.9-8.26s-6.1-9.92-6.1-13S507.11,212.62,507.11,212.62Z"/><path class="cls-7" d="M490.34,354.55l6.58,30.75h58.69l-5.54-28.18s-10.87-9-11.22-9S490.34,354.55,490.34,354.55Z"/><rect class="cls-8" x="213.54" y="153.54" width="84.08" height="23.32" rx="10.73" ry="10.73"/><rect class="cls-3" x="214.5" y="187.34" width="84.08" height="23.32" rx="10.73" ry="10.73"/><path class="cls-5" d="M39.49,164.8H161.62a13.29,13.29,0,0,1,13.29,13.29V311.8a12.83,12.83,0,0,1-12.83,12.83H39.2a11,11,0,0,1-11-11V176.08A11.28,11.28,0,0,1,39.49,164.8Z"/><path class="cls-6" d="M39.49,167.91H160.85a13.29,13.29,0,0,1,13.29,13.29V311.8a12.83,12.83,0,0,1-12.83,12.83H39.2a11,11,0,0,1-11-11V179.19A11.28,11.28,0,0,1,39.49,167.91Z"/><path class="cls-4" d="M165.57,217.56c-2.07-1.71-8.23-6.38-12.37-9.34s-9.28,3.77-9.28,3.77-14.55-13.38-14.28-15.54.54-7.37.54-7.37-.9-11.14-1.08-11.68,7.28-3.59,7.28-3.59l8.23-2.25s.57-1.35.72-1.62,5.24-6.65-2.86-9-17.53,4.76-17.53,4.76L109.32,167a30.6,30.6,0,0,0-2.42,6.11c-.38,2.16,4.84,11,4.84,11a17,17,0,0,1,.84,3.05c.27,1.62,2.07,2.52,2.34,3.5s-1.08,3.05-1.53,4.94a21.32,21.32,0,0,1-1.26,3.45,24.71,24.71,0,0,1-2.16,3s-10-.12-15.09.5S81,214.41,81,214.41,57.87,240.73,56.25,242.8s-19.94,39-23.89,47.16,4,17.16,4,17.16l-8.1,2.67s-.14,2.6,0,7.32c.22,6.82,7,7.48,7,7.48l20.21.68,73.12-.63,7-10.06s6.22-19.67,6.29-20.21S153,244.06,153,244.06l2.78-7.28,18.33,10.51.17-5.64.64-5.41S167.64,219.26,165.57,217.56ZM71.34,300.2l-7.72,1s-5.46-4.7-5-5.18,3.55-5.6,3.55-5.6l1.45-.81C64.24,289.51,73,293,73,293Z"/><path class="cls-7" d="M119.94,202l-2,1.32s-12.82,83.42-12.82,84,4.17,6.2,4.17,6.2h28.05l4.79-12s6.83-78.09,4.19-78.21-8.78-.2-8.78-.2l-4.94,3.32-6.58-1.76Z"/><path class="cls-9" d="M83.11,290.44l-7.58,34.2H110l5.93-23.81s5.77,5.39,5.8,8.35.84,14.82.84,14.82h26.14l.72-35.12-11-1.53-6.59,6.11s-7.36.4-14.7.47c-5.73.06-11.45-.07-13.65-.74C98.47,291.67,83.11,290.44,83.11,290.44Z"/><path class="cls-7" d="M119.4,202.64s-11.86-.54-15.45.9a26.93,26.93,0,0,0-11,8.08C89.4,215.94,64.6,245,64.6,245l-21.38,42.4,19.28,9.82,6.95-14a21.63,21.63,0,0,0,10.78,8.26c7.67,2.87,25.15,6,27.43,4.55s7.31-18.33,7.43-19.88,7.07-41.2,6.59-55.46S119.4,202.64,119.4,202.64Z"/><path class="cls-10" d="M136.77,202l14,.5s6.59,2.5,6.59,7-.84,43.24-1.2,52.1-2.52,26.83-2.52,26.83a30.5,30.5,0,0,1-21.8,7.43s6.59-37.11,6.71-46-.37-43.84-.37-43.84.28-2.43-.62-2.91S136.77,202,136.77,202Z"/><path class="cls-3" d="M111.73,222.65S85.62,252.11,83,256.18s-13.53,27.07-13.53,27.07"/><line class="cls-11" x1="111.73" y1="229.71" x2="106.9" y2="228.13"/><path class="cls-7" d="M154.53,204.71l32.66,18.89,31.68-19.44s4,11.35,11.69,14.95c0,0-36.3,27.38-36.66,27.38s-4.67,2.16-7.19,1.56S156.95,232,156.95,232l.42-22.39A6.18,6.18,0,0,0,154.53,204.71Z"/><path class="cls-7" d="M136.77,202l-.39-3s.9.41,4.22-.67,3.33-1.74,5.48-6.32-.09-16.5-.09-16.5l-.45-.81v-.63s-1.08-3.14-2.69-3.68-7.19,1.35-9.07,2.69-7.28-.45-7.28-.45-.27,4.58-.27,4.94.27,2.07.27,2.07l1.08,1c1.08,1,.45,5,.45,5s-3.14-4.94-5.66-2.52,1.62,6.74,1.62,6.74l-1.62,8.44-.67.72s5,5,5,5.27a32.46,32.46,0,0,0,5.93,2.16,16.77,16.77,0,0,0,4.25-3.17C136.89,203,136.77,202,136.77,202Z"/><path class="cls-3" d="M140.33,187.46s1.35.09,1.62.63,2.34.09,2.25-1.26-3-5.93-3.05-6.56c0,0,.48-3.8,3.47-3.38"/><circle class="cls-7" cx="135.7" cy="179.94" r="4.97"/><circle class="cls-7" cx="148.24" cy="179.94" r="4.97"/><path class="cls-3" d="M132.28,180.25a3.3,3.3,0,0,1,3.77-3.39"/><path class="cls-3" d="M145.33,179.94a3.06,3.06,0,0,1,3.29-3.1"/><path class="cls-3" d="M126.71,187.49a2,2,0,0,1-1.13-1.32,3.53,3.53,0,0,0-.67-1.55h-1.74"/><path class="cls-11" d="M124,189.89a14,14,0,0,0,3.2.48c.84-.12,1.32,5.32,9.19,8.63"/><path class="cls-1" d="M43.67,286.55s-2.25,3.86-2.25,6.91,1,10.78,5.75,15.18c0,0-1.62,10.06-.54,12.22s2.61,1,3.59-2.34S53,310,53,310s1.17.09,1.35,2.69-2.07,14.19,0,14.55A2.47,2.47,0,0,0,57.15,326s-1.26,4,0,4,3.59-1.71,5-4.31l.54-1a4.18,4.18,0,0,0,2.16,0c.63-.36,4.58-5.57,4.58-5.57s-.36-12.49-2.25-15.27-4.7-6.53-4.7-6.53l-18.85-9.6Z"/><path class="cls-12" d="M60.11,310.26s-.27,9.43-.63,10.78A38.3,38.3,0,0,1,57.15,326"/><path class="cls-12" d="M64.33,310.8s.45,6.74,0,8.8a41.47,41.47,0,0,1-1.62,5"/><path class="cls-12" d="M117.15,293.94c.18.51-1.25,6.89-1.25,6.89"/><path class="cls-7" d="M219.25,208.17s-1.24-12.6,0-16.31a29.13,29.13,0,0,1-.28-3.55c.08-.76-2.67-6-2.67-7.35a3.13,3.13,0,0,1,4-2.57c2.16.66,3.71,5.69,3.71,5.69s1.2,6.59,4.07,5.81,7.31-5.81,7.31-5.81,11.26-12.34,16.29-10.54c0,0,1.2.89-.6,3.32l-1.8,2.43s-7.19,6.83-8.38,9.7c0,0,5.51-2.79,6.47-.68a9,9,0,0,1,1,3.31s3.18,0,3.74,2.4a11.28,11.28,0,0,1,.22,3.28,2.36,2.36,0,0,0,.55,1.8c.19.19.29.6.15,1.39-.36,2-1.8,3.38-4.55,5.58s-20.67,15.08-20.67,15.08S220.4,213.94,219.25,208.17Z"/><path class="cls-3" d="M229.35,210.43c0-.12,6.23-9.46-1.08-17.13"/><path class="cls-13" d="M241,190.79c-.48.36-5.39,6.6-4.67,8.21s2.75,1.14,3.83,0,6.35-5.7,6.23-5.1-5.7,8.26-5.07,9.46c.29.54,1,.59,1.75.49a5.08,5.08,0,0,0,2.57-1.19c1.76-1.51,5.84-4.85,6.5-4.15"/><path class="cls-3" d="M250.39,204.4s-5.66,1.23-6.22-.5"/><circle class="cls-14" cx="211.45" cy="131.25" r="4.85"/><circle class="cls-14" cx="228.27" cy="131.25" r="4.85"/><circle class="cls-14" cx="244.17" cy="131.25" r="4.85"/><path class="cls-7" d="M421.35,215.46c-.36-.67-1.2-3-1.2-3s-11.14-.12-12.7-2.52c0,0-5.87-1.32-8-2.87s-6.83-6-6.83-6-6.11-.6-6.23-2,1.68-2.16,1.68-2.16-1.92-4-.12-4,7.31,3.23,7.31,3.23h19.28s4.07-1,4.07-3.23.72-10.9,3.83-11.5,2.75,3.35,2.75,3.35-.4,4.42,1,6,7.72,9.16,7,10S421.35,215.46,421.35,215.46Z"/><path class="cls-11" d="M407.73,202.64s-12.73-.36-15.12-1.56"/><path class="cls-3" d="M407.1,201.09v3.47"/><path class="cls-7" d="M121.7,199.05s-2.54,1.72-1.58,3.49,6.11,7.88,7.55,7.88,3.59-1.56,3.59-3.23-6.71-8-7.55-8.14A10.2,10.2,0,0,0,121.7,199.05Z"/><path class="cls-7" d="M135.93,202.55l-4.67,3.81s.36,3.35,3.11,3.23l3.71-4.07A2.21,2.21,0,0,0,135.93,202.55Z"/><path class="cls-7" d="M433.63,200.22l-14.1,16.26s32.7,28.84,37.82,31.89S486,265.89,486,265.89l-1.44,84.71s5.75,5.57,16.35,7.73,33.24,3.05,39.26,1.89,10.78-2.43,11.95-5.39v-5.75l34.32,1.44,2.34-49.77-20.12-1.26s-24.52-42.31-26.95-44.56-6.2-4.76-14-5.12-29.55-2-29.55-2l-31-19Z"/><path class="cls-7" d="M507.11,212.62s-4.76,12.67-5.21,15.18-2.07,9.79,3.86,11.68a18.81,18.81,0,0,0,4.49.72V246l13.21-.45v-5.12s-5.84-.36-8-3.14a19.66,19.66,0,0,1-3.06-6.29s-1.62-6.38,0-10.33,1.62-5.21,1.62-5.21S507.69,211,507.11,212.62Z"/><path class="cls-3" d="M508.9,218.72a3.68,3.68,0,0,0-3.34-1.93"/><path class="cls-7" d="M518.1,225.71a1.84,1.84,0,0,0-1.69-1.12c-1.71,0-5.11.38-6,3.84-1.17,4.67,5,2.07,5.84,1.35S518.89,227.64,518.1,225.71Z"/><line class="cls-3" x1="548.03" y1="264.64" x2="552.11" y2="349.07"/><line class="cls-11" x1="568.64" y1="299.48" x2="549.68" y2="298.68"/><line class="cls-3" x1="494.65" y1="271.04" x2="486" y2="265.89"/><path class="cls-3" d="M490.82,276.31c0-.6-.49-7.85-.49-7.85"/><line class="cls-3" x1="506.63" y1="252.11" x2="499.32" y2="247.92"/><line class="cls-10" x1="388.05" y1="196.9" x2="395.24" y2="196.18"/><path class="cls-7" d="M507.57,248.51a4.13,4.13,0,0,1,3-3.2l14.46-.63s2.43,1.26,2.25,3l-.18,1.71.19.43Z"/><rect class="cls-3" x="216.95" y="279.61" width="107.32" height="17.73"/><rect class="cls-6" x="226.41" y="285.12" width="34.85" height="5.51"/><line class="cls-3" x1="306.3" y1="282.96" x2="306.3" y2="292.54"/><line class="cls-3" x1="297.44" y1="285.12" x2="297.44" y2="291.7"/><line class="cls-3" x1="294.15" y1="288.41" x2="300.73" y2="288.41"/><line class="cls-3" x1="311.57" y1="288.41" x2="318.28" y2="288.47"/><polygon class="cls-15" points="224.21 235 225.94 240.34 231.55 240.34 227.01 243.63 228.75 248.97 224.21 245.67 219.67 248.97 221.4 243.63 216.86 240.34 222.47 240.34 224.21 235"/><polygon class="cls-15" points="242.22 235 243.96 240.34 249.57 240.34 245.03 243.63 246.76 248.97 242.22 245.67 237.69 248.97 239.42 243.63 234.88 240.34 240.49 240.34 242.22 235"/><polygon class="cls-3" points="224.34 251.06 226.07 256.4 231.68 256.4 227.14 259.69 228.88 265.03 224.34 261.73 219.8 265.03 221.53 259.69 216.99 256.4 222.6 256.4 224.34 251.06"/><polygon class="cls-3" points="242.35 251.06 244.09 256.4 249.7 256.4 245.16 259.69 246.89 265.03 242.35 261.73 237.81 265.03 239.55 259.69 235.01 256.4 240.62 256.4 242.35 251.06"/><polygon class="cls-15" points="260.72 235 262.45 240.34 268.06 240.34 263.52 243.63 265.26 248.97 260.72 245.67 256.18 248.97 257.91 243.63 253.37 240.34 258.98 240.34 260.72 235"/><polygon class="cls-3" points="280.01 235 281.74 240.34 287.35 240.34 282.81 243.63 284.55 248.97 280.01 245.67 275.47 248.97 277.2 243.63 272.66 240.34 278.27 240.34 280.01 235"/><circle class="cls-3" cx="283.89" cy="164.8" r="12.38"/><circle class="cls-2" cx="285.85" cy="164.8" r="12.38"/></g></svg>