<svg xmlns="http://www.w3.org/2000/svg" viewBox="91.94 73.39 383.76 357.08"><defs><style>.cls-1{fill:#f7dc6b;}.cls-2,.cls-6{fill:#8b97cb;}.cls-3{fill:#182e35;}.cls-4{fill:#192e35;}.cls-5,.cls-9{fill:#fff;}.cls-5,.cls-6,.cls-7{fill-rule:evenodd;}.cls-7,.cls-8{fill:#35b995;}</style></defs><title>morut</title><g id="Layer_7" data-name="Layer 7"><path class="cls-1" d="M210.52,86.22a1.35,1.35,0,0,1-.81-2.56c13.4-6.17,44.49-16,93.48-5.95,46.37,9.51,65.56,34.39,73,49.07a2.09,2.09,0,0,1-3.34,2.43C354.56,110.52,303,70.13,210.52,86.22Z"/><circle class="cls-1" cx="384.64" cy="96.51" r="6.36"/><circle class="cls-2" cx="443.75" cy="386.45" r="6.36"/><circle class="cls-1" cx="413.79" cy="383.37" r="3.08"/><circle class="cls-1" cx="138.52" cy="244.72" r="3.08"/><circle class="cls-2" cx="185.27" cy="383.37" r="5.77"/><circle class="cls-2" cx="163.93" cy="107.98" r="2.95"/><path class="cls-1" d="M371.07,194.14S345.36,111.8,240.5,122.2c0,0-80.89,7.51-121,101.69,0,0-34.27,69.33,29,170.89a2.54,2.54,0,0,1-3.85,3.23c-13-11.71-33.92-36.62-46.53-83.12-19.36-71.35,6.07-147,85.8-196.15S379.14,115.85,391,188.36,371.07,194.14,371.07,194.14Z"/><path class="cls-1" d="M178.25,352.55a1.07,1.07,0,0,1-1.71,1.2c-10.32-9.55-37.29-41.17-3.35-86.82,41-55.18,21.67,9.82,21.67,9.82S147.59,281.2,178.25,352.55Z"/><path class="cls-1" d="M269.82,147.06a1.66,1.66,0,0,1,.39-3.26c18.16-.73,58.35,3.44,75.73,51.2,22.82,62.69-7.22,0-7.22,0S336.06,165.77,269.82,147.06Z"/><path class="cls-1" d="M433.58,173.77a1,1,0,0,1,1.88-.28c5.94,20.73,20,88.71-34,134.75-64.42,54.89-63.55-48-63.55-48s68.18,22,68.18,20.8S434.49,268.88,433.58,173.77Z"/><path class="cls-1" d="M424.43,104.68a.86.86,0,0,1,1.28-1.15c21.42,20.89,65.67,76.6,44.3,165.43-27.73,115.26-133.9,162.93-238.33,111.36s0-163.36,0-163.36S217,321.43,217,324.37s-2.76,47.28,94.6,59.42c0,0,86.53,0,126.83-77.13C475.59,235.43,460.71,150.29,424.43,104.68Z"/><path class="cls-1" d="M244.68,411c21.7,11,84.9,37,141,1.27a1.33,1.33,0,0,0-1.1-2.4c-21.34,6.64-77.65,19.93-139.35-.21A.73.73,0,0,0,244.68,411Z"/><path class="cls-2" d="M401.33,133.33l1.46,4.51-1.68,5.32a3.6,3.6,0,0,0,4.32,4.57l6.74-1.72,5,1.44a3.6,3.6,0,0,0,4.42-4.55L420,138l1.5-4.68a3.6,3.6,0,0,0-4.52-4.52l-5.59,1.79-5.56-1.78A3.6,3.6,0,0,0,401.33,133.33Z"/><path class="cls-3" d="M409.49,327.31h-223V177.52a12.86,12.86,0,0,1,12.86-12.86H244.6a11,11,0,0,1,9,4.68l12,17.07H398.12a11.37,11.37,0,0,1,11.37,11.37Z"/><path class="cls-4" d="M409.49,324.55h-223l2.76,2.76V220.41c0-14.13-.47-28.34,0-42.46.37-11.18,10.65-10.52,18.73-10.52h32.61c4.29,0,7.86-.11,11,3.73s5.65,8,8.44,12c1.51,2.14,3,5.53,5.76,6a24,24,0,0,0,4,0H388.4c4.51,0,11.39-1.09,15.12,2,4.42,3.62,3.22,10.85,3.22,16v120.2c0,3.55,5.52,3.55,5.52,0V207.66c0-5.58.93-12.41-2.15-17.36-4.36-7-11.77-6.64-18.87-6.64H265.63L268,185l-6.85-9.73c-2.33-3.3-4.56-7.44-7.66-10.11-6.05-5.2-17.3-3.27-24.64-3.27-9.51,0-19-.13-28.53,0s-16.35,6.53-16.61,16c-1,35.59,0,71.33,0,106.93v42.43a2.8,2.8,0,0,0,2.76,2.76h223C413,330.07,413,324.55,409.49,324.55Z"/><path class="cls-5" d="M427.24,111.73H312.57a8.84,8.84,0,0,0-8.84,8.84V267.69A4.32,4.32,0,0,0,308,272H431.77a4.32,4.32,0,0,0,4.31-4.31V120.57A8.84,8.84,0,0,0,427.24,111.73Z"/><path class="cls-3" d="M427.24,110.48H332.79c-6.64,0-13.4-.38-20,0-8.26.48-10.27,6.91-10.27,13.82V259.07c0,4.27-1.45,12,3.78,13.84,4.53,1.56,11.15.33,15.81.33H427.4c4.77,0,9.66,0,9.93-6.3.29-6.57,0-13.22,0-19.79V122.77c0-6.58-3-11.78-10.09-12.3-1.61-.12-1.6,2.38,0,2.5,9.61.7,7.59,12.24,7.59,19.28V260.5c0,4.21,1.28,9.82-4.31,10.24-6.84.52-13.92,0-20.77,0h-98.8c-2.6,0-5.32.37-6-3.13a24.57,24.57,0,0,1,0-4.19v-99c0-14.49-1.05-29.41,0-43.87.71-9.69,12.52-7.6,19.26-7.6h103A1.25,1.25,0,0,0,427.24,110.48Z"/><path class="cls-6" d="M318.19,152.11H425.34a1,1,0,0,1,1,1h0a1,1,0,0,1-1,1H318.19a1,1,0,0,1-1-1h0A1,1,0,0,1,318.19,152.11Z"/><path class="cls-6" d="M318.19,160.87H425.34a1,1,0,0,1,1,1h0a1,1,0,0,1-1,1H318.19a1,1,0,0,1-1-1h0A1,1,0,0,1,318.19,160.87Z"/><path class="cls-6" d="M353.37,169.62h72a1,1,0,0,1,1,1h0a1,1,0,0,1-1,1h-72a1,1,0,0,1-1-1h0A1,1,0,0,1,353.37,169.62Z"/><path class="cls-6" d="M359.21,178.38h66.13a1,1,0,0,1,1,1h0a1,1,0,0,1-1,1H359.21a1,1,0,0,1-1-1h0A1,1,0,0,1,359.21,178.38Z"/><path class="cls-6" d="M353.24,187.13h72.1a1,1,0,0,1,1,1h0a1,1,0,0,1-1,1h-72.1a1,1,0,0,1-1-1h0A1,1,0,0,1,353.24,187.13Z"/><path class="cls-7" d="M399.34,129H379.13a1.09,1.09,0,0,0-1.09,1.09h0a1.09,1.09,0,0,0,1.09,1.09h20.22a1.09,1.09,0,0,0,1.09-1.09h0A1.09,1.09,0,0,0,399.34,129Z"/><path class="cls-7" d="M399.34,133.77H387.89a1.09,1.09,0,0,0-1.09,1.09h0a1.09,1.09,0,0,0,1.09,1.09h11.45a1.09,1.09,0,0,0,1.09-1.09h0A1.09,1.09,0,0,0,399.34,133.77Z"/><path class="cls-7" d="M384,133.77h-1.67a1.09,1.09,0,0,0-1.09,1.09h0a1.09,1.09,0,0,0,1.09,1.09H384a1.09,1.09,0,0,0,1.09-1.09h0A1.09,1.09,0,0,0,384,133.77Z"/><path class="cls-7" d="M399.34,138.74h-8.79a1.09,1.09,0,0,0-1.09,1.09h0a1.09,1.09,0,0,0,1.09,1.09h8.79a1.09,1.09,0,0,0,1.09-1.09h0A1.09,1.09,0,0,0,399.34,138.74Z"/><rect class="cls-8" x="317.16" y="121.27" width="39.28" height="25.86" rx="3.23" ry="3.23"/><path class="cls-5" d="M345.87,133.22a8.08,8.08,0,0,1-.51,2.93,4.83,4.83,0,0,1-1.44,2.08,3.35,3.35,0,0,1-2.17.75,2.71,2.71,0,0,1-1.46-.4,2.27,2.27,0,0,1-.91-1h-.18a3.81,3.81,0,0,1-3.05,1.43,4.09,4.09,0,0,1-3.1-1.18,4.48,4.48,0,0,1-1.13-3.23,5,5,0,0,1,1.49-3.77,5.37,5.37,0,0,1,3.88-1.43,13.6,13.6,0,0,1,2.11.18,11.46,11.46,0,0,1,1.89.44L341,135.4c0,1,.28,1.54.84,1.54s.85-.34,1.13-1a7.31,7.31,0,0,0,.42-2.71,6.5,6.5,0,0,0-.75-3.15,5.06,5.06,0,0,0-2.09-2.09,6.42,6.42,0,0,0-3.08-.72,7.87,7.87,0,0,0-3.9.92,6.17,6.17,0,0,0-2.54,2.66,8.76,8.76,0,0,0-.88,4,6.37,6.37,0,0,0,1.64,4.7,6.43,6.43,0,0,0,4.75,1.63,14.19,14.19,0,0,0,2.59-.26,17.11,17.11,0,0,0,2.78-.76v2.13a13.33,13.33,0,0,1-5.28,1,9.22,9.22,0,0,1-6.58-2.22,8.06,8.06,0,0,1-2.36-6.17,10.32,10.32,0,0,1,1.21-5,8.74,8.74,0,0,1,3.43-3.51,10.17,10.17,0,0,1,5.12-1.27,9.29,9.29,0,0,1,4.36,1,7.08,7.08,0,0,1,3,2.84,8.5,8.5,0,0,1,1,4.25ZM334.5,134.6q0,2.34,1.91,2.34a1.77,1.77,0,0,0,1.52-.71,4.42,4.42,0,0,0,.63-2.29l.15-2.45a6.24,6.24,0,0,0-1.28-.12,2.74,2.74,0,0,0-2.16.86A3.42,3.42,0,0,0,334.5,134.6Z"/><path class="cls-9" d="M398.77,338H194.89a11.14,11.14,0,0,1-10.81-8.45L156.61,219.44A10.84,10.84,0,0,1,167.13,206h205a9.49,9.49,0,0,1,9.19,7.13L409.66,324A11.24,11.24,0,0,1,398.77,338Z"/><path class="cls-3" d="M398.77,336.75h-141c-20.35,0-40.71.28-61.06,0-5.22-.07-9.71-2-11.43-7.54-.64-2.08-1.06-4.25-1.59-6.36l-9.15-36.7-11.05-44.31c-1.88-7.52-4.23-15.07-5.66-22.69-2.37-12.61,9.9-11.93,17.89-11.93H366.63c1.73,0,3.49-.1,5.22,0,5.13.29,7.49,3.63,8.68,8,2.71,10,5.14,20.09,7.72,30.14l19.59,76.54c1.79,7-.63,14.33-9.07,14.83-1.6.09-1.61,2.59,0,2.5,8.29-.49,13.77-7.48,12.08-15.65-.53-2.54-1.29-5-1.93-7.55l-10.27-40.12L387.1,230.83l-3.71-14.48c-.84-3.28-1.48-6.45-4.15-8.86-4.41-4-12.05-2.77-17.56-2.77H231c-20.89,0-41.8-.27-62.68,0-10.06.13-14.68,8.12-12.39,17.29l8.33,33.39c6.15,24.66,11.33,49.82,18.51,74.2,2.56,8.68,9.68,9.64,17.23,9.64H398.77A1.25,1.25,0,0,0,398.77,336.75Z"/></g></svg>