<svg xmlns="http://www.w3.org/2000/svg" viewBox="0 0 565 500"><defs><style>.cls-1,.cls-10{fill:#5ae4a7;}.cls-2{fill:#f7dc6b;}.cls-3{opacity:0.2;}.cls-4{opacity:0.3;}.cls-5,.cls-9{fill:#192e35;}.cls-6,.cls-7{fill:#fff;}.cls-10,.cls-11,.cls-13,.cls-7,.cls-8,.cls-9{stroke:#192e35;stroke-linecap:round;stroke-linejoin:round;}.cls-13,.cls-8{fill:none;}.cls-11,.cls-12{fill:#c6c6c6;}.cls-13{stroke-width:1.1px;}</style></defs><title>morut</title><g id="Layer_7" data-name="Layer 7"><path class="cls-1" d="M463,284c-12.42,33.25-37.78,69.24-73.48,79.9-53.94,16.11-60.38,59.58-157,55.55a194.93,194.93,0,0,1-41.78-6.13,162.28,162.28,0,0,1-19.64-6.53C114.68,384,85.24,333.65,82.8,281c-3.23-69.24,45.08-102.24,76.48-121.56s69.24-94.2,164.24-91a188.89,188.89,0,0,1,42.94,6.27c32,8.65,64.46,27.79,83.35,55.76q2.13,3.15,4.07,6.44C479.14,179.82,479.94,238.69,463,284Z"/><path class="cls-2" d="M463,284c-12.42,33.25-37.78,69.24-73.48,79.9-53.94,16.11-60.38,59.58-157,55.55a194.93,194.93,0,0,1-41.78-6.13,162.28,162.28,0,0,1-19.64-6.53C114.68,384,85.24,333.65,82.8,281c-3.23-69.24,45.08-102.24,76.48-121.56s69.24-94.2,164.24-91a188.89,188.89,0,0,1,42.94,6.27c32,8.65,64.46,27.79,83.35,55.76q2.13,3.15,4.07,6.44C479.14,179.82,479.94,238.69,463,284Z"/><g class="cls-3"><path d="M240.9,329.73H163c-4.38,0-9.64-.8-14,0-1.42.26-1.07-.48-.73.54a3.76,3.76,0,0,1,0-1.34c.4-2.26,0-5,0-7.26V87.26c0-5.9.74-12.35,0-18.21-.13-1.07.36-.6-.61-.21a8.8,8.8,0,0,1,2.59,0h84.11c1.57,0,3.68.36,5.22,0s.92.49.61-.52c.37,1.21,0,3.12,0,4.37V330.35a.63.63,0,0,0,1.25,0V68.21a.63.63,0,0,0-.62-.62H147.73a.63.63,0,0,0-.62.63V330.35a.63.63,0,0,0,.63.63H240.9A.63.63,0,0,0,240.9,329.73Z"/><path d="M148.23,76.8h92.48a.63.63,0,0,0,0-1.25H148.23a.63.63,0,0,0,0,1.25Z"/><path d="M148.23,85.53h92.48a.63.63,0,0,0,0-1.25H148.23a.63.63,0,0,0,0,1.25Z"/><path d="M148.23,94.26h92.48a.63.63,0,0,0,0-1.25H148.23a.63.63,0,0,0,0,1.25Z"/><path d="M148.23,103h92.48a.63.63,0,0,0,0-1.25H148.23a.63.63,0,0,0,0,1.25Z"/><path d="M148.23,111.71h92.48a.63.63,0,0,0,0-1.25H148.23a.63.63,0,0,0,0,1.25Z"/><path d="M148.23,120.44h92.48a.63.63,0,0,0,0-1.25H148.23a.63.63,0,0,0,0,1.25Z"/><path d="M148.23,129.17h92.48a.63.63,0,0,0,0-1.25H148.23a.63.63,0,0,0,0,1.25Z"/><path d="M148.23,137.89h92.48a.63.63,0,0,0,0-1.25H148.23a.63.63,0,0,0,0,1.25Z"/><path d="M148.23,146.62h92.48a.63.63,0,0,0,0-1.25H148.23a.63.63,0,0,0,0,1.25Z"/><path d="M148.23,155.35h92.48a.63.63,0,0,0,0-1.25H148.23a.63.63,0,0,0,0,1.25Z"/><path d="M148.23,164.08h92.48a.63.63,0,0,0,0-1.25H148.23a.63.63,0,0,0,0,1.25Z"/><path d="M148.23,172.81h92.48a.63.63,0,0,0,0-1.25H148.23a.63.63,0,0,0,0,1.25Z"/><path d="M148.23,181.53h92.48a.63.63,0,0,0,0-1.25H148.23a.63.63,0,0,0,0,1.25Z"/><path d="M148.23,190.26h92.48a.63.63,0,0,0,0-1.25H148.23a.63.63,0,0,0,0,1.25Z"/><path d="M148.23,199h92.48a.63.63,0,0,0,0-1.25H148.23a.63.63,0,0,0,0,1.25Z"/><path d="M148.23,207.72h92.48a.63.63,0,0,0,0-1.25H148.23a.63.63,0,0,0,0,1.25Z"/><path d="M148.23,216.44h92.48a.63.63,0,0,0,0-1.25H148.23a.63.63,0,0,0,0,1.25Z"/><path d="M148.23,225.17h92.48a.63.63,0,0,0,0-1.25H148.23a.63.63,0,0,0,0,1.25Z"/><path d="M148.23,233.9h92.48a.63.63,0,0,0,0-1.25H148.23a.63.63,0,0,0,0,1.25Z"/><path d="M148.23,242.63h92.48a.63.63,0,0,0,0-1.25H148.23a.63.63,0,0,0,0,1.25Z"/><path d="M148.23,251.35h92.48a.63.63,0,0,0,0-1.25H148.23a.63.63,0,0,0,0,1.25Z"/><path d="M148.23,260.08h92.48a.63.63,0,0,0,0-1.25H148.23a.63.63,0,0,0,0,1.25Z"/><path d="M148.23,268.81h92.48a.63.63,0,0,0,0-1.25H148.23a.63.63,0,0,0,0,1.25Z"/><path d="M148.23,277.54h92.48a.63.63,0,0,0,0-1.25H148.23a.63.63,0,0,0,0,1.25Z"/><path d="M148.23,286.27h92.48a.63.63,0,0,0,0-1.25H148.23a.63.63,0,0,0,0,1.25Z"/><path d="M148.23,295h92.48a.63.63,0,0,0,0-1.25H148.23a.63.63,0,0,0,0,1.25Z"/><path d="M148.23,303.72h92.48a.63.63,0,0,0,0-1.25H148.23a.63.63,0,0,0,0,1.25Z"/><path d="M148.23,312.45h92.48a.63.63,0,0,0,0-1.25H148.23a.63.63,0,0,0,0,1.25Z"/><path d="M148.23,321.18h92.48a.63.63,0,0,0,0-1.25H148.23a.63.63,0,0,0,0,1.25Z"/></g><g class="cls-3"><path d="M343.09,329.73H265.23c-4.38,0-9.64-.8-14,0-1.42.26-1.07-.48-.73.54a3.76,3.76,0,0,1,0-1.34c.4-2.26,0-5,0-7.26V87.26c0-5.9.74-12.35,0-18.21-.13-1.07.36-.6-.61-.21a8.8,8.8,0,0,1,2.59,0h84.11c1.57,0,3.68.36,5.22,0s.92.49.61-.52c.37,1.21,0,3.12,0,4.37V330.35a.63.63,0,0,0,1.25,0V68.21a.63.63,0,0,0-.62-.62H249.92a.63.63,0,0,0-.62.63V330.35a.63.63,0,0,0,.63.63h93.17A.63.63,0,0,0,343.09,329.73Z"/><path d="M250.42,76.8H342.9a.63.63,0,0,0,0-1.25H250.42a.63.63,0,0,0,0,1.25Z"/><path d="M250.42,85.53H342.9a.63.63,0,0,0,0-1.25H250.42a.63.63,0,0,0,0,1.25Z"/><path d="M250.42,94.26H342.9a.63.63,0,0,0,0-1.25H250.42a.63.63,0,0,0,0,1.25Z"/><path d="M250.42,103H342.9a.63.63,0,0,0,0-1.25H250.42a.63.63,0,0,0,0,1.25Z"/><path d="M250.42,111.71H342.9a.63.63,0,0,0,0-1.25H250.42a.63.63,0,0,0,0,1.25Z"/><path d="M250.42,120.44H342.9a.63.63,0,0,0,0-1.25H250.42a.63.63,0,0,0,0,1.25Z"/><path d="M250.42,129.17H342.9a.63.63,0,0,0,0-1.25H250.42a.63.63,0,0,0,0,1.25Z"/><path d="M250.42,137.89H342.9a.63.63,0,0,0,0-1.25H250.42a.63.63,0,0,0,0,1.25Z"/><path d="M250.42,146.62H342.9a.63.63,0,0,0,0-1.25H250.42a.63.63,0,0,0,0,1.25Z"/><path d="M250.42,155.35H342.9a.63.63,0,0,0,0-1.25H250.42a.63.63,0,0,0,0,1.25Z"/><path d="M250.42,164.08H342.9a.63.63,0,0,0,0-1.25H250.42a.63.63,0,0,0,0,1.25Z"/><path d="M250.42,172.81H342.9a.63.63,0,0,0,0-1.25H250.42a.63.63,0,0,0,0,1.25Z"/><path d="M250.42,181.53H342.9a.63.63,0,0,0,0-1.25H250.42a.63.63,0,0,0,0,1.25Z"/><path d="M250.42,190.26H342.9a.63.63,0,0,0,0-1.25H250.42a.63.63,0,0,0,0,1.25Z"/><path d="M250.42,199H342.9a.63.63,0,0,0,0-1.25H250.42a.63.63,0,0,0,0,1.25Z"/><path d="M250.42,207.72H342.9a.63.63,0,0,0,0-1.25H250.42a.63.63,0,0,0,0,1.25Z"/><path d="M250.42,216.44H342.9a.63.63,0,0,0,0-1.25H250.42a.63.63,0,0,0,0,1.25Z"/><path d="M250.42,225.17H342.9a.63.63,0,0,0,0-1.25H250.42a.63.63,0,0,0,0,1.25Z"/><path d="M250.42,233.9H342.9a.63.63,0,0,0,0-1.25H250.42a.63.63,0,0,0,0,1.25Z"/><path d="M250.42,242.63H342.9a.63.63,0,0,0,0-1.25H250.42a.63.63,0,0,0,0,1.25Z"/><path d="M250.42,251.35H342.9a.63.63,0,0,0,0-1.25H250.42a.63.63,0,0,0,0,1.25Z"/><path d="M250.42,260.08H342.9a.63.63,0,0,0,0-1.25H250.42a.63.63,0,0,0,0,1.25Z"/><path d="M250.42,268.81H342.9a.63.63,0,0,0,0-1.25H250.42a.63.63,0,0,0,0,1.25Z"/><path d="M250.42,277.54H342.9a.63.63,0,0,0,0-1.25H250.42a.63.63,0,0,0,0,1.25Z"/><path d="M250.42,286.27H342.9a.63.63,0,0,0,0-1.25H250.42a.63.63,0,0,0,0,1.25Z"/><path d="M250.42,295H342.9a.63.63,0,0,0,0-1.25H250.42a.63.63,0,0,0,0,1.25Z"/><path d="M250.42,303.72H342.9a.63.63,0,0,0,0-1.25H250.42a.63.63,0,0,0,0,1.25Z"/><path d="M250.42,312.45H342.9a.63.63,0,0,0,0-1.25H250.42a.63.63,0,0,0,0,1.25Z"/><path d="M250.42,321.18H342.9a.63.63,0,0,0,0-1.25H250.42a.63.63,0,0,0,0,1.25Z"/></g><g class="cls-4"><path d="M106.13,99.34H91l.63.63V84.79l-.62.63h15.18l-.62-.62V100a.63.63,0,0,0,1.25,0V84.79a.63.63,0,0,0-.62-.62H91a.63.63,0,0,0-.62.63V100a.63.63,0,0,0,.63.62h15.18A.63.63,0,0,0,106.13,99.34Z"/><path d="M106.13,125.21H91l.63.63V110.65l-.62.63h15.18l-.62-.62v15.18a.63.63,0,0,0,1.25,0V110.65a.63.63,0,0,0-.62-.62H91a.63.63,0,0,0-.62.63v15.18a.63.63,0,0,0,.63.63h15.18A.63.63,0,0,0,106.13,125.21Z"/><path d="M111.75,93.29H134.8a.63.63,0,0,0,0-1.25H111.75a.63.63,0,0,0,0,1.25Z"/><path d="M111.75,118.58H134.8a.63.63,0,0,0,0-1.25H111.75a.63.63,0,0,0,0,1.25Z"/><path d="M93.79,89.6,96,94.1a.63.63,0,0,0,1.08,0l10.12-15.18c.45-.67-.63-1.3-1.08-.63L96,93.47h1.08L94.87,89c-.36-.72-1.44-.09-1.08.63Z"/></g><g class="cls-4"><path d="M330.45,402.09H315.27l.63.63V387.53l-.62.63h15.18l-.62-.62v15.18a.63.63,0,0,0,1.25,0V387.53a.63.63,0,0,0-.62-.62H315.27a.63.63,0,0,0-.62.63v15.18a.63.63,0,0,0,.63.63h15.18A.63.63,0,0,0,330.45,402.09Z"/><path d="M330.45,427.95H315.27l.63.63V413.4l-.62.63h15.18l-.62-.62v15.18a.63.63,0,0,0,1.25,0V413.4a.63.63,0,0,0-.62-.62H315.27a.63.63,0,0,0-.62.63v15.18a.63.63,0,0,0,.63.63h15.18A.63.63,0,0,0,330.45,427.95Z"/><path d="M336.07,396h23.05a.63.63,0,0,0,0-1.25H336.07a.63.63,0,0,0,0,1.25Z"/><path d="M336.07,421.33h23.05a.63.63,0,0,0,0-1.25H336.07a.63.63,0,0,0,0,1.25Z"/><path d="M318.1,392.35l2.25,4.5a.63.63,0,0,0,1.08,0l10.12-15.18c.45-.67-.63-1.3-1.08-.63l-10.12,15.18h1.08l-2.25-4.5c-.36-.72-1.44-.09-1.08.63Z"/></g><g class="cls-4"><path d="M381.33,91.19H366.15l.63.63V76.64l-.62.63h15.18l-.62-.62V91.82a.63.63,0,0,0,1.25,0V76.64a.63.63,0,0,0-.62-.62H366.15a.63.63,0,0,0-.62.63V91.82a.63.63,0,0,0,.63.63h15.18A.63.63,0,0,0,381.33,91.19Z"/><path d="M381.33,117.05H366.15l.63.63V102.5l-.62.63h15.18l-.62-.62v15.18a.63.63,0,0,0,1.25,0V102.5a.63.63,0,0,0-.62-.62H366.15a.63.63,0,0,0-.62.63v15.18a.63.63,0,0,0,.63.63h15.18A.63.63,0,0,0,381.33,117.05Z"/><path d="M387,85.13H410a.63.63,0,0,0,0-1.25H387a.63.63,0,0,0,0,1.25Z"/><path d="M387,110.43H410a.63.63,0,0,0,0-1.25H387a.63.63,0,0,0,0,1.25Z"/><path d="M369,81.45l2.25,4.5a.63.63,0,0,0,1.08,0l10.12-15.18c.45-.67-.63-1.3-1.08-.63L371.23,85.32h1.08l-2.25-4.5c-.36-.72-1.44-.09-1.08.63Z"/></g><rect class="cls-5" x="268.46" y="104.01" width="197.57" height="279.37"/><rect class="cls-6" x="263.58" y="99.13" width="197.57" height="279.37"/><path class="cls-5" d="M461.15,377.25H263.58l1.25,1.25V99.13l-1.25,1.25H461.15l-1.25-1.25V378.5a1.25,1.25,0,0,0,2.5,0V99.13a1.27,1.27,0,0,0-1.25-1.25H263.58a1.27,1.27,0,0,0-1.25,1.25V378.5a1.27,1.27,0,0,0,1.25,1.25H461.15A1.25,1.25,0,0,0,461.15,377.25Z"/><rect class="cls-7" x="271.9" y="126.86" width="179.55" height="50.61"/><rect class="cls-7" x="271.9" y="116.46" width="58.92" height="10.4"/><rect class="cls-7" x="392.52" y="116.46" width="58.92" height="10.4"/><line class="cls-8" x1="271.9" y1="143.5" x2="451.45" y2="143.5"/><line class="cls-8" x1="271.9" y1="159.44" x2="451.45" y2="159.44"/><rect class="cls-7" x="271.9" y="193.05" width="179.55" height="50.61"/><line class="cls-8" x1="271.9" y1="209.68" x2="451.45" y2="209.68"/><line class="cls-8" x1="271.9" y1="225.63" x2="451.45" y2="225.63"/><line class="cls-8" x1="274.83" y1="130.92" x2="296.66" y2="130.92"/><line class="cls-8" x1="386.18" y1="130.92" x2="408.01" y2="130.92"/><line class="cls-8" x1="274.83" y1="119.08" x2="296.66" y2="119.08"/><line class="cls-8" x1="393.44" y1="119.08" x2="415.27" y2="119.08"/><line class="cls-8" x1="274.83" y1="146.7" x2="296.66" y2="146.7"/><line class="cls-8" x1="274.83" y1="164.06" x2="296.66" y2="164.06"/><line class="cls-8" x1="342.26" y1="164.06" x2="364.09" y2="164.06"/><line class="cls-8" x1="338.74" y1="117.24" x2="382.4" y2="117.24"/><line class="cls-8" x1="338.74" y1="121.71" x2="382.4" y2="121.71"/><line class="cls-8" x1="334.34" y1="173.49" x2="344.24" y2="173.49"/><line class="cls-8" x1="346.71" y1="173.49" x2="356.61" y2="173.49"/><line class="cls-8" x1="359.08" y1="173.49" x2="368.98" y2="173.49"/><rect class="cls-7" x="271.9" y="254.29" width="179.55" height="50.61"/><line class="cls-8" x1="271.9" y1="270.93" x2="451.45" y2="270.93"/><line class="cls-8" x1="271.9" y1="286.87" x2="451.45" y2="286.87"/><line class="cls-8" x1="274.83" y1="258.35" x2="296.66" y2="258.35"/><line class="cls-8" x1="386.18" y1="258.35" x2="408.01" y2="258.35"/><line class="cls-8" x1="274.83" y1="274.13" x2="296.66" y2="274.13"/><line class="cls-8" x1="274.83" y1="291.48" x2="296.66" y2="291.48"/><line class="cls-8" x1="342.26" y1="291.48" x2="364.09" y2="291.48"/><line class="cls-8" x1="334.34" y1="300.92" x2="344.24" y2="300.92"/><line class="cls-8" x1="346.71" y1="300.92" x2="356.61" y2="300.92"/><line class="cls-8" x1="359.08" y1="300.92" x2="368.98" y2="300.92"/><line class="cls-8" x1="276.19" y1="198.23" x2="327.53" y2="198.23"/><line class="cls-8" x1="276.19" y1="214.93" x2="307.74" y2="214.93"/><line class="cls-8" x1="355.99" y1="214.93" x2="387.54" y2="214.93"/><line class="cls-8" x1="405.48" y1="235.97" x2="437.03" y2="235.97"/><line class="cls-8" x1="398.67" y1="214.93" x2="430.22" y2="214.93"/><rect class="cls-8" x="392.49" y="232.26" width="7.42" height="7.42"/><line class="cls-8" x1="354.13" y1="235.97" x2="385.68" y2="235.97"/><rect class="cls-8" x="341.14" y="232.26" width="7.42" height="7.42"/><line class="cls-8" x1="302.79" y1="235.97" x2="334.34" y2="235.97"/><rect class="cls-8" x="289.8" y="232.26" width="7.42" height="7.42"/><line class="cls-8" x1="429.95" y1="314.53" x2="450.63" y2="314.53"/><line class="cls-8" x1="347.84" y1="314.53" x2="427.28" y2="314.53"/><line class="cls-8" x1="296.66" y1="314.53" x2="345.44" y2="314.53"/><line class="cls-8" x1="273.1" y1="314.53" x2="294.79" y2="314.53"/><line class="cls-8" x1="405.42" y1="319.33" x2="450.63" y2="319.33"/><line class="cls-8" x1="319.05" y1="319.33" x2="403.29" y2="319.33"/><line class="cls-8" x1="273.1" y1="319.33" x2="316.38" y2="319.33"/><line class="cls-8" x1="417.15" y1="324.12" x2="450.63" y2="324.12"/><line class="cls-8" x1="345.18" y1="324.12" x2="415.29" y2="324.12"/><line class="cls-8" x1="304.12" y1="324.12" x2="341.44" y2="324.12"/><line class="cls-8" x1="273.1" y1="324.12" x2="301.72" y2="324.12"/><line class="cls-8" x1="435.55" y1="328.92" x2="450.63" y2="328.92"/><line class="cls-8" x1="284.4" y1="328.92" x2="432.88" y2="328.92"/><line class="cls-8" x1="273.1" y1="328.92" x2="282.26" y2="328.92"/><line class="cls-8" x1="439.01" y1="333.72" x2="450.63" y2="333.72"/><line class="cls-8" x1="401.96" y1="333.72" x2="436.61" y2="333.72"/><line class="cls-8" x1="345.18" y1="333.72" x2="400.09" y2="333.72"/><line class="cls-8" x1="292.13" y1="333.72" x2="343.04" y2="333.72"/><line class="cls-8" x1="273.1" y1="333.72" x2="289.19" y2="333.72"/><line class="cls-8" x1="429.68" y1="338.52" x2="450.63" y2="338.52"/><line class="cls-8" x1="362.5" y1="338.52" x2="426.75" y2="338.52"/><line class="cls-8" x1="319.05" y1="338.52" x2="359.04" y2="338.52"/><line class="cls-8" x1="273.1" y1="338.52" x2="316.38" y2="338.52"/><line class="cls-8" x1="399.03" y1="343.32" x2="450.63" y2="343.32"/><line class="cls-8" x1="296.66" y1="343.32" x2="395.29" y2="343.32"/><line class="cls-8" x1="273.1" y1="343.32" x2="293.73" y2="343.32"/><line class="cls-8" x1="274.95" y1="357.83" x2="297.22" y2="357.83"/><line class="cls-8" x1="385.06" y1="357.83" x2="407.33" y2="357.83"/><line class="cls-8" x1="302.79" y1="357.83" x2="377.64" y2="357.83"/><line class="cls-8" x1="413.52" y1="357.83" x2="450.02" y2="357.83"/><path class="cls-7" d="M253,394.31l6.63,6.46s15.13,5.61,15.81,6.63,0,3.91,0,3.91H240.55l.92-13.88Z"/><path class="cls-7" d="M275.69,409.1h-35l-.15,2.21h34.84A13,13,0,0,0,275.69,409.1Z"/><path class="cls-9" d="M181.36,283.42l4.78,56.5s-3.85,34-3.85,37.4-1.69,14.34-1.69,14.34l11.53,1.41,15.38-58.2,2.25-23.61,18.83,42.45,12.89,43.74L253,394.31,244,338.23l-16.51-52.85-1.19-6.18-45,.56Z"/><path class="cls-7" d="M180.6,391.66l-3.37,9.21s-6.29,7.31-5.78,8.67a2.82,2.82,0,0,0,1.7,1.7h15.64a2,2,0,0,0,1.53-1.7,21.27,21.27,0,0,0,.34-3.74l1.47-12.73Z"/><path class="cls-7" d="M190.31,409.54c0-.22.09-.45.12-.68H171.53a1.12,1.12,0,0,0-.08.68,2.82,2.82,0,0,0,1.7,1.7h15.64A2,2,0,0,0,190.31,409.54Z"/><path class="cls-10" d="M197.38,202.53s-14.76.84-19.19,3.79S152.27,227,152.27,227l1.1,18.42,23.78-17.15,3.37,59.45,47-2.32-1.05-33.1-.63-1.05s15.18,15.6,20.87,15.18,7-9.91,2.74-15.81-10.54-14.34-15-20.66-4.43-15.6-11-20-17.92-7-17.92-7Z"/><line class="cls-7" x1="226.48" y1="252.29" x2="225.55" y2="233.26"/><line class="cls-7" x1="228.56" y1="240.84" x2="229.11" y2="237.58"/><line class="cls-7" x1="226.82" y1="251.29" x2="228.17" y2="243.18"/><line class="cls-7" x1="207.18" y1="263.45" x2="209.3" y2="265.77"/><line class="cls-7" x1="184.41" y1="238.59" x2="205.84" y2="262"/><line class="cls-7" x1="192.11" y1="253.83" x2="200.41" y2="261.96"/><line class="cls-7" x1="187.96" y1="249.77" x2="190.35" y2="252.1"/><polyline class="cls-8" points="184.15 223.61 177.14 228.25 183.9 227.67"/><path class="cls-7" d="M195.92,185.34a73.73,73.73,0,0,1,.76,9.71,69.09,69.09,0,0,1-.76,9.52s9.52,14.48,11.24,15.62,2.86-3.81,2.86-5.9.19-8.19.19-8.19v-6.86Z"/><path class="cls-9" d="M210.17,207c0-.58,0-.94,0-.94v-6.86L207,196.1l-7.9-3.19Z"/><path class="cls-7" d="M240.69,256.33c2.43-4.46,13.18-17.59,13.18-17.59l7,3.4s-5.31,19.32-7.86,22.08-5.35,3.69-8.32,1.57"/><path class="cls-10" d="M244.85,265.64a6.65,6.65,0,0,0,8.32-1.57c.77-.83,1.79-3.18,2.84-6a11,11,0,0,1-12.31-6.17,28.76,28.76,0,0,0-3.26,5.2c-.09.26.61,3.49.57,3.73"/><path class="cls-7" d="M324.59,268.25a1.26,1.26,0,0,1-.48-.1l-9-3.74a1.26,1.26,0,0,1,1-2.34l9,3.74a1.26,1.26,0,0,1-.49,2.43Z"/><path class="cls-7" d="M296.5,261.7l-200-89.75a6.32,6.32,0,0,1-3.18-8.36h0a6.32,6.32,0,0,1,8.36-3.18l200,89.75Z"/><path class="cls-7" d="M123.65,170.26l-22-9.86a6.32,6.32,0,0,0-5.18,11.54l21.42,9.69Z"/><polygon class="cls-7" points="301.68 250.16 321.7 263.87 320.45 266.53 296.5 261.7 301.68 250.16"/><path class="cls-9" d="M118.33,167.87l-16.65-7.47a6.32,6.32,0,0,0-5.18,11.54l16,7.16Z"/><path class="cls-7" d="M138.56,181s-1.69,9.07-.42,10.75,8.22,8,8.22,8-2.74,36.89-2.11,40.27,7.8,5.9,10.12,5.27,4-3.16,6.11-7.8-7.38-37.11-7.38-38.58-4.43-12.86-4.43-12.86a36.21,36.21,0,0,0,4.22-3.37c.63-.84-2.53-.21-3.16-.21a35.13,35.13,0,0,1-6.11-1.26C142.78,180.82,138.56,181,138.56,181Z"/><path class="cls-11" d="M148.77,182.46s-3,.75-2.88,1.49.11,5.44.11,5.44"/><path class="cls-11" d="M144.18,181.71s-2.56-.11-2.56,1.28v5.87"/><line class="cls-7" x1="138.53" y1="181.61" x2="138.96" y2="188.86"/><path class="cls-10" d="M154.37,245.33c2.32-.63,4-3.16,6.11-7.8.79-1.75-.06-7.45-1.43-14a15.83,15.83,0,0,1-14.38,1.65c-.41,7.24-.67,13.54-.42,14.85C144.89,243.43,152.06,246,154.37,245.33Z"/><path class="cls-7" d="M253.79,228.64a4.64,4.64,0,0,1,3.13-1.1c1.72.16,2,2.66,1.88,4.85s-2.5,2.66-2.82,1.25-.63-3.6-.63-3.6Z"/><path class="cls-7" d="M258.48,228.48a2.48,2.48,0,0,1,3,1.41c.94,2-.16,4.69-1.25,4.85s-1.41-2.35-1.41-2.35Z"/><path class="cls-7" d="M261.45,229.89a1.52,1.52,0,0,1,2.19,1.1c.63,1.88,1.25,4.22-.16,4.22s-1.88-2.5-1.88-2.5Z"/><path class="cls-7" d="M263.64,231s2-.16,2.5,1.1,1.41,3.6-.31,3.6c-.47,0-1.56-2.19-1.56-2.19Z"/><path class="cls-5" d="M222.6,177.28c-1.25-.29-2.72,1.43-3.27,3.83s0,4.58,1.27,4.87,2.72-1.43,3.27-3.83S223.86,177.57,222.6,177.28Zm-1.73,7.4c-.85-.2-1.2-1.83-.79-3.65s1.45-3.13,2.3-2.94,1.2,1.83.79,3.65S221.72,184.87,220.87,184.67Z"/><path class="cls-12" d="M218.32,171.36s2.72,5,1,9.87l-.08.64s4.93,2.74,5,3.41-1.54,1.62-4.22,2.17c0,0-1.64,13.06-2.22,13.84s-3.09,1.37-6,.48l-2.94-.89s-5-1.71-11.13-9.42l-.67-.59s-1.66,1.19-2.78.82-2.11-3-1.83-6.66a4.73,4.73,0,0,1,3.82-4.24l3.34-15.34,18.28.69Z"/><path class="cls-6" d="M224.22,185.28c-.06-.67-5-3.41-5-3.41l.08-.64c1.74-4.86-1-9.87-1-9.87L218.2,170l-2.58-.73s-5.64,1.34-6.92,3.56-2.37,18.3-1.52,20.8c.63,1.86,3.13,5.58,6.35,8.51,2.12.25,3.78-.24,4.24-.86.58-.78,2.22-13.84,2.22-13.84C222.68,186.9,224.29,186,224.22,185.28Z"/><polygon class="cls-5" points="201.93 182.17 211.4 180.84 211.21 181.67 201.72 183.07 201.93 182.17"/><path class="cls-5" d="M219,182.13c.29-2.61-1.28-4.92-3.5-5.17s-4.27,1.66-4.56,4.27,1.28,4.92,3.5,5.17S218.75,184.74,219,182.13Zm-4.46,3.36a3.89,3.89,0,1,1,3.68-3.45A3.59,3.59,0,0,1,214.59,185.49Z"/><ellipse class="cls-5" cx="214.85" cy="181.88" rx="1.65" ry="0.56" transform="translate(10.24 375.2) rotate(-83.63)"/><path class="cls-5" d="M211.52,190.55c1.24,0,3,.34,3.58,1.57.35.72,1.43.09,1.08-.63-.79-1.64-3-2.15-4.66-2.18a.63.63,0,0,0,0,1.25Z"/><path class="cls-5" d="M212.23,178a4.09,4.09,0,0,1,3.9-1.32c.78.18,1.12-1,.33-1.21a5.34,5.34,0,0,0-5.12,1.65c-.54.6.34,1.48.88.88Z"/><path class="cls-5" d="M218.31,178.35l1.48-.24c.37-.06.75-.11,1.12-.15l.45,0s.35,0,.18,0c.79.13,1.13-1.08.33-1.21a7.21,7.21,0,0,0-2.12.16l-1.77.28c-.79.14-.46,1.34.33,1.21Z"/><path class="cls-5" d="M198.65,185.8s4.4,1.37,5-.73c0,0,.36-1.27-1.13-3.18s2.54-3.76,3-4,4-1.82,2.39-3.87-6.88-2.82-6.88-2.82,1-1.27,3.62-1.14,5.87-.44,9.92.52,10.4.34,13.27-2.47,3.91-10.2-.77-12.26-10.74,2.1-13,1.83-7.1-3.45-11.07-2.21-6,6.69-6.24,7.77c0,0-7.47,1.21-8.54,7.13s1.24,11.51,4.14,15.9l.55-1.58s0-2.21,1.6-2.29S197.59,183.26,198.65,185.8Z"/><g class="cls-3"><path class="cls-6" d="M206.4,174.87l-1.67.11c-.8.05-.8,1.3,0,1.25l1.67-.11c.8-.05.8-1.3,0-1.25Z"/></g><g class="cls-3"><path class="cls-6" d="M192,180.71c0-2.68,3.45-2.9,5.44-3.29s3.72-.71,5.58-1c.79-.14.46-1.34-.33-1.21-2.69.46-5.4.93-8.06,1.55-2.08.49-3.86,1.6-3.88,4a.63.63,0,0,0,1.25,0Z"/></g><g class="cls-3"><path class="cls-6" d="M191.41,173.66s-.11-.14,0,0a1.05,1.05,0,0,1-.15-.28,3.71,3.71,0,0,1,0-1.83c.15-.79-1.05-1.12-1.21-.33s-.42,2.61.47,3.33c.62.5,1.51-.38.88-.88Z"/></g><g class="cls-3"><path class="cls-6" d="M191.85,169.92c2.4-4,14.53-1.24,18.34-1.15,3.34.08,8.79.44,10.75-3,3.53-6.16-7.89-8.1-8.1-1.68,0,.8,1.22.8,1.25,0,.14-4.28,6.18-1.51,6,.55-.18,1.68-2.59,2.3-3.91,2.58-4.33.89-9.08.12-13.44-.15-3-.18-9.89-1.15-11.92,2.2a.63.63,0,0,0,1.08.63Z"/></g><path class="cls-13" d="M192.43,184.64s-.7,6.2,2.1,7.11c0,0,.71.26,2.49-.88,0,0,5.08,6.18,8.59,8.24a20.31,20.31,0,0,0,8.89,3.1c2.22.09,3.24-.61,3.4-1.19S220,187.45,220,187.45s3.94-.7,4.22-2.17a7,7,0,0,0-1.47-1.28c-.82-.51-3.52-2.12-3.52-2.12s1.43-4,.25-7.32-1.28-3.84-1.28-3.84"/></g></svg>