<?xml version="1.0" encoding="utf-8"?>
<!-- Generator: Adobe Illustrator 21.1.0, SVG Export Plug-In . SVG Version: 6.00 Build 0)  -->
<svg version="1.1" id="Layer_1" xmlns="http://www.w3.org/2000/svg" xmlns:xlink="http://www.w3.org/1999/xlink" x="0px" y="0px"
	 viewBox="0 0 565 500" style="enable-background:new 0 0 565 500;" xml:space="preserve">
<style type="text/css">
	.st0{fill:#FFFFFF;stroke:#192E35;stroke-width:1.1;stroke-linecap:round;stroke-linejoin:round;}
	.st1{fill:none;stroke:#192E35;stroke-width:1.1;stroke-miterlimit:10;}
	.st2{opacity:0.5;fill:#183C37;enable-background:new    ;}
	.st3{fill:none;stroke:#192E35;stroke-width:1.1;stroke-linecap:round;stroke-linejoin:round;stroke-dasharray:4.41;}
	.st4{fill:#F7DA08;stroke:#192E35;stroke-width:1.1;stroke-miterlimit:10;}
	.st5{fill:#FFFFFF;}
	.st6{fill:#74C69C;stroke:#192E35;stroke-width:1.1;stroke-miterlimit:10;}
	.st7{fill:#8B97CB;}
	.st8{fill:#192E35;}
	.st9{fill:#FFFFFF;stroke:#1C1C1B;stroke-width:1.1;stroke-miterlimit:10;}
	.st10{fill:#182E35;stroke:#192E35;stroke-width:1.1;stroke-miterlimit:10;}
	.st11{fill:#00A98C;}
	.st12{fill:none;stroke:#192E35;stroke-width:1.1;stroke-linecap:round;stroke-linejoin:round;}
	.st13{fill:#35B995;}
	.st14{opacity:0.5;fill:#FFFFFF;enable-background:new    ;}
	.st15{opacity:0.2;enable-background:new    ;}
	.st16{fill:none;stroke:#192E35;stroke-width:2.21;stroke-linecap:round;stroke-linejoin:round;}
	
		.st17{opacity:0.2;fill:none;stroke:#FFFFFF;stroke-width:1.1;stroke-linecap:round;stroke-linejoin:round;enable-background:new    ;}
	.st18{fill:none;stroke:#FFFFFF;stroke-width:1.1;stroke-linecap:round;stroke-linejoin:round;}
</style>
<title>morut s</title>
<g id="Character">
	<path class="st0" d="M423.3,144.2v142.4c0,9.7-7.9,17.6-17.6,17.6H155.3c-9.7,0-17.6-7.9-17.6-17.6V144.2c0-0.4,0-0.8,0.1-1.2
		c0.6-9.2,8.3-16.3,17.5-16.3h250.5c9.2,0,16.9,7.2,17.5,16.4C423.3,143.4,423.3,143.8,423.3,144.2z"/>
	<path class="st1" d="M415.7,149.5v131.6c0,9.1-7.4,16.5-16.5,16.5H162.7c-7.9,0-14.6-5.6-16.1-13.3l0,0l0,0c-0.2-1-0.3-2.1-0.3-3.1
		V149.5H415.7z"/>
	<ellipse class="st2" cx="294" cy="390.6" rx="148" ry="19.9"/>
	<path class="st3" d="M144.6,208.8h-4.3c-9.6,0-17.3,7.8-17.3,17.3v95.2c0,9.6,7.8,17.4,17.3,17.4c0,0,0,0,0,0h58.8
		c9.6,0,17.4-7.8,17.4-17.4l0,0l0,0"/>
	<path class="st3" d="M211.7,119v-18.8c0-5.9,4.8-10.6,10.6-10.6l0,0h76.5c5.9,0,10.6,4.8,10.6,10.6l0,0l0,0"/>
	<path class="st4" d="M423.3,143H137.8c0.6-9.2,8.3-16.3,17.5-16.3h250.5C415,126.7,422.6,133.8,423.3,143z"/>
	<circle class="st5" cx="169.7" cy="134.8" r="3.1"/>
	<circle class="st5" cx="182.9" cy="134.8" r="3.1"/>
	<circle class="st5" cx="196" cy="134.8" r="3.1"/>
	<path class="st6" d="M163.4,187.1h77.3c7.2,0,13.1,5.9,13.1,13.1v109.1c0,7.2-5.9,13.1-13.1,13.1h-77.3c-7.2,0-13.1-5.9-13.1-13.1
		V200.2C150.3,193,156.2,187.1,163.4,187.1z"/>
	<path class="st0" d="M263.4,207.7v114.5c0,5.7-4.6,10.4-10.4,10.4c0,0,0,0,0,0h-82.7c-5.7,0-10.4-4.6-10.4-10.4c0,0,0,0,0,0V207.7
		c0-5.7,4.6-10.4,10.4-10.4H253C258.7,197.3,263.4,201.9,263.4,207.7C263.4,207.7,263.4,207.7,263.4,207.7z"/>
	<path class="st4" d="M263.4,207.7v6.1H159.9v-6.1c0-5.7,4.6-10.4,10.4-10.4H253C258.7,197.3,263.4,201.9,263.4,207.7
		C263.4,207.7,263.4,207.7,263.4,207.7z"/>
	<rect x="169.7" y="220.9" class="st7" width="25.4" height="4.3"/>
	<rect x="169.7" y="259.2" class="st7" width="25.4" height="4.3"/>
	<rect x="169.7" y="293.9" class="st7" width="25.4" height="4.3"/>
	<rect x="169.7" y="231.5" class="st8" width="72.3" height="3.1"/>
	<rect x="169.7" y="237.5" class="st8" width="59.3" height="3.1"/>
	<rect x="169.7" y="243.4" class="st8" width="67" height="3.1"/>
	<rect x="169.7" y="249.3" class="st8" width="67" height="3.1"/>
	<rect x="169.7" y="266.2" class="st8" width="72.3" height="3.1"/>
	<rect x="169.7" y="272.2" class="st8" width="59.3" height="3"/>
	<rect x="169.7" y="278.1" class="st8" width="67" height="3"/>
	<rect x="169.7" y="304.3" class="st8" width="72.3" height="3.1"/>
	<rect x="169.7" y="310.3" class="st8" width="59.3" height="3"/>
	<rect x="169.7" y="316.2" class="st8" width="67" height="3"/>
	<path class="st9" d="M380,117.9v46.3c0,6.8-5.5,12.4-12.4,12.4H261c-6.8,0-12.4-5.5-12.4-12.4v-46.3c0-6.8,5.5-12.4,12.4-12.4l0,0
		h106.6C374.5,105.5,380,111.1,380,117.9z"/>
	<path class="st10" d="M380,117.9v1.1H248.6v-1.1c0-6.8,5.5-12.4,12.3-12.4c0,0,0,0,0,0h106.6C374.5,105.5,380,111.1,380,117.9z"/>
	
		<ellipse transform="matrix(0.7071 -0.7071 0.7071 0.7071 -1.9041 221.6554)" class="st5" cx="266.6" cy="113.1" rx="1.9" ry="1.9"/>
	<ellipse transform="matrix(0.7071 -0.7071 0.7071 0.7071 0.6759 227.8731)" class="st5" cx="275.4" cy="113.1" rx="1.9" ry="1.9"/>
	<ellipse transform="matrix(0.7071 -0.7071 0.7071 0.7071 3.2459 234.0926)" class="st5" cx="284.2" cy="113.1" rx="1.9" ry="1.9"/>
	<rect x="306.6" y="127.5" class="st8" width="49.4" height="2.6"/>
	<rect x="306.6" y="132.9" class="st8" width="37.9" height="2.6"/>
	<rect x="306.6" y="138.3" class="st8" width="56.4" height="2.6"/>
	<rect x="306.6" y="143.5" class="st8" width="48.1" height="2.6"/>
	<path class="st11" d="M317.6,387c0,0-22.9,6.6-26.1,7.7c-2.9,1-10.8,3.8-16.7,2.9c-0.6-0.1-1.1-0.2-1.7-0.4c-6-1.8-8.7-3.5-9.5-7.2
		s2.2-6.5,5.1-8.3s18.5-3.6,18.5-3.6l3.8,1.1l0,0L317.6,387z"/>
	<path class="st5" d="M274.7,397.6c-0.6-0.1-1.1-0.2-1.7-0.4c-6-1.8-8.7-3.5-9.5-7.2s2.2-6.5,5.1-8.3s18.5-3.6,18.5-3.6l3.8,1.1
		c-3.4,1.6-16.1,2.4-18.9,4s-4.1,4.6-2.5,8.7C270.4,394.1,272.7,396.2,274.7,397.6z"/>
	<path class="st12" d="M314.1,387.9c0,0-17.2,4.5-24.1,7.3s-19.9,4.1-24.5-1.8s-0.5-11,4.1-12.1s14-2.9,19.2-2.2"/>
	<path class="st12" d="M275,397.3c0,0-8.8-4.8-5.9-11.5c2.1-5,13.8-3.9,19.6-6.6"/>
	<path class="st11" d="M387.5,398.7c-0.1,2.5-1.4,4.7-3.4,6c-2.2,1.1-4.6,1.6-7,1.5c-8-0.1-23.2-5.9-23.2-5.9l-14.2-7.8l7.4-11.7
		l2-3.2l5.2,1.2c0,0,4.3,2.4,8.6,4.4s14.9,2.4,18.6,5.4S387.9,394.8,387.5,398.7z"/>
	<path class="st5" d="M387.5,398.7c-0.1,2.5-1.4,4.7-3.4,6c0.7-2.3,0.5-4.8-0.4-7.1c-1.6-3.5-6.7-6.7-13.5-7.2s-12-3.7-14.7-5.1
		c-2.1-1.1-6.6-3.5-8.5-4.5l2-3.2l5.2,1.2c0,0,4.3,2.4,8.6,4.4s14.9,2.4,18.6,5.4S387.9,394.8,387.5,398.7z"/>
	<path class="st12" d="M342.8,394.7c10.2,5.9,21.5,9.8,33.1,11.3c2.6,0.3,5.6,0.4,7.3-1.6c0.9-1.1,1.3-2.6,1.2-4
		c-0.3-3.6-3.4-6.5-6.7-8s-7-1.8-10.6-2.6c-3.6-0.8-7-2-10.2-3.7c-2.6-1.3-5-3-7.9-3.6s-6.2,0.1-7.7,2.6"/>
	<path class="st12" d="M382.3,405.4c2.7-1.3,4.6-3.8,5.2-6.7c0.5-3.4-1.4-6.9-4.2-9s-6.2-3.1-9.6-3.8s-6.9-1.2-10.1-2.4
		c-5-1.9-9.9-5.8-15-4.4"/>
	<path class="st13" d="M358.8,272.1l-24-9.1l-0.3-0.1c0,0,0.1-0.6,0.2-1.6c0.1-1.9,0.2-5-0.7-6.1c-1.3-1.6-5.1-0.3-8.8-1.9
		s-10.5,1.3-10.5,1.3s-4.9-0.9-7.1,2.6c-1.1,2.9-0.7,7.1-0.7,7.1l-0.5,0.2c-2.9,1.1-18.4,6.9-21.7,9.3c-3.6,2.6-7.6,29-8.9,36.7
		s-3.6,14.7-2.4,17.4s17.9,15.5,27.5,18.8s43.7,2.4,43.7,2.4s0.6-0.1,1.5-0.5c5.8-1.9,26.2-9.5,37-27.4
		C383,321.3,372.5,286.9,358.8,272.1z M294,316.5c-1.8,1.3-0.8,6.1-0.8,6.1l-3-2.6l7.5-18.5l3.2,14.2
		C300.9,315.7,295.8,315.3,294,316.5z M354.2,328.3c-0.8,0.4,2.4-8.5,0.9-10.5S349,316,349,316l0.4-2.4l2.7-13.9l0.9-1.1
		c0,0,9.3,16,11,21.6C364,320.2,353.9,328.3,354.2,328.3L354.2,328.3z"/>
	<path class="st5" d="M313.5,214.4l-12.4,13.1c0,0-1.7,1.5-1,5.3s2.3,7.1,3.5,7.3c0.9,0.2,1.9,0.3,2.9,0.3c0,0,2.6,5.7,4.5,8
		c0,0,0.6,8.9,0.3,11.3c0,0,4.4,3.9,8.6,4.4s10.6-5.9,10.6-5.9l1.6-7.9c0,0,3.8-5.8,4-7.3s2-1.1,2.9-1.9c1.7-2.1,2.8-4.6,3.1-7.3
		c0.3-3.2,0.4-6.9-3.4-5.8c-3.2-0.9-1.2-7.7-1.2-7.7l-5.6-5L313.5,214.4z"/>
	<path class="st14" d="M334.8,263c-0.2,0.5-0.4,1-0.6,1.4c-2,3.9-10.9,11.2-10.9,11.2l-2.7-8.3l-1.5,8.3c-3-1.3-12-9.1-12-9.1
		s-0.3-0.7-0.7-1.9l0.5-0.2c0,0-0.4-4.3,0.7-7.1c2.2-3.6,7.1-2.6,7.1-2.6s6.8-3,10.5-1.3s7.5,0.4,8.8,1.9s0.5,7.6,0.5,7.6L334.8,263
		z"/>
	<path class="st15" d="M358.8,272.1l-24-9.1l-0.3-0.1c0,0,0.1-0.6,0.2-1.6l-0.5,3.1l-3.5,4.8c3.8,1.4,7.5,3,11.1,4.9
		c3.5,1.9,5.5,5.7,5.1,9.7l-4.4,37.8l-1.8,21.4l5.5,5.7c5.8-1.9,26.2-9.5,37-27.4C383,321.3,372.5,286.9,358.8,272.1z M354.3,328.3
		c-0.8,0.4,2.4-8.5,0.9-10.5S349,316,349,316l0.4-2.4l2.7-13.9l0.9-1.1c0,0,9.3,16,11,21.6C364,320.2,353.9,328.3,354.3,328.3
		L354.3,328.3z"/>
	<path class="st15" d="M302.6,317.8l-3.7-12.5c0,0-6.7-22.8-11.3-28.4l1.2,16c0,0-3.9,19.1-7.6,24.8s-4.4,7.1,0,7.1
		s15.2,8.6,15.2,8.6l-0.8-7.2L302.6,317.8z M293.2,322.6l-3-2.6l7.5-18.5l3.2,14.2c0,0-5.2-0.4-6.9,0.9S293.2,322.6,293.2,322.6
		L293.2,322.6z"/>
	<path class="st12" d="M311,248.4c0,0,0.7,6.7,0,9.8"/>
	<path class="st12" d="M331.2,257.3c0-2.2,0.3-4.3,0.8-6.4"/>
	<path class="st12" d="M333,219.4c0,0,4.1,5.1,3.9,9s-0.5,8.4-0.4,12.9s-7.2,13.9-10.9,14.7s-7,1-9.4-1.4c-2.9-3.1-5.5-6.5-7.9-10
		c-3.1-4.3-2.4-13.6-2.4-13.6"/>
	<path class="st12" d="M323.3,234.5c-0.2,1.4-0.4,2.8-0.3,4.3c-0.1,1.2,0.3,2.4,1,3.3c0.5,0.5,1.1,0.8,1.2,1.5
		c0,0.6-0.3,1.1-0.8,1.4c-0.5,0.3-1,0.5-1.5,0.9"/>
	<path class="st12" d="M316.8,246.3c0,0,0.5,3,4.5,3.7"/>
	<ellipse class="st8" cx="316.4" cy="236.8" rx="0.8" ry="1.6"/>
	<ellipse class="st8" cx="328.5" cy="237.2" rx="0.8" ry="1.6"/>
	<path class="st16" d="M326.9,233.4c0,0,3.9-3.9,7.3,0.4"/>
	<path class="st16" d="M318.6,233.4c0,0-2.5-2.8-6.4,0"/>
	<path class="st8" d="M311.3,252.1c0,0,2.4,6.7,7.8,8.5s12.5-7.9,12.5-7.9l-0.4-1.3c0,0-4.7,6.1-9.9,5.1s-10.4-8.1-10.4-8.1
		L311.3,252.1z"/>
	<path class="st12" d="M306.4,240.2c0,0-3.2,1.1-4.1-1.4s-3.8-9.1-1.2-11.3s4.6,2.9,4.6,2.9"/>
	<path class="st12" d="M336.5,241.5c0,0,3,0.6,3.8-1.9s3.8-9.1,1.2-11.3s-4.6,2.9-4.6,2.9"/>
	<path class="st8" d="M305.8,236.8c1.1-0.2,2.1-0.8,2.8-1.7c0.4-0.8,0.7-1.6,0.8-2.5c0.3-1.7,0.4-3.4,0.5-5.1c0-0.7,0-1.3,0.2-2
		c0.2-0.7,0.6-1.3,1.1-1.8c1.1-1.3,2.5-2.4,3.5-3.8c1.2-1.3,1.7-3,1.6-4.8c5,4.1,11.5,5.8,17.8,4.6c5.6-1.1,11.1-6.1,10.4-12.3
		c-0.2-2.2-1.9-3.9-4-4.3c-2.8-0.7-5.3,0.8-7.8,1.8c-4.6,1.7-9.1-1.3-13.8-1.8c-4-0.4-8.9,0.1-11,4c0,0-7.2,0.8-10.3,6.7
		s2.8,14,2.8,14s2.4-2.9,5.5,3L305.8,236.8z"/>
	<path class="st8" d="M333.5,217.9c0,0-1.9,9.6,3,14.3c0,0,1.1-2.9,2.1-3.6c1.6-3.5,1.2-7.5-0.9-10.7
		C334.2,212.3,333.5,217.9,333.5,217.9z"/>
	<path class="st17" d="M342.3,206.9c-0.9,2.7-2.9,4.8-5.5,5.8c-6.7,2.7-13.2-0.3-19.9-0.9c-5.5-0.5-11.5,4.5-11.9,10.1"/>
	<path class="st17" d="M300.8,220.4c0.2-4.6,2.9-8.6,7.1-10.4"/>
	<path class="st12" d="M309.4,257.3c2.9,3.1,6.5,5.5,10.5,7.1c0,0,8-2.3,12.1-7.9"/>
	<circle class="st12" cx="314.6" cy="236.8" r="7.1"/>
	<circle class="st12" cx="330.5" cy="236.8" r="7.1"/>
	<path class="st12" d="M311,254.6c-1.5,0.4-2.7,1.3-3.4,2.6c-1.3,2.2-0.5,9.2-0.5,9.2s6.5,6.4,12,9.1l1.6-9.2l2.5,9.2
		c0,0,8.6-6,10.9-11.2c0,0,0.8-6,0-7.9c-0.4-1.1-1.4-1.9-2.6-1.9"/>
	<path class="st12" d="M300.8,316c0,0-2.5-17-5.9-23.9"/>
	<path class="st12" d="M287.6,277c2,2.8,3.7,5.7,5.3,8.8"/>
	<path class="st12" d="M354.3,289.6c0.7-2.8,1.6-5.6,2.8-8.3"/>
	<path class="st12" d="M349,316c0,0,1.8-11.7,4-21.3"/>
	<path class="st12" d="M352.1,299.6c1.8-2.3,4.2-4,7.1-4.8"/>
	<path class="st12" d="M334.5,262.9c0,0,14.7,5.9,24.3,9.2c0,0,11.7,11,24.3,49.1c0,0-11.5,19.4-33.4,25.5"/>
	<path class="st12" d="M353.4,329l10.6-8.8c0,0,5.6-4.3,11.4-1.3"/>
	<path class="st12" d="M353,298.6c0,0,8.7,12.9,11,21.6"/>
	<path class="st12" d="M293.3,323.1l-3.1-3c-3.5-0.3-7,0.6-9.8,2.7"/>
	<path class="st12" d="M290.2,320.2c0,0,3.8-12.6,7.6-19.2"/>
	<path class="st12" d="M306.8,264.5c0,0-21.2,8-23.3,10.3s-10,46.8-10.2,51.9c-0.2,4.5,16.3,14.8,24.5,19.1"/>
	<circle class="st8" cx="321.3" cy="279.5" r="1.4"/>
	<path class="st8" d="M347.2,354H299c-0.6,0-1.1-0.5-1.1-1.1l0,0l0,0c0-0.6,0.5-1.1,1.1-1.1l0,0h48.3c0.6,0,1.1,0.5,1.1,1.1l0,0l0,0
		C348.4,353.5,347.9,354,347.2,354C347.3,354,347.2,354,347.2,354z"/>
	<path class="st0" d="M348.9,350.3l6.5-30.4c0.4-1.7-0.7-3.5-2.5-3.8c-0.2,0-0.5-0.1-0.7-0.1h-56.4c-1.8,0-3.2,1.4-3.2,3.2
		c0,0.2,0,0.4,0.1,0.6l5.8,29.4c0.3,1.5,1.6,2.6,3.1,2.6l44.1,1C347.2,352.8,348.6,351.8,348.9,350.3z"/>
	<circle class="st8" cx="323.8" cy="333.5" r="4.5"/>
	<line class="st12" x1="337.2" y1="318.9" x2="343.9" y2="318.9"/>
	<line class="st12" x1="305.2" y1="318.9" x2="330.6" y2="318.9"/>
	<path class="st8" d="M349,382.5l-5.1,13.5c0,0-13.1-3.3-29.9-6.8c-17.6-3.6-35.9-8.3-45.4-25c-1.3-2-1.8-4.4-1.4-6.7
		c1.4-5.8,8.9-7.3,13.8-7.9c3.1-0.3,6.2-0.5,9.4-0.5c1.6,0,6.8-0.9,8.1,0.1c1.9,1.4,4,2.6,6.1,3.6c2.8,1.2,43.8-1.1,43.8-1.1
		c0.7-1.6,1.2-3.2,1.3-4.9c6.4-3.3,21.4-6,27.7-4.8c9.9,1.9,15.7,7.7,14.6,13.8S368.9,378.1,349,382.5z"/>
	<path class="st18" d="M349,382.5c0,0-12.5-3.3-22.7-10.2s-18.1-14.9-32.3-13.2"/>
	<path class="st18" d="M324,370.7c6.4-1.9,11.2-6,16.3-10c5.5-4.4,11.3-8.2,17.5-11.5"/>
	<line class="st12" x1="321.8" y1="238" x2="323.6" y2="238"/>
	
		<image style="overflow:visible;enable-background:new    ;" width="411" height="599" xlink:href="Downloads/Lambang-Morowali-Utara.png"  transform="matrix(7.000000e-02 0 0 7.000000e-02 262.24 123.92)">
	</image>
</g>
</svg>
