<svg xmlns="http://www.w3.org/2000/svg" viewBox="0 0 565 500"><defs><style>.cls-1{fill:#f7dc6b;}.cls-12,.cls-2{fill:#192e35;}.cls-3{fill:#183c37;opacity:0.5;}.cls-4{fill:#35b995;}.cls-5{opacity:0.2;}.cls-6{fill:#999fa1;}.cls-7{fill:#83888b;}.cls-8{fill:#e2dcba;}.cls-11,.cls-9{fill:#fff;}.cls-10{fill:#c8f1d4;}.cls-11,.cls-12,.cls-13,.cls-14,.cls-15{stroke:#192e35;}.cls-11,.cls-12,.cls-15{stroke-miterlimit:10;}.cls-11,.cls-15{stroke-width:1.1px;}.cls-13,.cls-14,.cls-15{fill:none;}.cls-13,.cls-14{stroke-linecap:round;stroke-linejoin:round;}.cls-13{stroke-width:1.1px;}</style></defs><title>morut</title><g id="Layer_7" data-name="Layer 7"><path class="cls-1" d="M267.91,99a79.06,79.06,0,0,1-8.56-.05c-13.81-.79-63,1.59-95,70.26-37.48,80.54-49.13,85-57.23,100.76s-30.19,62.73,29,106.85,221.15,31,251.12,15.13,81.55-55.62,52.17-136.14C410.48,176.5,368.67,93.79,267.91,99Z"/><path class="cls-2" d="M136.15,151.92,145,120.14h26l8.86,31-20.13.76-.13,164.23h12l1.9,9.88s-2.79,4.56-16.33,3.93-19.88-2-21-4.31c0,0,1.39-8.48,8.74-9.37l11.52-.25.25-164.11Z"/><path class="cls-2" d="M466.84,392.11l-54.15-17.82-100.32-33-38.09-12.53c-4.9-1.61-10.19-4.15-15.3-5-6.85-1.16-14.63-.33-21.56-.48l-49-1.08L136.22,321c-10.17-.22-20.64-1.19-30.81-.68-.5,0-1,0-1.5,0a.63.63,0,0,0,0,1.25l70.51,1.56c27.61.61,55.26.78,82.85,1.83,3.22.12,7,1.86,10.53,3l34.06,11.21,99.23,32.65,42.14,13.87,14.4,4.74c2.47.81,5.27,2.22,7.85,2.58a6.38,6.38,0,0,1,1,.34c.77.25,1.09-1,.33-1.21Z"/><ellipse class="cls-3" cx="255.09" cy="380.71" rx="120.47" ry="35.79"/><path class="cls-4" d="M240.15,219.45a72.44,72.44,0,0,0-31.4,4.64c-16.71,6.42-28.28,35.62-31.15,44.15S165.14,308.56,167,334.64s18,41.15,62,49.64c0,0,53.56,2.15,77.49-10.64s27.86-83.32,27.86-83.32l-57.11-23.17-19.22-37.57S247.66,219.63,240.15,219.45Z"/><path class="cls-2" d="M240.15,218.83c-14-1.59-31.64,1.55-41.91,11.72-10,9.92-16.52,23.82-21.07,37a206,206,0,0,0-10.46,48.53c-1.28,14.36-1.12,30.23,7.62,42.43,8.43,11.77,22.53,17.88,36,21.89,6.35,1.9,13.24,4.1,19.87,4.52,4.64.29,9.36.13,14,0,15.57-.29,31.43-1.33,46.6-5,6.3-1.54,13.3-3.46,18.61-7.36,4.14-3,7.2-7.43,9.64-11.89,7.4-13.5,10.66-29.32,13.07-44.38a256.93,256.93,0,0,0,3-26,.64.64,0,0,0-.46-.6l-49-19.9c-2.33-.94-5.73-1.65-7.77-3.15-.53-.39.39.46-.27-.49a36.56,36.56,0,0,1-2.18-4.26l-14.35-28c-1.19-2.33-2-4.33-3.92-6-4.71-4.12-10.52-8.49-16.95-9-.8-.06-.8,1.19,0,1.25,6.65.53,15.52,6.08,18.58,12.06l10.47,20.48,5.24,10.24c.66,1.29,1.31,3.58,2.36,4.61,2.11,2.08,7.14,3,9.82,4.12l43.93,17.82c.69.28,3.75,1.66,3.5,1.22-.35-.6-.4,2.28-.43,2.75q-.78,9.92-2.27,19.77c-2.65,17.77-6.11,39-17.64,53.47-5.88,7.36-15,10.17-23.82,12.28a192.05,192.05,0,0,1-33.93,4.41q-12,.66-24,.43c-9.34-.19-19.21-3.56-27.94-6.69-9.78-3.5-19.53-8.45-26.44-16.41-6.19-7.14-9.1-16.19-9.87-25.49-1.89-23,3.52-48.19,11.58-69.8,3.61-9.66,8.22-19.23,14.38-27.54,3.59-4.85,8-9.61,13.45-12.32,7.11-3.51,15.74-5,23.59-5.5a54.38,54.38,0,0,1,9.44.08C240.95,220.17,240.94,218.92,240.15,218.83Z"/><path class="cls-2" d="M447.64,55.77,301,80V274.24L447.9,296.78ZM304.81,270.69V83.32L443.35,59.93l.24,232.7Z"/><polygon class="cls-2" points="363.06 71.64 363.31 281.58 369.39 281.58 369.39 70.12 363.06 71.64"/><polygon class="cls-2" points="302.53 142.8 445.37 134.45 445.37 143.56 302.53 149.9 302.53 142.8"/><polygon class="cls-2" points="302.53 204.34 445.37 210.75 445.37 218.78 302.53 210.42 302.53 204.34"/><g class="cls-5"><path d="M229.09,384.28s47.43,1.91,73-8.53c-28.88-5.62-32.94-15.27-41.48-22.95-9.33-8.38-33.21-43.66-40-87.72-3-19.78-9.72-31.68-16.18-38.78-14.39,9.21-24.23,34.17-26.85,41.95-2.87,8.53-12.45,40.31-10.55,66.39S185,375.79,229.09,384.28Z"/></g><path class="cls-2" d="M204.13,225.76c-14.34,9.59-22.58,28.17-27.72,44.1-6.79,21-12.12,44.63-9.81,66.79,1.58,15.2,9.44,27.26,22.6,35,13.95,8.19,31.32,13.33,47.51,13.4,21.61.08,45.2-.61,65.52-8.68.74-.29.42-1.5-.33-1.21-18.08,7.18-38.63,8.24-57.89,8.59a143.11,143.11,0,0,1-14.5-.07c-9.67-.82-20.19-4.41-29.16-8-15.36-6.17-28.09-16.6-31.63-33.4-4.51-21.43,1.13-45.53,7.1-66.16,5.08-17.55,13.21-38.71,28.94-49.25.67-.45,0-1.53-.63-1.08Z"/><path class="cls-2" d="M277.32,279.81s38.22-4.09,38.49-3.3,0,7-.57,7.49-25.48,13.24-25.68,12.78-11.41-7.72-11.57-8.89S277.32,279.81,277.32,279.81Z"/><path class="cls-2" d="M230.42,231.06s-15.76,3.48-19.56,6.46l-5.51,14.56-9.05,32.15,14.12,7.22s-.89,6.79,3,6.66,18.42,1.27,19.69.76S280,288.68,280,288.68l-6.9-53.88s-1.24-3.48-4.13-4.05-14.89-1.49-14.89-1.49l-3.07-1.8Z"/><path class="cls-2" d="M264.94,188.82c-1.52,0-2.76,2.37-2.76,5.29s1.24,5.29,2.76,5.29,2.76-2.37,2.76-5.29S266.47,188.82,264.94,188.82Zm0,9c-1,0-1.88-1.79-1.88-4s.84-4,1.88-4,1.88,1.79,1.88,4S265.94,197.82,264.9,197.82Z"/><path class="cls-6" d="M330.72,369.27s6.13-16.34,9.29-19.94,8-14.56,9.31-20.32c0,0,5.06-19.56,5.38-32.23s3.61-27.29-3.42-27.54a57.46,57.46,0,0,0-11.08,1.2c-5.25,1.2-21.53,6.46-28.74,10.83S291.33,294.5,290.06,296c0,0,5,11.08,5.25,11.9,0,0,15.76-5.06,29.69-6.9,0,0-3,7.91-3.8,13.11s-1.58,15.13-1.84,16.9S316,348.81,316,348.81Z"/><path class="cls-7" d="M315.19,284.88l-23.68,9.84a12.66,12.66,0,0,0-1.45,1.24s4.23,11.38,4.48,12.2c0,0,16.54-5.37,30.46-7.2,0,0-3,7.91-3.8,13.11s-1.58,15.13-1.84,16.9S316,348.81,316,348.81l7.25,9.75c1.74-4.63,4.23-12.33,5.51-16.32,1.71-5.32,5.89-21,5.89-21s8.67-33.81,9.69-38.75a48.56,48.56,0,0,0,.91-5.85,1.14,1.14,0,0,0-1-1.22C337.9,274.77,315.19,284.88,315.19,284.88Z"/><path class="cls-8" d="M230.23,247.14s-.89-17.6.17-19.5,9.37-4.56,9.37-4.56.8,22.71,4.38,26c0,0-3.55-2.62-4.18-5.57s-.34-4.18-1.86-4.69S233.31,240.52,230.23,247.14Z"/><path class="cls-9" d="M240.54,236.8a5.43,5.43,0,0,0-2.16-1.47c-2.48-.89-6.48,3.83-8.37,6.26.1,3.14.22,5.55.22,5.55,3.08-6.63,6.37-8.86,7.89-8.36s1.22,1.73,1.86,4.69,4.18,5.57,4.18,5.57C242.56,247.59,241.37,242.26,240.54,236.8Z"/><path class="cls-9" d="M253.23,246.72s2.19-2.83,2.36-4.94.21-5.15.8-5.23,2.66,2.83,3.12,2.83.59-.72,0-1.22-3.76-4-4.6-6.46-2.14-6.22-2.4-6.52a83.67,83.67,0,0,0,.92,9.31C254.08,237.56,253.23,246.72,253.23,246.72Z"/><path class="cls-8" d="M239,212.57l2.83,25.49s.72,6.54,2.36,9.07,3.8,5.32,6,6.71a35.91,35.91,0,0,0,1.73-5.61c.84-3.59,1.6-10.17.93-12.58a65.26,65.26,0,0,1-1.31-12.32c.21-1.48,2.4-3.42,2.36-3.85a21,21,0,0,1-7.09-2.39A87.72,87.72,0,0,0,239,212.57Z"/><path class="cls-9" d="M252.16,222c-2.6,1.62-7.7,4.81-7.79,4.94l-.49,19.7c.09.17.18.33.27.48,1.65,2.53,3.8,5.32,6,6.71a35.92,35.92,0,0,0,1.73-5.61c.84-3.59,1.6-10.17.93-12.58a65.26,65.26,0,0,1-1.31-12.32A2.86,2.86,0,0,1,252.16,222Z"/><path class="cls-8" d="M258.42,183.11s4.47,5.06,3.76,11.14l.08.76s6.42,1.86,6.68,2.62-1.35,2.28-4.31,3.63c0,0,1.56,15.53,1.1,16.59s-3.21,2.41-6.84,2.15l-3.63-.25s-6.29-.63-15.36-7.94l-.93-.51s-1.6,1.81-3,1.69-3.25-3-3.88-7.22a5.61,5.61,0,0,1,3.29-5.91l-.21-18.61,21.32-4.05Z"/><path class="cls-9" d="M268.93,197.63c-.25-.76-6.68-2.62-6.68-2.62l-.08-.76c.72-6.08-3.76-11.14-3.76-11.14l-.5-1.52-3.17-.16s-6.16,3-7,6,2.11,21.78,3.76,24.44c1.22,2,5.09,5.62,9.6,8.15,2.52-.27,4.3-1.28,4.67-2.11.46-1.06-1.1-16.59-1.1-16.59C267.58,199.91,269.19,198.39,268.93,197.63Z"/><polygon class="cls-2" points="242.34 199.95 252.94 195.9 252.94 196.91 242.34 201.05 242.34 199.95"/><path class="cls-2" d="M262.12,195.36c-.35-3.09-2.78-5.35-5.42-5.05s-4.49,3.05-4.14,6.15,2.78,5.35,5.42,5.05S262.47,198.46,262.12,195.36Zm-4.26,5.07c-2.13.24-4.09-1.58-4.38-4.08s1.21-4.72,3.34-5,4.09,1.58,4.38,4.08S260,200.19,257.85,200.43Z"/><ellipse class="cls-2" cx="257.2" cy="196.19" rx="0.66" ry="1.95" transform="translate(-20.68 30.58) rotate(-6.54)"/><path class="cls-2" d="M255.66,207c1.5-.31,3.6-.37,4.65.92.51.62,1.39-.26.88-.88-1.34-1.65-4-1.63-5.86-1.24-.79.16-.45,1.37.33,1.21Z"/><path class="cls-2" d="M253.06,192.31a5,5,0,0,1,4.28-2.6.63.63,0,0,0,0-1.25,6.2,6.2,0,0,0-5.36,3.22c-.39.7.69,1.33,1.08.63Z"/><path class="cls-2" d="M260.09,191.14l1.73-.7a10.93,10.93,0,0,1,2.1-.74c.8,0,.8-1.3,0-1.25a8,8,0,0,0-2.27.72l-1.88.76c-.73.31-.41,1.52.33,1.21Z"/><path class="cls-2" d="M239.52,205s5.44.42,5.53-2.15c0,0,.08-1.56-2.15-3.38s1.94-5,2.45-5.49,4.14-3.17,1.73-5.11-8.69-1.44-8.69-1.44.8-1.73,3.88-2.28,6.67-2.07,11.61-2,12.11-2.36,14.69-6.37,1.81-12.83-4.14-14-11.86,5.28-14.56,5.57-9.12-2.11-13.38.38-5.19,9.33-5.15,10.64c0,0-8.32,3.38-8,10.51s4.48,13,9,17.28l.21-2s-.53-2.56,1.24-3.07S237.62,202.36,239.52,205Z"/><g class="cls-5"><path class="cls-9" d="M245.58,190.45l-1.9.57a.63.63,0,0,0,.33,1.21l1.9-.57a.63.63,0,0,0-.33-1.21Z"/></g><g class="cls-5"><path class="cls-9" d="M230.39,200.89c-.7-3.17,3.23-4.34,5.47-5.35q3-1.35,6.06-2.62c.73-.31.41-1.52-.33-1.21-2.8,1.17-5.6,2.36-8.35,3.66-2.47,1.17-4.74,2.75-4.06,5.85.17.79,1.38.45,1.21-.33Z"/></g><g class="cls-5"><path class="cls-9" d="M227.85,193c-.14-.07,0,0,0,0a1.09,1.09,0,0,1-.25-.31,4.57,4.57,0,0,1-.48-2.19c0-.8-1.28-.81-1.25,0,0,1.1.21,3,1.39,3.6.72.35,1.36-.73.63-1.08Z"/></g><g class="cls-5"><path class="cls-9" d="M227.35,188.41c1.63-5.1,15.61-5.24,19.86-6,3.93-.74,11.06-1.67,12.6-6.21,2.72-8-11-7.42-9.52,0,.16.79,1.37.45,1.21-.33-.73-3.59,6.22-6.7,7.34-2.05.38,1.57-.64,3-1.7,3.9-3.64,3.19-10.53,3.55-15.09,4.29-4,.65-14.28,1-15.91,6.1-.25.77,1,1.1,1.21.33Z"/></g><path class="cls-9" d="M215.2,287c1.76-11,2.77-22.1,4.13-33.13.1-.8-1.15-.79-1.25,0-1.35,10.92-2.35,21.94-4.09,32.8-.13.79,1.08,1.13,1.21.33Z"/><path class="cls-9" d="M223.41,255.73,217,264c-.49.63.39,1.52.88.88l6.46-8.28c.49-.63-.39-1.52-.88-.88Z"/><path class="cls-9" d="M235,269.44a79.49,79.49,0,0,1,28.11-5.6.63.63,0,0,0,0-1.25,80.32,80.32,0,0,0-28.45,5.64c-.74.3-.41,1.51.33,1.21Z"/><path class="cls-9" d="M249.91,254.32l-.93,8.27c-.05.45.44.66.79.6,1.45-.22,2.51.08,1.32,2.52a.64.64,0,0,0,.22.86c3.59,2.09,7.69,5.23,8.66,9.44.18.78,1.39.45,1.21-.33-.8-3.47-3.41-6-6.16-8.11-.56-.43-2-1.07-2.4-1.67-.67-1.1.08.61,0-.59,0-.83.53-1.42.08-2.28a2.22,2.22,0,0,0-1.75-1.08c-.32-.07-.72.06-1,0-1-.28.24,1,.28.42.15-2.67.6-5.36.9-8,.09-.8-1.16-.79-1.25,0Z"/><path class="cls-10" d="M259.73,284.29l5.57-4.05,45.33.51S298.9,286.57,290,294.67c0,0-3.44-8.21-10.09-10.49S259.73,284.29,259.73,284.29Z"/><path class="cls-6" d="M205.62,312.73c0-.25-1.86-3,4.16-7.79s18-11.21,26.78-14,28.87-8.1,40.46-6.39c0,0,7.15.4,11.59,10.11s10.7,25.47,13,30.35,15.7,26.65,18.42,30.39,17.47,22.35,17.47,22.35a33.43,33.43,0,0,0-8.17,14.56s-25.7-17.41-30.83-21.4-25.7-23.3-28.11-30.9-3.17-15.45-3.67-25.77l-.19-3.74L251.76,318s-17.85,9.88-30.64,6.58S205.62,312.73,205.62,312.73Z"/><path class="cls-7" d="M329.38,392.32a32.19,32.19,0,0,1,3.2-7.86c-4.72-3.48-18.06-13.42-27.45-21.58C293.54,352.81,288,343.44,286.26,338s-4-21.84-4.75-26.53a47.44,47.44,0,0,0-5.89-17.73c-4.18-7.28-15.57-3.55-15.57-3.55-10.07,2-43.59,17.86-54.26,23,.75,1.79,4.27,8.56,15.32,11.4,12.79,3.29,30.64-6.58,30.64-6.58l14.82-7.47.19,3.74c.51,10.32,1.27,18.17,3.67,25.77s23,26.91,28.11,30.9S329.38,392.32,329.38,392.32Z"/><path class="cls-8" d="M216.93,285.64c-3.48.95-19.76,7.71-19.76,7.71s-8,4.51-7.78,10.65S205,309.13,205,309.13l1.58.06,32-20s9.75-6,11.78-6.26,7.34,1.25,7.34,1.25l6.33-4.42L255,276.58h0s-.42-.36-4.43.51S216.93,285.64,216.93,285.64Z"/><path class="cls-9" d="M255,276.58s-.29-.25-2.7.17l-22.68,9.58s-14.31,6.42-15,8.34,4.75,1.44,14.06,0l1.62-.25,8.32-5.18s9.75-6,11.78-6.26,7.34,1.25,7.34,1.25l6.33-4.42Z"/><path class="cls-8" d="M190.17,288.34s-1.31,9.54-1.22,12.79c0,0,3.29-6.58,8.82-8.57l7.18-3.5,8.44-3.29s-3-3.42-9.92-4S190.21,288,190.17,288.34Z"/><path class="cls-9" d="M203.47,281.8a10.94,10.94,0,0,0-3,.19c-3.21,1.76-6.92,4.2-4.79,5a30.28,30.28,0,0,0,4.85-1.14c1.18-.55,1.86.08.8,1.14s-6.09,4.68-7.12,7.6a12.4,12.4,0,0,1,3.53-2l7.18-3.5,8.44-3.29S210.39,282.34,203.47,281.8Z"/><path class="cls-11" d="M305.51,377.19l-3.9,4a21.86,21.86,0,0,1-2.64,2.33c-2,1.52-5.75,4.43-6.39,5.79,0,0,6-1.58,10.19,5.25s5,9.94,13.36,13.36,21.78,8.55,21.78,8.55-17.54-11.4-15.76-27.6Z"/><path class="cls-11" d="M305.51,377.19l-3.9,4a21.86,21.86,0,0,1-2.64,2.33c-2,1.52-5.75,4.43-6.39,5.79,0,0,6-1.58,10.19,5.25s5,9.94,13.36,13.36,21.78,8.55,21.78,8.55-17.21-12.11-15.44-28.32Z"/><path class="cls-2" d="M318.93,405.11a43.26,43.26,0,0,0,11.35,4.7c-4-4.42-8.16-10.79-8.24-18.37a16.62,16.62,0,0,0-4.12,1.28c-7.79-7.53-13.94-9.81-17.35-10.48-.51.46-1,.9-1.59,1.32a57.44,57.44,0,0,0-5,4.12c4.82.07,10.79,2.41,12.42,6.1C308.29,398.08,309.43,399.73,318.93,405.11Z"/><path class="cls-12" d="M293.26,389.1a1.38,1.38,0,0,0-1.14,1.66c.77,3.43,3.88,12.95,15.91,23.1,15.07,12.73,24.06,12.85,27.48,13.42s9.12-.63,8.74-4.88-10-8.1-12.66-8.36-21.89-6.67-26.27-15C301.31,391.42,298,388.36,293.26,389.1Z"/><path class="cls-11" d="M337.92,377.91s-6.73,5.88-8.55,14.4l9.79,7.49s13.38,10,15.28,10c0,0,14.82-15.27,20.83-24.51s11.21-23.3,9.37-32.54c0,0-.95-1.14-3.1.63s-37.86,25.45-39.89,26.15l-2,.63Z"/><path class="cls-2" d="M382.07,353a6.58,6.58,0,0,0-.53.39c-2.15,1.77-37.86,25.45-39.89,26.15l-.31.1c-.49,1.58-.74,3.62.43,5.16a17.62,17.62,0,0,0,4.31,4.18l-6.95,10.83,0,0s6.79,5.08,11.38,8c3.65-3.62,13.84-14,20-22.51C378.15,374.85,382.63,368.21,382.07,353Z"/><path class="cls-11" d="M265.73,279.22l7.81-42.85a2,2,0,0,1,2-1.65L326.3,236a2.51,2.51,0,0,1,2.39,3l-8.18,40.23Z"/><path class="cls-13" d="M244.07,287.45s7.55-.53,23.91-3.08,21.34,8,26.4,23.62,16.43,32.78,16.43,32.78c4.65,10.22,26.74,37,26.74,37a34.72,34.72,0,0,0-8.17,14.56s-29.38-19.72-35-25-20.79-18.86-24-27.69-3.74-29.12-3.74-29.12S242,324.19,232.29,324.79s-19.36,0-26.5-11.61c0,0-.95-2.32.16-4,0,0-8.41.6-11.72-.9,0,0-6-1-4.68-6s6.52-8.43,8.59-9.36,15.24-7.09,15.24-7.09"/><path class="cls-13" d="M198.52,281.51s-7.26,4.9-8.35,6.82l-.81,14.49"/><path class="cls-13" d="M232,205.33s.83,7.35,4.31,7.66c0,0,.89.12,2.64-1.68,0,0,7.51,5.8,12.11,7.25s8.51,1.72,11.1,1.23,3.58-1.57,3.61-2.28-1.16-16.24-1.16-16.24,4.37-1.86,4.31-3.63a8.33,8.33,0,0,0-2-1.09c-1.08-.37-4.63-1.52-4.63-1.52s.6-5-1.65-8.53-2.49-4.1-2.49-4.1"/><path class="cls-14" d="M246.07,253.51s.33-2.46-1.75-5.92-3-13.47-3-13.47l-2.48-22.35s8.84,6.55,15.29,7.77c0,0-2.48,2.61-2.57,3.54l.22,1.1.46,4.58"/><path class="cls-13" d="M230.19,248.39l-.31-15s-.19-4,.41-5.49,9.21-4.72,9.48-4.81l1.75,14.86"/><path class="cls-15" d="M321,276.76l.9-.36c17.76-7,21.54-6.56,27.24-7.17s5.5,2.25,5.5,2.25c2.37,4.79,0,26.72,0,26.72s-1.69,17.68-5.2,30.3-8.81,20-10.3,22-8.41,18.09-8.41,18.09l-15-19.54s3.26-15.79,3.72-18.57.33-3.36,1.24-12.36A68.1,68.1,0,0,1,325,301c-5-.43-30.46,7.2-30.46,7.2"/><line class="cls-13" x1="252.52" y1="225.18" x2="255.65" y2="231.72"/></g></svg>