<svg xmlns="http://www.w3.org/2000/svg" viewBox="0 0 565 500"><defs><style>.cls-1{fill:#f7dc6b;}.cls-2{fill:none;}.cls-2,.cls-4,.cls-6,.cls-7{stroke:#192e35;stroke-miterlimit:10;}.cls-3{fill:#192e35;}.cls-4,.cls-6,.cls-9{fill:#fff;}.cls-5{fill:#183c37;opacity:0.5;}.cls-6{stroke-width:1.1px;}.cls-7{fill:#35b995;stroke-width:0.25px;}.cls-8{opacity:0.2;}</style></defs><title>morut</title><g id="Character"><path class="cls-1" d="M418.54,322.52s49.58-38.92,58.54-101S447.81,113.9,447.81,113.9,407.07,35.7,336.49,35.7,230.67,80,230.67,80l-44.51,53.83S168.25,152,148.83,163.42a253.24,253.24,0,0,1-35.24,17.43S74.76,202.1,63.41,250.17s2.39,110.49,60,136.77,140.68,16.43,203.85-14.64C327.29,372.31,397.63,347.7,418.54,322.52Z"/><rect class="cls-2" x="310.16" y="78.71" width="52.16" height="68.94"/><rect class="cls-2" x="317.78" y="88.78" width="36.92" height="48.8"/><path class="cls-3" d="M91.44,305.85V284.75c0-5.18-.45-10.58.18-15.74.91-7.53,5.61-16.48,14-17.11,4.43-.33,9,0,13.46,0H410.06c5.48,0,10.81-.62,16,1.48,11.94,4.84,12.78,16.46,12.78,27.74V305a.63.63,0,0,0,1.25,0V280.67c0-4.79.24-9.87-1-14.53a21.45,21.45,0,0,0-17.13-15.3c-5.86-1-12.31-.21-18.23-.2H124.76c-10,0-22.87-2.83-29.85,6.31-3.41,4.46-4.67,10.11-4.72,15.63-.08,8.64,0,17.29,0,25.93v7.34a.63.63,0,0,0,1.25,0Z"/><path class="cls-3" d="M333.11,251.42c4.4,14.8,2.31,31.2,2.16,46.45q-.32,34.35-.67,68.7-.08,8.27-.17,16.53a.63.63,0,0,0,1.25,0q.57-55.63,1.07-111.27c.06-7.4-.28-13.47-2.44-20.75a.63.63,0,0,0-1.21.33Z"/><path class="cls-3" d="M207.82,252c-2.51,6.54-1.15,16.09-1.07,23l.41,33.63c.2,16.42-.21,32.86-.34,49.27l-.21,25.18a.63.63,0,0,0,1.25,0c.29-34,.63-68,.22-102l-.19-16c-.05-4.26-.4-8.71,1.15-12.74.29-.75-.92-1.08-1.21-.33Z"/><path class="cls-3" d="M332.32,358.23c4.22-1.15,3.68-5.85,3.71-9.35l.15-14.66a.63.63,0,0,0-.62-.62H207.82a.64.64,0,0,0-.62.63l-.37,22.25a.63.63,0,0,0,.63.63q50.57.65,101.15,1.09c7.85.06,15.7.14,23.55.06a.63.63,0,0,0,0-1.25c-24,.23-47.93-.26-71.89-.52l-38-.44-11.43-.14c-.89,0-1.83.06-2.72,0-1.14-.12-.19,1.07-.05-.24.56-5.49.19-11.24.28-16.76a15.1,15.1,0,0,0,.06-3.34c-.27-1.06.66-1.29-.59-.68a3,3,0,0,1,1.2,0c2.26.56,5.39,0,7.7,0H333.18a8.25,8.25,0,0,1,2.2,0c.55.19-.63-1-.46-.31a17.37,17.37,0,0,1,0,3.79c0,3.29,1.6,17.47-2.9,18.7A.63.63,0,0,0,332.32,358.23Z"/><path class="cls-4" d="M243.59,285.24c.22-.67,14.89,8.36,14.89,8.36l40.38-2.79,2.57-103.66-25.63-6.31-42.22,6.31Z"/><rect class="cls-5" x="99.78" y="414.83" width="335.31" height="10.36"/><ellipse class="cls-5" cx="267.41" cy="453.43" rx="40.47" ry="16.47"/><path class="cls-6" d="M259.38,449.5s5.54-3.86,5.94-5.26a71.13,71.13,0,0,0,.56-8l-17.47.34-4.14,6.27s-11.37,11.7-12.49,13-1.46,4.7,2.58,5.1l4,.39h0s6.83-.34,11.48-3.92,9.35-10.86,9.35-10.86Z"/><path class="cls-3" d="M263,440.43c-3.74,3.75-7.61,7.44-11.08,11.45-5.55,6.4-12.2,7.25-20.4,5a.63.63,0,0,0-.33,1.21c7.34,2,15.09,2,20.49-4,3.94-4.39,8-8.63,12.21-12.81a.63.63,0,0,0-.88-.88Z"/><path class="cls-6" d="M271,440l.62,4.37,5.71,5.1v-3.25s6.27,9.24,8.68,10.75,12.38,7.87,19.43,1.81c0,0,.84-1.58-.9-3.54s-6.44-5.77-8.74-8.62-7.49-9.69-7.49-9.69Z"/><path class="cls-3" d="M273.61,441.94a69,69,0,0,1,6.3,5.42c2.1,2.2,3.59,4.84,5.83,7,5.37,5.08,14.17,8.44,20.1,2.66.58-.56-.31-1.45-.88-.88-7.74,7.53-17.76-1.47-22.65-7.8-2.17-2.81-5.07-5-7.81-7.25-.62-.51-1.51.37-.88.88Z"/><path class="cls-3" d="M229.59,298.91l8.74,58.58,6,22.51s1.23,13.22,2.35,16.8,3.36,25.65,3.36,25.65v7.28s-3.7,3.92-3.47,5.15,1.12,8.85,6.83,8.74,12.88-4.93,12.88-4.93l1.23-117.61,1.26.11L270.13,439s6.16,4.59,10.3,4.59,7.84-2.35,8.74-5.38.9-4.37.56-4.59-3.47-4.82-3.47-4.82,2.46-22,2.58-25.31a95.75,95.75,0,0,1,2.35-15.46,22.36,22.36,0,0,0,.56-7.5s4.59-16.69,6.94-29.46S306.31,300,306.31,300L295.56,280.2H270L250.09,283l-19.82,2.46Z"/><path class="cls-2" d="M272.82,173.69A21.31,21.31,0,1,0,294.13,195,21.31,21.31,0,0,0,272.82,173.69Zm0,37.85A16.54,16.54,0,1,1,289.36,195,16.54,16.54,0,0,1,272.82,211.54Z"/><ellipse class="cls-3" cx="272.85" cy="180.15" rx="21.94" ry="21.31"/><path class="cls-7" d="M303.4,173.84,319,179.21a5.29,5.29,0,0,0,1.42,1.61c1,.78,8.14,5.72,8.14,5.72l8.67-8.59,6.91,4.63s2.5-3.58,5-3,30.65,18.78,30.65,18.78l28.84,16.91s7.56,5.43,6.33,13.1-3.86,8-9.8,8.68-18.54-1-20-1.06-33.15-7-37.52-8.4-13.1-3.92-13.1-3.92l-6.27,28.23L316.39,305.4l-30.3,7.39,5.71-128,9.58-12.69Z"/><path class="cls-7" d="M252.18,189.37l-.52-13.74-8.29-3.14s-38.64,14-39.59,15-4.42,9.41-4.42,9.41l-13,22s-15.23,26.43-17.7,31.59-7.11,14.22-9.35,21.06,2.63,9.18,6.38,11.87,37.91,20.55,37.91,20.55,9.3,5.54,12.1,4.65,4.31-2,4.65-3l.45-1.06,9.41,4.76,6.5-14.62.78.39a27.39,27.39,0,0,0,8.85-4c5-3.3,10.64-6.83,10.64-6.83Zm-62.72,77.51L211,233.42l11,48.61Z"/><path class="cls-4" d="M236.87,148.71a4.88,4.88,0,0,0-5.82-2.63s-2.86,1.18-2.24,6.1,5.94,10.64,10.58,11l1.12.5a69.67,69.67,0,0,0,2,8.62c1.23,3.81,3.36,12.32,14.34,19.1a30.53,30.53,0,0,0,31.31.73c8.51-4.76,12.21-8.23,14.5-19.32s1.74-14.17,1.74-14.17l.06-28S271.14,105,270.81,104.91s-10.92-3.36-11-2-20.66,15.12-21,16.52-.45,3.14-.84,6.22-2.41,9.74-1.74,9.91,1.11,2.08,1.79,4.37a23,23,0,0,1,.81,4.6Z"/><polygon class="cls-3" points="305.79 147.81 310.51 138.07 311.02 125.82 304.43 127.91 304.43 149.33 305.79 147.81"/><path class="cls-3" d="M261.51,86.43s-15-2.8-24.31,8.51-11.2,25.65-5.82,41.44c0,0,3.25,6.72,5.26,9.07s.78,2.35.78,2.35l1.57-.9-.67-11.65s10.64-8.85,17.58-16.13S266,109.06,266,109.06s4.37,15.68,16.69,20.83,23.19,5.26,40.88-9.18c0,0-7.5-16.13-9.18-18.82s-13.44-19.71-32-21.62S261.51,86.43,261.51,86.43Z"/><path class="cls-4" d="M300.15,142.25s-1.19.11-1.08,1.16,3.17,4.29,5.9,4.26,13.78.34,13.78.34-2.43,5.9-1.9,8.18c0,0-2.58-5.26-5.26-5.86s-4.63-.86-4.82.45,3,6.91,3,6.91,4.07,6.42,5,7.09c0,0-.56,8.4,0,9.33s4,3.29,4,3.32a3.15,3.15,0,0,1,1,1.57c.26,1,9.67,8.18,9.67,8.18l6.79-8.29s-2.35-2.05-2.43-2.87,4-19.34,4.07-21a12.84,12.84,0,0,0-.75-5.3c-.6-1.08-1.38-2.91-3.25-3.62s-8.51-3.81-8.51-3.81,1.08.41-.26,0-3.1-1.16-3.58-.45-3.73.75-3.73.75Z"/><path class="cls-3" d="M233,184.65c-1.39,8.06-2,16.75,0,24.75.19.78,1.4.45,1.21-.33-1.89-7.74-1.35-16.27,0-24.08.14-.79-1.07-1.12-1.21-.33Z"/><path class="cls-3" d="M307.21,147.81c-5.26-3.58-16.24-4.57-16.24-4.57-6.1-.82-16.18,3-16.18,3-2.52-1.06-6.22.22-6.22.22a85.09,85.09,0,0,0-11.59-3c-5.6-1-18.34,1.55-20.65,4.37s.94,5.26.94,5.26-.62,1,1.85,8.29,11,8.9,18.37,8.15a14.57,14.57,0,0,0,11.82-9.16c.78-2.35.34-7.22.34-7.22l3.7-.17c-.56,11,3.86,13.22,8.23,15.34s14.06,1.34,18.82-1.62,5.15-12.6,5.15-13.1.84-.39.84-.39l.56-.11C307.49,153,307.21,147.81,307.21,147.81ZM267,156.72c0,3.47-1.06,6.16-5.66,8.62s-13.61,1.9-17.19-1-4.09-11.88-4.09-12.38-1.18-1.34-1.18-1.34V149c17.08-6.27,28.11-.5,28.11-.5Zm6.55-6.16h-3.86v-1.85a8.25,8.25,0,0,1,3.86,0Zm30.58.56-1.06.67s-.45,9.58-3.47,12.1-11.59,4.2-17.08,2-6.39-6.12-6.53-9.44,0-7.94,0-7.94,16.76-6.47,28.44,1.31Z"/><path class="cls-3" d="M251.37,152.28c1.64-.34,4,0,5.83,0l5.37,0a.63.63,0,0,0,0-1.25l-5.83,0a28.83,28.83,0,0,0-5.71.07c-.79.16-.45,1.37.33,1.21Z"/><path class="cls-3" d="M251.21,154.43h11.37a.63.63,0,0,0,0-1.25H251.21a.63.63,0,0,0,0,1.25Z"/><path class="cls-3" d="M284,157h8.34a.63.63,0,0,0,0-1.25H284a.63.63,0,0,0,0,1.25Z"/><path class="cls-3" d="M272.42,156.83v2.88a9.82,9.82,0,0,0,0,3c.23.57.87.86,1.25,1.35,1.79,2.31.17,7.57-3.21,4.28-.58-.56-1.46.32-.88.88,3.64,3.53,7.6-.68,5.77-4.81a5.14,5.14,0,0,0-1.41-1.89,2.9,2.9,0,0,1-.54-.42c.27.42.18.59.28.09a30.72,30.72,0,0,0,0-5.34.63.63,0,0,0-1.25,0Z"/><path class="cls-3" d="M279.14,175.7c-.09.22.23-.45.3-.57a8.85,8.85,0,0,1,1.17-1.6,7.51,7.51,0,0,1,5.49-2.47.63.63,0,0,0,0-1.25,9.08,9.08,0,0,0-8.16,5.56c-.31.74.9,1.07,1.21.33Z"/><path class="cls-3" d="M267.67,140.88c-4.12-7.62-13-11.55-21.28-11.9-1.61-.07-1.61,2.43,0,2.5,7.44.31,15.43,3.83,19.12,10.66.77,1.42,2.93.15,2.16-1.26Z"/><path class="cls-3" d="M276.26,144.09a39.92,39.92,0,0,1,23.17-1.85c1.57.33,2.24-2.08.66-2.41-8-1.67-16.87-1.33-24.5,1.85-1.46.61-.82,3,.66,2.41Z"/><g class="cls-8"><path class="cls-9" d="M260.22,92.25A38.23,38.23,0,0,0,238.74,97c-.7.39-.07,1.47.63,1.08a37.07,37.07,0,0,1,20.85-4.56c.8.07.8-1.18,0-1.25Z"/></g><g class="cls-8"><path class="cls-9" d="M261.75,95.58a80.88,80.88,0,0,0-19.16,13.94c-7,7-10.18,14.51-11.11,24.29-.08.8,1.17.8,1.25,0,1-10.48,4.8-18,12.62-25.19a82.52,82.52,0,0,1,17-12c.71-.38.08-1.45-.63-1.08Z"/></g><g class="cls-8"><path class="cls-9" d="M266,90.33c6.66,3.11,13.52,5.88,20.45,8.32,7.66,2.7,19.26,7.65,27.46,4.53.74-.28.42-1.49-.33-1.21-8.21,3.13-20.13-2.13-27.82-4.89-6.48-2.33-12.89-4.92-19.13-7.83-.72-.34-1.36.74-.63,1.08Z"/></g><g class="cls-8"><path class="cls-9" d="M266.68,95.47c4.76,10.29,13.65,19.88,24.73,23a.63.63,0,0,0,.33-1.21c-10.78-3.07-19.36-12.47-24-22.47-.34-.73-1.42-.1-1.08.63Z"/></g><g class="cls-8"><path class="cls-9" d="M299.82,120.55c6.63.85,15.06,2.51,21.56.48.77-.24.44-1.45-.33-1.21-6.39,2-14.7.31-21.23-.53-.8-.1-.79,1.15,0,1.25Z"/></g><ellipse class="cls-3" cx="287.84" cy="151.68" rx="1.43" ry="3.06"/><path class="cls-3" d="M254.11,151.65a2.78,2.78,0,1,0,5.56,0Z"/><path class="cls-2" d="M290.61,211.54s3.53-10.75,4.94-9.92,8.51,13.14,9.86,14.19,2.09.75,1.49-.6-5.38-15.53-5.3-20.31-.57-16.13-.57-16.13"/><path class="cls-3" d="M310.26,186.7a40.41,40.41,0,0,1,1.34,22.37c-.18.78,1,1.12,1.21.33a41.63,41.63,0,0,0-1.34-23c-.27-.75-1.48-.43-1.21.33Z"/><path class="cls-3" d="M314.59,200.88c1.3,5.76-2,13-4.27,18-.33.73.74,1.36,1.08.63,2.46-5.39,5.79-12.82,4.39-19-.18-.78-1.38-.45-1.21.33Z"/><polygon class="cls-2" points="297.5 231.93 322.81 227.15 321.92 232.75 312.44 241.41 298.4 238.8 297.5 231.93"/><path class="cls-2" d="M243.37,174.9a31.32,31.32,0,0,0-1,7.29c0,3.73-.07,13.52-.75,17.55s-5.15,16-4.7,16.68,3.2-2.87,3.2-2.87,3.75-5.3,5.31-7.54,1.79-5.53,3-4.78,5,11,5,11"/><path class="cls-3" d="M204.44,199.17c-.17-1.51-.3-3-.39-4.55-.11-1.91-.6-4.81.31-6.56.37-.71-.71-1.35-1.08-.63-.92,1.77-.62,4.29-.53,6.2s.23,3.7.44,5.54c.09.79,1.34.8,1.25,0Z"/><path class="cls-3" d="M205.65,211.86l9.13,41,5.35,24c.31,1.38.36,4,1.15,5.18a3.78,3.78,0,0,0,.48.65c.62.64,2.07.81,2.81,1.36,2.48,1.81,2.85,3.87,2.3,6.66-.16.79,1,1.12,1.21.33,1-5.11,0-6.66-4.56-8.94-1.61-.81-.73,0-1.08-.61a9.3,9.3,0,0,1-.52-2.33l-5.2-23.3-9.87-44.27c-.17-.78-1.38-.45-1.21.33Z"/><path class="cls-3" d="M190,266.56c-3.58-5.68-8.65-11.09-14.71-14.19-.71-.37-1.35.71-.63,1.08,5.87,3,10.79,8.24,14.26,13.74.43.68,1.51.05,1.08-.63Z"/><path class="cls-3" d="M176.33,263.52a15.41,15.41,0,0,1,12.45,3.43c.59.54,1.48-.34.88-.88-3.62-3.32-8.87-4.45-13.67-3.75-.79.12-.46,1.32.33,1.21Z"/><path class="cls-3" d="M220.67,258.58c5.52,6.41,11.39,13.32,18.42,18.09.67.45,1.29-.63.63-1.08-6.93-4.7-12.73-11.58-18.17-17.9-.53-.61-1.41.28-.88.88Z"/><path class="cls-3" d="M335.64,222.61l3.3-12a.63.63,0,0,0-1.21-.33l-3.3,12a.63.63,0,0,0,1.21.33Z"/><path class="cls-3" d="M343.79,207.69l-9.48,15.23c-.43.68.65,1.31,1.08.63l9.48-15.23c.43-.68-.65-1.31-1.08-.63Z"/><polyline class="cls-2" points="329.38 187.16 328.18 188.45 336.19 195.64"/><path class="cls-2" d="M220.66,305l-3.21-1.42s-.15-10.3,6.72-14.11l12.53,5.28"/><path class="cls-2" d="M328.64,158.38s-9.55,17.79-9.33,19.68"/><line class="cls-2" x1="325.95" y1="158.38" x2="331.1" y2="158.38"/><path class="cls-2" d="M325.51,164.34s-5.83-2.15-5.38-3.94,3.51-11.8,4.7-12.58,11.51,1.34,12.81,3.86"/><path class="cls-2" d="M336.49,148.61s-9.13-4.27-11.81-3.75-3.71,4.7-4.58,6.42-3.11,5.82-2.36,7.39a3.14,3.14,0,0,0,2.39,1.72"/><line class="cls-2" x1="320.99" y1="142.12" x2="318.74" y2="148"/><g class="cls-8"><path class="cls-9" d="M272,418.62c4.57-6.66,10.34-13.51,13.55-20.95.32-.73-.76-1.37-1.08-.63-3.22,7.43-9,14.29-13.55,20.95-.46.66.63,1.29,1.08.63Z"/></g><g class="cls-8"><path class="cls-9" d="M277.19,436.46c3.1-.29,6.09-3,8.28-4.94.6-.53-.28-1.42-.88-.88a24.3,24.3,0,0,1-5.56,3.93,9.88,9.88,0,0,1-1.39.54c-.11,0-.67.13-.45.11-.79.08-.8,1.33,0,1.25Z"/></g><g class="cls-8"><path class="cls-9" d="M265,428.29a11.06,11.06,0,0,1-4.95-3.41c-.46-.65-1.55,0-1.08.63a12.48,12.48,0,0,0,5.69,4c.75.3,1.07-.91.33-1.21Z"/></g><g class="cls-8"><path class="cls-9" d="M246.13,390.17A41.94,41.94,0,0,0,265.38,406c.75.3,1.07-.91.33-1.21a40.53,40.53,0,0,1-18.5-15.28c-.44-.67-1.52,0-1.08.63Z"/></g><polygon class="cls-3" points="89.86 429.51 98.15 429.51 103.69 414.83 84.65 414.83 89.86 429.51"/><polygon class="cls-3" points="435.29 429.9 443.58 429.9 449.12 415.23 430.08 415.23 435.29 429.9"/><path class="cls-3" d="M90.81,306.48a.63.63,0,0,0,0-1.25.63.63,0,0,0,0,1.25Z"/><path class="cls-3" d="M463.86,350.71l-8.43,55c-.43,2.78-.44,6.17-1.35,8.84-.23.67,1.11-.1-.2,0-2.68.26-5.52,0-8.21,0H80.89a28.9,28.9,0,0,1-3,0c-1.28-.14.08.81-.17-.13-2.18-8-2.69-16.86-4-25l-5.2-32.59-.91-5.68c-.13-.79-1.33-.46-1.21.33l10.19,63.9a.63.63,0,0,0,.6.46H448.84c1.46,0,3.68.43,5.09,0a2.69,2.69,0,0,1,.68,0,.63.63,0,0,0,.6-.46L465.07,351c.12-.79-1.08-1.13-1.21-.33Z"/><path class="cls-3" d="M471.26,344.1c3.39-10.17-7.56-21.53-14.07-27.52-11.13-10.25-26.82-18-41.79-11.36-7.9,3.52-19.54,14.37-16.59,24.31,1.75,5.91,9,11.13,13.69,14.65,6,4.55,12.65,10,19.76,12.65,7.28,2.7,15.26,1.15,22.39-1.28,6.12-2.09,13.42-5.26,16.54-11.31.37-.71-.71-1.35-1.08-.63-4.92,9.55-22,14.29-32,13.29-6.68-.67-12-4.61-17.33-8.35-5.89-4.14-11.83-8.18-16.7-13.55-4.26-4.7-5.43-8.47-2.79-14.37a29.12,29.12,0,0,1,11.28-12.53c13.59-8.34,29.29-2.66,40.65,6.7,7.19,5.92,20.4,18.1,16.79,29C469.8,344.53,471,344.86,471.26,344.1Z"/><path class="cls-3" d="M96.84,355.73a37.33,37.33,0,0,1-15.87.21c-7.57-1.39-20-5.72-20.55-14.88-.63-9.79,9-20.32,15.92-26.35,7.6-6.65,21.57-12.57,31.79-9.85a34.3,34.3,0,0,1,20.15,16c3.76,7,1,11.32-4.29,16.06-8.19,7.34-17.82,13.36-27.29,18.9a.63.63,0,0,0,.63,1.08c10.26-6,21.12-12.53,29.56-21,4-4,5.81-8,3.53-13.53-3.08-7.51-10.32-13.79-17.58-17.11-11.76-5.39-27,.16-36.66,7.93-7.48,6-17.24,17.34-17,27.47.2,8.75,10,13.27,17.23,15.45,6.51,2,14.13,2.59,20.79.83A.63.63,0,0,0,96.84,355.73Z"/><path class="cls-3" d="M90.26,357.25c0,6.34-1,13.53.12,19.77.87,4.73,4.83,6.72,9.2,6.81,8,.17,16.07,0,24.1,0l102.05,0,94.56,0,51.23,0,51.54,0c3.16,0,6.43.23,9.59,0,9.07-.68,7.57-10.28,7.57-16.79v-9.21a.63.63,0,0,0-1.25,0c0,6,.65,12.41,0,18.39-.82,7.51-8,6.36-13.27,6.36l-47.31,0-52.48,0-83.84,0-103.42,0H106c-2.31,0-4.69.17-7,0-9.12-.66-7.47-10.13-7.47-16.62v-8.72a.63.63,0,0,0-1.25,0Z"/><path class="cls-3" d="M90.89,357.88h108.7c2.26,0,4.48.21,6.13-1.74,2.38-2.8,2.17-8,2.33-11.41s.29-7,.39-10.5a.63.63,0,0,0-.62-.62h-79.3a.63.63,0,0,0,0,1.25h75.38c.9,0,3.06-.43,3.87,0-.87-.46-.43-.46-.62.5a22.51,22.51,0,0,0-.12,3.46c-.12,3.19-.13,6.42-.45,9.6-.44,4.41-2.14,7.88-6.4,8.21-5.15.4-10.49,0-15.65,0H90.89a.63.63,0,0,0,0,1.25Z"/><path class="cls-3" d="M402,333.6H335.55a.63.63,0,0,0-.62.63l-.13,13.46c0,4-.76,6.56,2.68,9.35,4.18,3.38,12.1,2.08,17.13,2l66-.59,19-.17a.63.63,0,0,0,0-1.25l-80.09.71c-4.65,0-9.32.18-14,.12-3.61,0-8.6-1.06-9.59-4.68-.53-1.95.11-6.47.13-8.91,0-2.87-.77-7.08.1-9.83,0,0-1.09.44,0,.36.75-.05,1.52,0,2.27,0H402a.63.63,0,0,0,0-1.25Z"/><rect class="cls-2" x="397.07" y="111.64" width="63.81" height="84.34"/><rect class="cls-2" x="406.4" y="123.96" width="45.16" height="59.69"/><path class="cls-2" d="M292.06,189.78l-6,123,30.3-7.39,18.45-82.68s1.83,1.93,25.9,8,47.44,8.51,51.57,4.17,3.91-14.48-2.28-18.47-60.11-36.57-60.11-36.57-1.09-2.28-5.78,2.71c0,0-8.87,11.95-8.23,16.35S359.78,216,359.78,216l35.69,18"/><polyline class="cls-2" points="344.13 182.57 337.23 177.94 329.9 186.53"/><polyline class="cls-2" points="302.6 173.15 319.3 179.34 323.67 183.13 329.12 187.16"/><path class="cls-2" d="M242.31,173l-38.54,14.48a29.79,29.79,0,0,0-4.42,9.41s-25.85,43.82-28.79,50.07-10.75,20.56-11.5,25.56,1.38,7.5,3.75,8.94,46.13,25.38,46.13,25.38,5.36,3.32,8.15,1.29a14.75,14.75,0,0,0,3.71-3.53l9.41,4.76,5.18-15.17"/><path class="cls-3" d="M251.5,187.92l4.25,84.32.6,12c0,.8,1.29.81,1.25,0l-4.25-84.32-.6-12c0-.8-1.29-.81-1.25,0Z"/><path class="cls-3" d="M222.54,281.87l-11-48.61a.63.63,0,0,0-1.14-.15l-21.51,33.45a.63.63,0,0,0,.22.86l32.48,15.16c.72.34,1.36-.74.63-1.08l-17.14-8-11.24-5.25a26.85,26.85,0,0,0-3.32-1.55c-1.25-.38-.46.4-.34.15,3-6.14,7.65-11.9,11.34-17.64l9.95-15.47-1.14-.15,11,48.61C221.51,283,222.71,282.65,222.54,281.87Z"/><path class="cls-4" d="M235.15,295.1s3.06,1.79,8.29-1.49,23.3-15.16,24.72-15S282.72,288,282.72,288s8.81-1.57,9.26-.45-2.35,6.42-5.88,7.69-11.74,12.84-14.21,15.16-9,4.48-10.08,3.81-1.57-1.57-.75-4.89c0,0-5.9,2.5-10.16,2.5s-5-.07-8.44-1.42a124.5,124.5,0,0,1-11.13-5.82Z"/><path class="cls-3" d="M260.52,297.43c4.23,3.24,9.39,7.48,11.32,12.58.28.75,1.49.42,1.21-.33-2.07-5.46-7.37-9.86-11.89-13.32-.64-.49-1.26.6-.63,1.08Z"/><path class="cls-3" d="M263.68,289.27c4.55,4.78,9.58,9.38,13.69,14.54.5.63,1.38-.26.88-.88-4.11-5.16-9.14-9.76-13.69-14.54-.56-.58-1.44.3-.88.88Z"/><path class="cls-3" d="M268.24,282.77l14.25,15.3c.55.59,1.43-.3.88-.88l-14.25-15.3c-.55-.59-1.43.3-.88.88Z"/><path class="cls-2" d="M282.72,288s5,2.6,4.63,4.18a14.14,14.14,0,0,1-2.3,3.91"/><path class="cls-3" d="M265.42,309.84c.28-4.13-5.72-1-7.25-.1a.63.63,0,0,0,.63,1.08c.86-.51,5.52-3.15,5.37-1-.05.8,1.2.8,1.25,0Z"/></g></svg>