<svg xmlns="http://www.w3.org/2000/svg" xmlns:xlink="http://www.w3.org/1999/xlink" viewBox="113.82 84.73 355 333.63"><defs><style>.cls-1,.cls-14,.cls-3,.cls-5{fill:#fff;}.cls-13,.cls-16,.cls-19,.cls-2,.cls-34,.cls-4{fill:none;}.cls-3,.cls-4{stroke:#1a2e35;}.cls-13,.cls-14,.cls-3,.cls-4,.cls-5,.cls-9{stroke-miterlimit:10;}.cls-3{stroke-width:2px;}.cls-4,.cls-5,.cls-9{stroke-width:1.5px;}.cls-14,.cls-15,.cls-16,.cls-4,.cls-5,.cls-7,.cls-8{fill-rule:evenodd;}.cls-13,.cls-14,.cls-16,.cls-34,.cls-5,.cls-9{stroke:#182e35;}.cls-6{fill:#182e35;}.cls-7{fill:#2e5daa;}.cls-11,.cls-8,.cls-9{fill:#35b995;}.cls-10{clip-path:url(#clip-path);}.cls-12,.cls-15{fill:#f7dc6b;}.cls-13{stroke-width:0.5px;}.cls-14{stroke-width:0.25px;}.cls-16,.cls-17,.cls-19,.cls-34{stroke-linecap:round;stroke-linejoin:round;}.cls-17,.cls-18{fill:#192e35;}.cls-17{stroke:#192e35;}.cls-19{stroke:#fff;stroke-width:0.75px;}.cls-20{opacity:0.13;}.cls-21{clip-path:url(#clip-path-2);}.cls-22{clip-path:url(#clip-path-3);}.cls-23{clip-path:url(#clip-path-4);}.cls-24{clip-path:url(#clip-path-5);}.cls-25{clip-path:url(#clip-path-6);}.cls-26{clip-path:url(#clip-path-7);}.cls-27{clip-path:url(#clip-path-8);}.cls-28{clip-path:url(#clip-path-9);}.cls-29{clip-path:url(#clip-path-10);}.cls-30{clip-path:url(#clip-path-11);}.cls-31{clip-path:url(#clip-path-12);}.cls-32{clip-path:url(#clip-path-13);}.cls-33{clip-path:url(#clip-path-14);}</style><clipPath id="clip-path"><path class="cls-1" d="M443.95,288.48l-3.45-2.19a1.11,1.11,0,0,0-1.53.34h0a1.11,1.11,0,0,0,.34,1.53l4.32,2.75a1.11,1.11,0,0,0,1.49-.28l8-10.8a1.11,1.11,0,0,0-.23-1.55h0a1.11,1.11,0,0,0-1.55.23Z"/></clipPath><clipPath id="clip-path-2"><rect class="cls-2" x="163.79" y="209.73" width="45.95" height="9.11"/></clipPath><clipPath id="clip-path-3"><rect class="cls-2" x="185.59" y="268.54" width="20.05" height="12.65"/></clipPath><clipPath id="clip-path-4"><rect class="cls-2" x="247.17" y="350.65" width="31.98" height="18.47"/></clipPath><clipPath id="clip-path-5"><rect class="cls-2" x="302.26" y="262.05" width="0.03"/></clipPath><clipPath id="clip-path-6"><rect class="cls-2" x="281.13" y="255.2" width="30.35" height="8.09"/></clipPath><clipPath id="clip-path-7"><rect class="cls-2" x="289.91" y="233.49" width="18.11" height="7.8"/></clipPath><clipPath id="clip-path-8"><rect class="cls-2" x="304.38" y="236.1" width="0.2" height="0.15"/></clipPath><clipPath id="clip-path-9"><rect class="cls-2" x="294.4" y="240.66" width="0.22" height="0.03"/></clipPath><clipPath id="clip-path-10"><rect class="cls-2" x="294.62" y="240.69" width="0.15" height="0.02"/></clipPath><clipPath id="clip-path-11"><rect class="cls-2" x="284.41" y="219.32" width="9.08" height="9.97"/></clipPath><clipPath id="clip-path-12"><rect class="cls-2" x="197.46" y="379.14" width="13.81" height="23.57"/></clipPath><clipPath id="clip-path-13"><rect class="cls-2" x="147.39" y="344.44" width="13.6" height="30.59"/></clipPath><clipPath id="clip-path-14"><rect class="cls-2" x="122.52" y="399.24" width="99.79" height="11.24"/></clipPath></defs><title>morut new</title><g id="Character"><circle class="cls-3" cx="347.56" cy="218.84" r="109.9"/><path class="cls-1" d="M535.79,410.38s2.39,2.51,2.9,4.29.7,3.5,1.7,3.63,2.05.1,2.44-.69,3.32-2.69,3.31-2.88-.38-6.5-1.25-7.65.52-1.23.52-1.23l2,2.7s1.5,3,1.69,3.56.56,3,.56,3l2.88,1.21s-.35-5.28-.49-6.4.69-.77.69-.77l3.71,4.78s1.5.56,1.51.38-8.3-12.55-8.3-12.55-5.35-2.51-7.39-1.76-5.17,1.69-5.48,2.69S535.79,410.38,535.79,410.38Z"/><polyline class="cls-4" points="458.2 283.4 458.2 267.95 378.15 267.95 378.15 310.62 458.2 309.93 458.2 303.24"/><path class="cls-5" d="M445.24,239.1h-44.4a3.42,3.42,0,0,0-3.42,3.42v57a1.67,1.67,0,0,0,1.67,1.67H447a1.67,1.67,0,0,0,1.67-1.67v-57A3.42,3.42,0,0,0,445.24,239.1Z"/><path class="cls-6" d="M445.24,239.1h-44.4a3.42,3.42,0,0,0-3.42,3.42v8.93h51.25v-8.93A3.42,3.42,0,0,0,445.24,239.1Z"/><path class="cls-7" d="M443,255.93H401.48c-.22,0-.4.25-.4.55h0c0,.3.18.55.4.55H443c.22,0,.4-.25.4-.55h0C443.37,256.18,443.19,255.93,443,255.93Z"/><path class="cls-7" d="M443,259.76H401.48c-.22,0-.4.25-.4.55h0c0,.3.18.55.4.55H443c.22,0,.4-.25.4-.55h0C443.37,260,443.19,259.76,443,259.76Z"/><path class="cls-7" d="M436,263.6h-34.6c-.18,0-.33.25-.33.55h0c0,.3.15.55.33.55H436c.18,0,.33-.25.33-.55h0C436.35,263.85,436.2,263.6,436,263.6Z"/><path class="cls-7" d="M443,267.95H401.48c-.22,0-.4.25-.4.55h0c0,.3.18.55.4.55H443c.22,0,.4-.25.4-.55h0C443.37,268.2,443.19,267.95,443,267.95Z"/><path class="cls-7" d="M428.1,271.78H401.34c-.14,0-.26.25-.26.55h0c0,.3.11.55.26.55H428.1c.14,0,.26-.25.26-.55h0C428.35,272,428.24,271.78,428.1,271.78Z"/><path class="cls-7" d="M431.77,276.13h-30.4c-.16,0-.29.25-.29.55h0c0,.3.13.55.29.55h30.4c.16,0,.29-.25.29-.55h0C432.06,276.38,431.93,276.13,431.77,276.13Z"/><path class="cls-8" d="M401.39,243.06h7.83a.42.42,0,0,1,.42.42h0a.42.42,0,0,1-.42.42h-7.83a.42.42,0,0,1-.42-.42h0A.42.42,0,0,1,401.39,243.06Z"/><path class="cls-8" d="M401.39,244.92h4.43a.42.42,0,0,1,.42.42h0a.42.42,0,0,1-.42.42h-4.43a.42.42,0,0,1-.42-.42h0A.42.42,0,0,1,401.39,244.92Z"/><path class="cls-8" d="M407.33,244.92H408a.42.42,0,0,1,.42.42h0a.42.42,0,0,1-.42.42h-.65a.42.42,0,0,1-.42-.42h0A.42.42,0,0,1,407.33,244.92Z"/><path class="cls-8" d="M401.39,246.84h3.4a.42.42,0,0,1,.42.42h0a.42.42,0,0,1-.42.42h-3.4a.42.42,0,0,1-.42-.42h0A.42.42,0,0,1,401.39,246.84Z"/><circle class="cls-9" cx="446.53" cy="284.57" r="11.68"/><path class="cls-1" d="M443.95,288.48l-3.45-2.19a1.11,1.11,0,0,0-1.53.34h0a1.11,1.11,0,0,0,.34,1.53l4.32,2.75a1.11,1.11,0,0,0,1.49-.28l8-10.8a1.11,1.11,0,0,0-.23-1.55h0a1.11,1.11,0,0,0-1.55.23Z"/><g class="cls-10"><rect class="cls-1" x="436.87" y="275.89" width="18.39" height="17.29" rx="1.11" ry="1.11" transform="matrix(0.97, -0.25, 0.25, 0.97, -57.59, 122.48)"/></g><circle class="cls-11" cx="381.84" cy="271.78" r="1.27"/><circle class="cls-12" cx="385.53" cy="271.78" r="1.27"/><circle class="cls-13" cx="389.22" cy="271.78" r="1.11"/><path class="cls-5" d="M445.46,132h-44.4a3.42,3.42,0,0,0-3.42,3.42v57A1.67,1.67,0,0,0,399.3,194h47.91a1.67,1.67,0,0,0,1.67-1.67v-57A3.42,3.42,0,0,0,445.46,132Z"/><path class="cls-5" d="M460.1,123.93H415.7a3.42,3.42,0,0,0-3.42,3.42v57a1.67,1.67,0,0,0,1.67,1.67h47.91a1.67,1.67,0,0,0,1.67-1.67v-57A3.42,3.42,0,0,0,460.1,123.93Z"/><path class="cls-6" d="M460.1,123.93H415.7a3.42,3.42,0,0,0-3.42,3.42v8.93h51.25v-8.93A3.42,3.42,0,0,0,460.1,123.93Z"/><path class="cls-7" d="M457.83,140.75H416.34c-.22,0-.4.25-.4.55h0c0,.3.18.55.4.55h41.49c.22,0,.4-.25.4-.55h0C458.23,141,458.05,140.75,457.83,140.75Z"/><path class="cls-7" d="M457.83,144.59H416.34c-.22,0-.4.25-.4.55h0c0,.3.18.55.4.55h41.49c.22,0,.4-.25.4-.55h0C458.23,144.84,458.05,144.59,457.83,144.59Z"/><path class="cls-7" d="M450.88,148.43h-34.6c-.18,0-.33.25-.33.55h0c0,.3.15.55.33.55h34.6c.18,0,.33-.25.33-.55h0C451.21,148.68,451.06,148.43,450.88,148.43Z"/><path class="cls-7" d="M457.83,152.77H416.34c-.22,0-.4.25-.4.55h0c0,.3.18.55.4.55h41.49c.22,0,.4-.25.4-.55h0C458.23,153,458.05,152.77,457.83,152.77Z"/><path class="cls-7" d="M443,156.61H416.2c-.14,0-.26.25-.26.55h0c0,.3.11.55.26.55H443c.14,0,.26-.25.26-.55h0C443.22,156.86,443.1,156.61,443,156.61Z"/><path class="cls-7" d="M446.63,161h-30.4c-.16,0-.29.25-.29.55h0c0,.3.13.55.29.55h30.4c.16,0,.29-.25.29-.55h0C446.92,161.21,446.79,161,446.63,161Z"/><path class="cls-14" d="M416.25,127.89h7.83a.42.42,0,0,1,.42.42h0a.42.42,0,0,1-.42.42h-7.83a.42.42,0,0,1-.42-.42h0A.42.42,0,0,1,416.25,127.89Z"/><path class="cls-14" d="M416.25,129.75h4.43a.42.42,0,0,1,.42.42h0a.42.42,0,0,1-.42.42h-4.43a.42.42,0,0,1-.42-.42h0A.42.42,0,0,1,416.25,129.75Z"/><path class="cls-14" d="M422.19,129.75h.65a.42.42,0,0,1,.42.42h0a.42.42,0,0,1-.42.42h-.65a.42.42,0,0,1-.42-.42h0A.42.42,0,0,1,422.19,129.75Z"/><path class="cls-14" d="M416.25,131.67h3.4a.42.42,0,0,1,.42.42h0a.42.42,0,0,1-.42.42h-3.4a.42.42,0,0,1-.42-.42h0A.42.42,0,0,1,416.25,131.67Z"/><path class="cls-15" d="M382.08,139.22l-1.15,20.61s11,7.69,12.07,7.61,3-.62,2.54-2.31c0,0,2.77-.92,1.54-3.31,0,0,2.46-1.77,1.77-3.84,0,0,7.46,3.84,9.46,3.61s1.92-2.92.38-3.84S390,144.45,390,144.45Z"/><path class="cls-16" d="M395.37,164.52s-6.26-3.4-5.16,1.49"/><path class="cls-16" d="M396.46,161.52s-2.61-1.77-4.31-1.69-.92,2.63,0,3.54"/><path class="cls-16" d="M398.84,158a7.38,7.38,0,0,0-3.55-.94,1.83,1.83,0,0,0-1.72,2.09,2.19,2.19,0,0,0,.62,1.17"/><path class="cls-16" d="M385.77,156.71s3.84.72,6-3.7-1.28-4.9-1.69-2.58c-.29,1.67,4.09,5.95,5,6.32s3.33-.18,2.57-3.56-5.3-9-8.38-10.29"/><path class="cls-5" d="M324.55,93.53h-44.4A3.42,3.42,0,0,0,276.73,97v57a1.67,1.67,0,0,0,1.67,1.67h47.91a1.67,1.67,0,0,0,1.67-1.67V97A3.42,3.42,0,0,0,324.55,93.53Z"/><path class="cls-5" d="M339.19,85.48h-44.4a3.42,3.42,0,0,0-3.42,3.42v57a1.67,1.67,0,0,0,1.67,1.67h47.91a1.67,1.67,0,0,0,1.67-1.67v-57A3.42,3.42,0,0,0,339.19,85.48Z"/><path class="cls-6" d="M339.19,85.48h-44.4a3.42,3.42,0,0,0-3.42,3.42v8.93h51.25V88.9A3.42,3.42,0,0,0,339.19,85.48Z"/><path class="cls-7" d="M336.92,102.31H295.43c-.22,0-.4.25-.4.55h0c0,.3.18.55.4.55h41.49c.22,0,.4-.25.4-.55h0C337.32,102.56,337.14,102.31,336.92,102.31Z"/><path class="cls-7" d="M336.92,106.14H295.43c-.22,0-.4.25-.4.55h0c0,.3.18.55.4.55h41.49c.22,0,.4-.25.4-.55h0C337.32,106.39,337.14,106.14,336.92,106.14Z"/><path class="cls-7" d="M330,110h-34.6c-.18,0-.33.25-.33.55h0c0,.3.15.55.33.55H330c.18,0,.33-.25.33-.55h0C330.3,110.23,330.15,110,330,110Z"/><path class="cls-7" d="M336.92,114.33H295.43c-.22,0-.4.25-.4.55h0c0,.3.18.55.4.55h41.49c.22,0,.4-.25.4-.55h0C337.32,114.58,337.14,114.33,336.92,114.33Z"/><path class="cls-7" d="M322,118.16H295.29c-.14,0-.26.25-.26.55h0c0,.3.11.55.26.55H322c.14,0,.26-.25.26-.55h0C322.3,118.41,322.19,118.16,322,118.16Z"/><path class="cls-7" d="M325.72,122.51h-30.4c-.16,0-.29.25-.29.55h0c0,.3.13.55.29.55h30.4c.16,0,.29-.25.29-.55h0C326,122.76,325.88,122.51,325.72,122.51Z"/><path class="cls-15" d="M295.34,89.44h7.83a.42.42,0,0,1,.42.42h0a.42.42,0,0,1-.42.42h-7.83a.42.42,0,0,1-.42-.42h0A.42.42,0,0,1,295.34,89.44Z"/><path class="cls-15" d="M295.34,91.3h4.43a.42.42,0,0,1,.42.42h0a.42.42,0,0,1-.42.42h-4.43a.42.42,0,0,1-.42-.42h0A.42.42,0,0,1,295.34,91.3Z"/><path class="cls-15" d="M301.28,91.3h.65a.42.42,0,0,1,.42.42h0a.42.42,0,0,1-.42.42h-.65a.42.42,0,0,1-.42-.42h0A.42.42,0,0,1,301.28,91.3Z"/><path class="cls-15" d="M295.34,93.23h3.4a.42.42,0,0,1,.42.42h0a.42.42,0,0,1-.42.42h-3.4a.42.42,0,0,1-.42-.42h0A.42.42,0,0,1,295.34,93.23Z"/><path class="cls-7" d="M300,146c-.54-1.08-8.86-11.83-8.86-11.83v-4.81s-4.13-3-4.89-3.35l-.53-.25a29.36,29.36,0,0,0-5.44-1.9l-3.38-.82-11.19,13.49s11.65,5.65,12.11,6.92,4.42,8.77,5.34,8.92,1.92-.08,1.15-1.77-2.31-6.38-1.92-6.46,9.38,6.77,10.76,7,1.46-.85,1.23-1.46-10.77-8.54-10.92-9l-.15-.46a1.51,1.51,0,0,1,1.08.15c.54.31,11.61,9.61,12.84,9.61s1.85-1,1.08-1.54-11.69-11.07-11.61-11.76,1.38.15,1.85.69,9.52,9.53,10.1,9.92S300.52,147.09,300,146Z"/><path class="cls-16" d="M291.11,129.38l-4.44-2.93c-.78-.54-1.87-1.82-1.12-2.4.55-.43,1.27.07,1.53.51.66,1.14-.38,3.74-1.37,4.07"/><path class="cls-17" d="M157.88,246.24c3.33,10.13.25,22.43-8.36,28.72-4.69,3.42-10.52,4.91-15.46,7.95s-9.19,8.75-7.54,14.31a22.8,22.8,0,0,1,1.34,4.19c.37,3.94-3.69,6.6-6.68,9.19-6.73,5.81-9.37,17-3.52,23.73,4.61,5.29,12.42,6.07,19.43,6.21,9.5.19,19.34-.2,27.91-4.31s15-11.53,19.11-20,6-17.8,6.86-27.14c1-10.76.48-22.17-5-31.5s-17.09-15.72-28.1-11.4"/><path class="cls-6" d="M140.58,341.16q-1.76,0-3.51,0c-7.18-.15-15.15-1-19.85-6.41A14.4,14.4,0,0,1,113.89,324a20.53,20.53,0,0,1,6.91-13.81c.42-.36.87-.73,1.31-1.1,2.68-2.22,5.46-4.51,5.17-7.59a9.33,9.33,0,0,0-.75-2.53c-.2-.5-.41-1-.57-1.56-1.76-5.92,2.81-11.9,7.79-15a57.5,57.5,0,0,1,7-3.46,44.81,44.81,0,0,0,8.44-4.46c8.12-5.93,11.55-17.73,8.15-28.07a.58.58,0,0,1,.34-.72,21,21,0,0,1,16.58.59,27.23,27.23,0,0,1,12.23,11.05c4.69,8,6.3,18.13,5.06,31.84-1,10.92-3.25,19.86-6.92,27.34-4.51,9.2-11.39,16.39-19.38,20.22-7.61,3.65-16.24,4.4-24.66,4.4m18-94.57c3.27,10.67-.35,22.72-8.73,28.84a45.55,45.55,0,0,1-8.66,4.58,57,57,0,0,0-6.85,3.39c-4.62,2.84-8.88,8.32-7.29,13.66.14.49.33,1,.53,1.46a10.32,10.32,0,0,1,.83,2.84c.35,3.69-2.8,6.29-5.58,8.59-.44.37-.88.73-1.3,1.09A19.63,19.63,0,0,0,115,324a13.27,13.27,0,0,0,3,9.91c4.39,5,11.73,5.87,19,6,9.37.19,19.2-.2,27.65-4.25C172.5,332,179.19,325,183.59,316c3.6-7.36,5.83-16.17,6.8-26.94,1.22-13.46-.34-23.36-4.9-31.16-5-8.5-16-15.27-26.89-11.34"/><path class="cls-17" d="M206,206.18c1.43,15.39,3.3,31.86,13.35,43.61,3.27,3.82,7.29,7,10.25,11,3.52,4.82,5.36,10.67,6.58,16.52,2.3,11.05,2.42,23.07-2.8,33.08S216.48,327.64,205.5,325c-9.64-2.28-16.5-11.4-18.86-21s-1-19.73.67-29.49A348.57,348.57,0,0,1,206,206.18"/><path class="cls-17" d="M210,326.13a20.16,20.16,0,0,1-4.66-.53c-9-2.14-16.61-10.56-19.28-21.45-2.43-9.89-1-20.11.66-29.73A349.72,349.72,0,0,1,205.43,206a.58.58,0,0,1,1.11.16c1.59,17.09,3.68,32.14,13.21,43.29,1.36,1.58,2.87,3.08,4.34,4.54a55.23,55.23,0,0,1,5.94,6.53c3.05,4.18,5.17,9.5,6.68,16.74,2.76,13.28,1.8,24.55-2.86,33.47-4.9,9.39-14.57,15.44-23.83,15.44m-4.4-117.48a351.35,351.35,0,0,0-17.75,66c-1.64,9.5-3,19.58-.68,29.26,2.57,10.47,9.8,18.56,18.43,20.6,10,2.37,21.7-3.78,27.2-14.32,4.53-8.68,5.45-19.68,2.75-32.7-1.47-7.08-3.53-12.25-6.48-16.3a54.35,54.35,0,0,0-5.82-6.39c-1.49-1.47-3-3-4.41-4.61-9.3-10.86-11.66-25.22-13.25-41.51"/><path class="cls-1" d="M208.24,289.73a188,188,0,0,1-6.17-24.63,36.07,36.07,0,0,0-10.9-.19c-1.62.22-3.4.65-4.3,1.95a5.86,5.86,0,0,0-.79,2.79l-2.17,20a3.34,3.34,0,0,0,.07,1.53,3.31,3.31,0,0,0,1.61,1.53,19.55,19.55,0,0,0,22.66-3"/><path class="cls-18" d="M194.81,295.64a19.38,19.38,0,0,1-9.51-2.44,3.07,3.07,0,0,1-2-3.63l2.17-20a6.41,6.41,0,0,1,.9-3.06c1.06-1.52,3.07-2,4.7-2.19a36.53,36.53,0,0,1,11.07.19.58.58,0,0,1,.47.46,186.9,186.9,0,0,0,6.15,24.56.58.58,0,0,1-.14.6,19.87,19.87,0,0,1-13.84,5.5m1.2-30.48a35.38,35.38,0,0,0-4.76.32c-1.4.19-3.1.55-3.91,1.71a5.43,5.43,0,0,0-.69,2.53l-2.17,20a2.9,2.9,0,0,0,0,1.27,2.86,2.86,0,0,0,1.35,1.23,19.11,19.11,0,0,0,21.71-2.63,187.94,187.94,0,0,1-6-24,35.46,35.46,0,0,0-5.57-.44"/><path class="cls-1" d="M210.38,208.73c1.23,7.44,2.06,15.38,6.07,21.94,2.19,3.58,8.09,23.35-6,33.79a32.12,32.12,0,0,1-27.36,5.18c-6.9-1.76-17.31-10.59-19.22-21.92-4.42,2.8-10.17,1-11.54-3.32-.79-2.49,1-6.46,4-7.2,2.29-.57,2.56-.63,4.68.16a69.07,69.07,0,0,0-3.14-16.74c3.65-7.7,11.49-13.46,19.88-17.44a34,34,0,0,1,8.74-3c8.76-1.51,22.7.94,24,8.58"/><path class="cls-18" d="M191.51,271.3a34.67,34.67,0,0,1-8.59-1.1c-6.8-1.74-17.16-10.15-19.49-21.58a9,9,0,0,1-7.14.5,7.23,7.23,0,0,1-4.53-4.55,6.51,6.51,0,0,1,.73-4.91,6,6,0,0,1,3.65-3c2.07-.52,2.65-.63,4.18-.12a67.85,67.85,0,0,0-3-15.73.58.58,0,0,1,0-.42c4.11-8.68,13.23-14.42,20.16-17.72a35,35,0,0,1,8.89-3.07c6.2-1.07,15.62-.19,20.86,3.54a8.46,8.46,0,0,1,3.76,5.51c.15.91.29,1.82.44,2.73,1,6.56,2.09,13.34,5.56,19,2.68,4.37,7.93,24.13-6.19,34.55a32.13,32.13,0,0,1-19.25,6.38m-27.67-24.15a.57.57,0,0,1,.23,0,.58.58,0,0,1,.33.43c1.88,11.21,12.31,19.8,18.79,21.46A31.37,31.37,0,0,0,210.07,264c14.41-10.64,7.4-30.56,5.89-33-3.59-5.86-4.67-12.76-5.72-19.43-.14-.91-.29-1.82-.44-2.73a7.35,7.35,0,0,0-3.29-4.76c-5-3.55-14-4.37-20-3.34a33.86,33.86,0,0,0-8.59,3c-6.7,3.19-15.5,8.71-19.51,17a69.63,69.63,0,0,1,3.09,16.66.58.58,0,0,1-.78.58c-2-.73-2.1-.7-4.34-.14a4.88,4.88,0,0,0-2.92,2.47,5.34,5.34,0,0,0-.64,4,6.09,6.09,0,0,0,3.83,3.82,7.87,7.87,0,0,0,6.86-.81.58.58,0,0,1,.31-.09"/><path class="cls-1" d="M281.7,260.21a2,2,0,0,1,.85-1.84,5.48,5.48,0,0,1,2-.81,70.37,70.37,0,0,1,24.84-1.71c.81.08,1.84.4,1.85,1.21a1.53,1.53,0,0,1-.47,1c-1.54,1.75-3.84,2.62-6.08,3.28-6.41,1.89-13.33,2.61-19.77.81-1.12-.31-2.92-.56-3.17-1.92"/><path class="cls-18" d="M180.94,246.87c-5.21,0-9.91-4.18-10.89-10-1.08-6.42,2.78-12.43,8.6-13.41s11.43,3.44,12.51,9.86a12.36,12.36,0,0,1-1.69,8.72,10.16,10.16,0,0,1-6.91,4.69,9.76,9.76,0,0,1-1.62.14m-.67-22.39a8.64,8.64,0,0,0-1.43.12c-5.19.87-8.63,6.29-7.65,12.08s6,9.79,11.18,8.91a9,9,0,0,0,6.13-4.17,11.21,11.21,0,0,0,1.53-7.91c-.88-5.25-5.1-9-9.75-9"/><path class="cls-18" d="M210,239.48c-5.21,0-9.91-4.18-10.89-10-1.08-6.41,2.78-12.43,8.6-13.41s11.43,3.44,12.51,9.86a12.36,12.36,0,0,1-1.69,8.72,10.16,10.16,0,0,1-6.91,4.69,9.78,9.78,0,0,1-1.62.14m-.67-22.39a8.64,8.64,0,0,0-1.43.12c-5.19.87-8.63,6.29-7.65,12.08s6,9.79,11.18,8.91a9,9,0,0,0,6.13-4.17,11.21,11.21,0,0,0,1.53-7.91c-.88-5.25-5.1-9-9.75-9"/><path class="cls-1" d="M293.23,220.3c-2.23-7.06-.07-15-2.79-21.94a2.13,2.13,0,0,0-1.2-1.42c-1-.28-1.82.88-2.16,1.88-1.47,4.34-1,9-1,13.63a70.93,70.93,0,0,1-2.89,20.1c-1.24,3.37.06,7.07,1.1,10.51a68.39,68.39,0,0,1,2.88,18.4c4.76,1.89,10.13.84,15.13-.28a18.33,18.33,0,0,0,5.33-1.78,214.16,214.16,0,0,0,3.6-22.85,40.61,40.61,0,0,0,.29-6.29,7.4,7.4,0,0,0-1.45-4.54,3.28,3.28,0,0,0-4.44-.6,3.63,3.63,0,0,0-2.22-2.82,6.5,6.5,0,0,0-3.69-.31,1.35,1.35,0,0,0-.86.38,5.37,5.37,0,0,0-5.28-1.46c0-.3-.08-.61-.33-.61"/><path class="cls-17" d="M137.32,183.19a19,19,0,1,1,19,19,19,19,0,0,1-19-19"/><path class="cls-17" d="M156.37,202.81A19.62,19.62,0,1,1,176,183.19a19.64,19.64,0,0,1-19.62,19.62m0-38.09a18.47,18.47,0,1,0,18.47,18.47,18.49,18.49,0,0,0-18.47-18.47"/><path class="cls-18" d="M306.93,262.35h-.12a.58.58,0,0,1-.45-.68,244.61,244.61,0,0,0,4.18-30.24,10.32,10.32,0,0,0-.27-4.25,3.26,3.26,0,0,0-2.76-2.3h0c-1,0-2,.67-3.21,2.11a25.16,25.16,0,0,0-4.17,7.43,4.73,4.73,0,0,0-.37,2.53c.15.67.75,1.34,1.41,1.27a2.34,2.34,0,0,0,1.06-.55,14.81,14.81,0,0,0,4.13-5,.58.58,0,1,1,1,.52,16,16,0,0,1-4.46,5.42,3.32,3.32,0,0,1-1.65.79,2.63,2.63,0,0,1-2.66-2.16A5.72,5.72,0,0,1,299,234a26.31,26.31,0,0,1,4.36-7.76c.88-1.09,2.27-2.54,4.11-2.54h0a4.41,4.41,0,0,1,3.84,3.07,11.41,11.41,0,0,1,.34,4.73,246.1,246.1,0,0,1-4.2,30.38.58.58,0,0,1-.56.46"/><path class="cls-18" d="M297.5,238.47a2.05,2.05,0,0,1-1.06-.3,3.37,3.37,0,0,1-1.39-2,11.75,11.75,0,0,1-.18-5.54,22.5,22.5,0,0,1,2.74-7.58,3.73,3.73,0,0,1,1.25-1.43,3.07,3.07,0,0,1,1.67-.38,6.63,6.63,0,0,1,5.53,3.11.58.58,0,0,1-1,.6,5.46,5.46,0,0,0-4.54-2.56h0a2.08,2.08,0,0,0-1.07.22,2.72,2.72,0,0,0-.84,1,21.35,21.35,0,0,0-2.61,7.19,10.65,10.65,0,0,0,.14,5,2.3,2.3,0,0,0,.88,1.36.91.91,0,0,0,.88,0,1.15,1.15,0,0,0,.64-.87.58.58,0,0,1,1.14.18,2.31,2.31,0,0,1-1.29,1.74,2.12,2.12,0,0,1-.9.2"/><path class="cls-18" d="M293.77,238h0a2.63,2.63,0,0,1-2.19-1.52,6.14,6.14,0,0,1-.54-2.33,51.65,51.65,0,0,1-.09-7.87,10.36,10.36,0,0,1,.63-3.32,4.3,4.3,0,0,1,2.55-2.53c1.89-.61,3.78.54,5,1.45a.58.58,0,1,1-.67.93c-1.06-.76-2.62-1.73-4-1.28a3.16,3.16,0,0,0-1.84,1.88,9.22,9.22,0,0,0-.55,3,50.46,50.46,0,0,0,.08,7.69,5.19,5.19,0,0,0,.42,1.9,1.51,1.51,0,0,0,1.19.9,1.87,1.87,0,0,0,1.17-.55c.1-.11.11-.18.11-.19a.58.58,0,1,1,1.14-.18,1.35,1.35,0,0,1-.38,1.13,3,3,0,0,1-2,.94"/><path class="cls-18" d="M283.27,232.83l-.16,0a.58.58,0,0,1-.39-.71,69.94,69.94,0,0,0,2.78-19.65c0-.84,0-1.68,0-2.52-.07-3.76-.15-7.66,1.08-11.29.47-1.38,1.54-2.62,2.86-2.25a2.68,2.68,0,0,1,1.58,1.76c1.47,3.73,1.65,8,1.81,12.07a41.15,41.15,0,0,0,1.32,10.52.58.58,0,1,1-1.1.35,41.94,41.94,0,0,1-1.37-10.82c-.16-4-.33-8.14-1.73-11.69-.26-.65-.52-1-.82-1.08-.63-.18-1.23.83-1.46,1.51-1.16,3.45-1.09,7.24-1,10.9,0,.85,0,1.7,0,2.54a71.1,71.1,0,0,1-2.82,20,.58.58,0,0,1-.55.42"/><path class="cls-17" d="M161.81,237.9c2.45-8.59,3.72-14.62,2.6-23.82,20.16,4.91,35.87-1.76,52.05-7.37a16.58,16.58,0,0,0-3.91-7.86c-4.8-5.6-10-10.12-21.25-11.52-7.86-1-17.81-.2-25,3.16s-12.31,9.32-16.06,15.74a33.46,33.46,0,0,0-3.92,19.09c.56,5.66,3.06,9.2,7.1,13.91,1.12-1.13,2.17-2.25,3.81-2.42a8,8,0,0,1,4.55,1.1"/><path class="cls-17" d="M153.45,239.81h0a.57.57,0,0,1-.42-.2c-3.73-4.35-6.64-8.16-7.24-14.23a33.87,33.87,0,0,1,4-19.44c4.44-7.6,9.92-13,16.31-16,7.91-3.71,18.26-4.09,25.3-3.21,12,1.5,17.24,6.61,21.62,11.72a17.17,17.17,0,0,1,4,8.13.58.58,0,0,1-.38.64l-4.12,1.45c-10.7,3.78-21.67,7.65-34.11,7.65a59.34,59.34,0,0,1-13.35-1.52c1,9.23-.49,15.49-2.71,23.23a.58.58,0,0,1-.32.37.57.57,0,0,1-.48,0,7.55,7.55,0,0,0-4.24-1c-1.38.15-2.28,1.06-3.33,2.12l-.14.14a.57.57,0,0,1-.41.17m31.26-52.3c-5.91,0-12.64.92-18.15,3.5-6.17,2.9-11.49,8.11-15.8,15.51a33.14,33.14,0,0,0-3.85,18.75c.51,5.09,2.53,8.36,6.56,13.12a6.15,6.15,0,0,1,3.72-2.15,7.74,7.74,0,0,1,4.24.86c2.14-7.54,3.52-13.74,2.39-22.95a.58.58,0,0,1,.71-.63c18.28,4.45,33.19-.82,47.6-5.91l3.66-1.29a16.27,16.27,0,0,0-3.68-7.1c-4.23-4.94-9.33-9.88-20.89-11.33a53.2,53.2,0,0,0-6.52-.39"/><path class="cls-1" d="M290.35,237.54a9,9,0,0,1,1.76-5.93,23.23,23.23,0,0,0,2.43-3.13c.6-1.18.61-2.84-.46-3.62a3,3,0,0,0-2.41-.33c-2.14.45-3.88,2-5.42,3.55a12.27,12.27,0,0,0-2.46,3.24,10.44,10.44,0,0,0-.84,3.53,4.53,4.53,0,0,0,.21,2.22,4.59,4.59,0,0,0,2.31,2,5.13,5.13,0,0,0,3.12.73,2.18,2.18,0,0,0,1.75-2.29"/><path class="cls-18" d="M192.88,258a7.75,7.75,0,0,1-.8,0,10.41,10.41,0,0,1-6.67-3.47.58.58,0,0,1,.86-.77,9.27,9.27,0,0,0,5.93,3.1A4.76,4.76,0,0,0,196.8,255a.58.58,0,1,1,1,.63,5.67,5.67,0,0,1-4.89,2.38"/><path class="cls-18" d="M180.9,232.55a1.8,1.8,0,1,1,2.06,1.39,1.76,1.76,0,0,1-2.06-1.39"/><path class="cls-18" d="M286.9,263.39a.58.58,0,0,1-.58-.57,83.43,83.43,0,0,0-2.72-19.69l-.17-.65c-.91-3.43-1.94-7.32-.53-10.79a15.62,15.62,0,0,1,4.59-5.57,8.82,8.82,0,0,1,4-2.35c1.68-.32,3.76.53,4.19,2.3s-.88,3.2-2,4.44c-.21.23-.42.45-.62.68a8.83,8.83,0,0,0-1,9.86.58.58,0,1,1-1,.56,10,10,0,0,1,1.16-11.19c.2-.23.42-.47.64-.7,1-1.08,2.05-2.2,1.77-3.38s-1.73-1.65-2.86-1.44a7.92,7.92,0,0,0-3.47,2.08,14.47,14.47,0,0,0-4.27,5.13c-1.27,3.1-.33,6.64.58,10.05l.17.65a84.58,84.58,0,0,1,2.76,20,.58.58,0,0,1-.57.59Z"/><path class="cls-18" d="M206.53,226.51a1.8,1.8,0,1,1,2.06,1.39,1.76,1.76,0,0,1-2.06-1.39"/><path class="cls-18" d="M201.33,244a.58.58,0,0,1-.35-1l2.06-1.59c.23-.18.29-.25.3-.29a1.83,1.83,0,0,0-.38-.33,11.11,11.11,0,0,1-4.53-8.62.58.58,0,0,1,1.15,0,10,10,0,0,0,4.06,7.72,1.35,1.35,0,0,1,.1,2.45l-2.06,1.59a.58.58,0,0,1-.35.12"/><path class="cls-18" d="M189.63,229.92a.58.58,0,0,1-.49-.88,8.6,8.6,0,0,1,6.74-3.87c1.64-.07,3.51.55,4,2.13a.58.58,0,1,1-1.11.32c-.26-.92-1.61-1.35-2.8-1.29a7.42,7.42,0,0,0-5.82,3.33.57.57,0,0,1-.49.27"/><path class="cls-18" d="M162.42,237.71a.58.58,0,0,1-.18-1.12l7.91-2.63a.58.58,0,0,1,.36,1.09l-7.91,2.63-.18,0"/><path class="cls-1" d="M167.53,374.44c-1.28-15.25-2.57-26.13-3.85-41.38-1.85,10.34-7.44,30.66-9.74,41.71,21.92.7,36.2,1.4,55.14,3.83a26.86,26.86,0,0,0-8.24,10.79c-1.67,4.12-2.22,8.59-2.66,13-23.38-.78-46.37-1.18-69.31-.44-2.57.08-5.3.14-7.49-1.19a8.92,8.92,0,0,1-3.5-4.5c-1.92-4.94-.75-10.48.45-15.64,3.53-15.31,10.37-44.36,16.66-58.76,2.71-6.21,6-12.28,10.66-17.18,9.79-10.24,24.35-14,38.42-17.36.61,3.51,4.31,5.59,7.79,6.35a15.79,15.79,0,0,0,9.34-.53c2.93-1.21,5.39-3.76,6.8-8,10.78-1,17.6-.94,22.35-.25,6.28.91,12.38,5.48,16.59,10.08,8.76,9.56,13.31,17.6,22.52,28.68,7.92-20,12.51-41.38,12.1-63.7,2,4.53,27.28,4.09,30-3.1-1.77,26.59-3.6,53.48-11.68,78.88-2.6,8.17-5.93,16.3-11.51,22.81s-13.74,11.25-22.31,11-14.06-2.59-19.59-13.18a17.37,17.37,0,0,0-2.37,4.8c-.06,11.34,1,24.56,1.16,35.69-25.27,4-51.79.61-77.18-1-.06-7.51.05-15-.49-21.49"/><path class="cls-6" d="M223.38,413.83c-1.3,0-2.38-1.12-3.07-3.18l-.12-.36c-.78-2.33-1.59-4.74-3.19-6.52a14.24,14.24,0,0,0-7-3.87,47.35,47.35,0,0,0-10.24-1.16c-.91,0-1.69-.06-2.25-.11a.58.58,0,1,1,.1-1.15c.53,0,1.3.07,2.19.1a48.3,48.3,0,0,1,10.5,1.2,15.36,15.36,0,0,1,7.57,4.21c1.77,2,2.61,4.48,3.43,6.92l.12.36c.25.75,1,2.5,2.09,2.39a1,1,0,0,0,.74-.41,4.19,4.19,0,0,0,.51-2.85,27.12,27.12,0,0,0-3.44-10.13.58.58,0,1,1,1-.58,28.3,28.3,0,0,1,3.59,10.57,5.22,5.22,0,0,1-.76,3.71,2.19,2.19,0,0,1-1.54.84h-.21"/><path class="cls-6" d="M228.45,415.86a2.75,2.75,0,0,1-1.61-.57c-.44-.34-1.52-1.49-2-5a.58.58,0,1,1,1.14-.17c.38,2.51,1.1,3.85,1.6,4.23a1.3,1.3,0,0,0,1.39.2,2.18,2.18,0,0,0,.66-1.46,27.5,27.5,0,0,0-2.44-16.63.58.58,0,0,1,.79-.76,13.17,13.17,0,0,1,5.67,6.73,30.64,30.64,0,0,1,1.84,8.52,4.11,4.11,0,0,0,.35,1.55,1,1,0,0,0,.88.56c.47-.08.76-.78.92-1.34a18.89,18.89,0,0,0-3.83-17.66.58.58,0,1,1,.87-.76,20,20,0,0,1,4.07,18.74c-.36,1.29-1,2-1.84,2.16a2.09,2.09,0,0,1-2.09-1.14,5.08,5.08,0,0,1-.49-2,29.61,29.61,0,0,0-1.76-8.22,13.05,13.05,0,0,0-3.54-5.05,28.36,28.36,0,0,1,1.73,15.47,3.12,3.12,0,0,1-1.17,2.23,2,2,0,0,1-1.1.32"/><path class="cls-6" d="M245.86,410.31h-.2a2.26,2.26,0,0,1-1.49-1.12l0-.06-1.78-2.52a69.71,69.71,0,0,0-5.07-6.68.58.58,0,0,1,.86-.77,71.51,71.51,0,0,1,5.15,6.78l1.78,2.51.07.1c.11.17.37.57.67.61a1.07,1.07,0,0,0,.72-.35,4.12,4.12,0,0,0,.37-2.45c-1.2-6.88-5.95-12.09-12.71-17.78a21.71,21.71,0,0,0-6.39-3.93,31.44,31.44,0,0,0-7.08-1.42c-2.7-.33-5.46-.58-8.13-.83s-5.45-.5-8.17-.83a.58.58,0,0,1,.14-1.14c2.7.33,5.46.58,8.13.83s5.45.5,8.17.83a32.28,32.28,0,0,1,7.34,1.48,22.81,22.81,0,0,1,6.74,4.13c6.95,5.86,11.83,11.24,13.1,18.46.13.72.1,2.76-.73,3.5a2.16,2.16,0,0,1-1.44.65"/><path class="cls-18" d="M239.94,366.12a.58.58,0,0,1-.46-.93c4.32-5.66,8.62-11.45,12.78-17.21a3.13,3.13,0,0,0,.56-4L241,315.34a.58.58,0,0,1,1.06-.44l11.84,28.65a4.2,4.2,0,0,1-.69,5.11c-4.17,5.77-8.48,11.57-12.8,17.23a.58.58,0,0,1-.46.23"/><path class="cls-6" d="M198.16,403h0c-28-.94-49.41-1.08-69.28-.44-2.41.08-5.42.17-7.81-1.28a9.55,9.55,0,0,1-3.74-4.78c-2-5.28-.68-11.21.42-16,2.76-12,10.1-43.76,16.69-58.86,3.38-7.74,6.7-13.09,10.77-17.35,9.6-10,23.21-13.88,38.7-17.52a.57.57,0,0,1,.7.46c.57,3.28,4.17,5.2,7.34,5.89a15.4,15.4,0,0,0,9-.5c3-1.23,5.22-3.86,6.47-7.6a.58.58,0,0,1,.49-.39c10.18-.92,17.32-1,22.49-.25,7.83,1.14,14.45,7.55,16.93,10.26a172.81,172.81,0,0,1,12.35,15.47c2.87,3.9,5.82,7.93,9.57,12.48,8.15-20.91,12.08-42,11.71-62.57a.58.58,0,0,1,1.12-.19c.53,1.61,4.69,2.69,10.39,2.69h.17c8.11,0,17.18-2.2,18.32-5.79a.58.58,0,0,1,1.12.21c-1.75,26.26-3.56,53.41-11.71,79-2.23,7-5.56,15.94-11.62,23-6.21,7.25-14.72,11.45-22.77,11.22-8.47-.24-14.4-2.55-19.6-13.69a.58.58,0,0,1,1-.49c5,10.65,10.37,12.79,18.59,13,7.69.21,15.87-3.83,21.86-10.81s9.2-15.72,11.4-22.61c7.88-24.77,9.81-51.06,11.51-76.58-3.43,3.33-12.22,4.62-18.15,4.64-2,0-7.91-.14-10.51-2,.15,20.54-3.94,41.48-12.16,62.27a.58.58,0,0,1-1,.16c-4.07-4.89-7.21-9.16-10.24-13.29a171.92,171.92,0,0,0-12.27-15.38c-2.4-2.61-8.78-8.81-16.24-9.89-5-.73-12-.66-21.85.22-1.39,3.88-3.8,6.63-7,7.95a16.29,16.29,0,0,1-9.69.56c-3.35-.73-7.14-2.74-8.1-6.22-15.08,3.56-28.3,7.37-37.57,17.06-4,4.15-7.22,9.4-10.55,17-6.55,15-13.87,46.72-16.63,58.65-1.07,4.61-2.39,10.35-.47,15.31a8.42,8.42,0,0,0,3.26,4.21c2.1,1.27,4.8,1.18,7.18,1.11,19.69-.63,40.84-.51,68.48.41-1-3.28.15-8.79,1.79-12.84l.13-.32c1.41-3.49,3.11-7.71,7.37-9.76-17.11-2.11-30.42-2.81-52.68-3.53a.58.58,0,0,1-.55-.69c1-4.84,2.62-11.34,4.33-18.22,2.15-8.69,4.38-17.67,5.42-23.47a.57.57,0,0,1,.59-.47.58.58,0,0,1,.55.53c.64,7.62,1.29,14.26,1.92,20.68s1.28,13.07,1.93,20.69a.56.56,0,0,1-.06.31c15.4.64,26.78,1.49,41.1,3.33a.58.58,0,0,1,.06,1.13c-5.44,1.33-7.28,5.88-8.9,9.9l-.13.32c-1.75,4.33-2.83,10.1-1.49,12.75a.58.58,0,0,1-.52.84m-43.52-28.76c4.44.14,8.52.29,12.36.44a.58.58,0,0,1,0-.17c-.64-7.62-1.29-14.26-1.92-20.68-.52-5.26-1-10.67-1.58-16.64-1.18,5.55-2.93,12.64-4.64,19.54-1.62,6.56-3.16,12.77-4.17,17.51"/><path class="cls-6" d="M210.46,382h-.08a.58.58,0,0,1-.49-.65,2.52,2.52,0,0,0-.45-1.83c-.18-.25-.4-.38-.5-.35a.58.58,0,0,1-.3-1.11,1.67,1.67,0,0,1,1.74.79,3.68,3.68,0,0,1,.66,2.67.58.58,0,0,1-.57.49"/><path d="M199.58,403.51a2.24,2.24,0,0,1-2.15-1.26.58.58,0,0,1,1.07-.43,1.21,1.21,0,0,0,1.25.53,4.72,4.72,0,0,0,2.57-1.57,25.31,25.31,0,0,0,2.22-2.53.58.58,0,1,1,.91.7,26.35,26.35,0,0,1-2.32,2.65,5.71,5.71,0,0,1-3.25,1.9l-.3,0"/><path d="M281.46,260.44a.58.58,0,0,1-.57-.52,1.85,1.85,0,0,1,.43-1.34,3.55,3.55,0,0,1,.9-.76,9.91,9.91,0,0,1,4.3-1.48.58.58,0,1,1,.11,1.15,8.74,8.74,0,0,0-3.8,1.31,2.52,2.52,0,0,0-.62.5.73.73,0,0,0-.18.5.58.58,0,0,1-.52.63h-.06"/><path d="M311.45,257.7h0a.58.58,0,0,1-.56-.59.46.46,0,0,0-.18-.31,1.79,1.79,0,0,0-.59-.29,5.84,5.84,0,0,0-2-.28.58.58,0,0,1,0-1.15,6.88,6.88,0,0,1,2.38.33,2.87,2.87,0,0,1,1,.5,1.57,1.57,0,0,1,.59,1.22.58.58,0,0,1-.58.56"/><path class="cls-18" d="M193.1,300.24A14.22,14.22,0,0,1,180.84,293a.58.58,0,0,1,1-.55A13,13,0,0,0,194.1,299a.58.58,0,1,1,.1,1.15c-.36,0-.73,0-1.09,0"/><path class="cls-18" d="M181.28,300.95a.59.59,0,0,1-.21,0,7.32,7.32,0,0,1-4.46-5.36.58.58,0,0,1,1.13-.21,6.14,6.14,0,0,0,3.74,4.5.58.58,0,0,1-.21,1.11"/><path d="M266.13,329.66a.58.58,0,0,1-.45-.93,23.38,23.38,0,0,0,3.86-6.87.58.58,0,1,1,1.08.39,24.46,24.46,0,0,1-4,7.19.58.58,0,0,1-.46.22"/><path d="M145.58,376a.58.58,0,0,1-.09-1.15,55.12,55.12,0,0,1,10.92-.58.58.58,0,0,1,.56.6.56.56,0,0,1-.6.56,53.94,53.94,0,0,0-10.71.57h-.09"/><path class="cls-18" d="M162.67,244a.58.58,0,0,1-.55-.4,17.09,17.09,0,0,1-.69-6.9.58.58,0,1,1,1.15.12,15.94,15.94,0,0,0,.64,6.43.58.58,0,0,1-.38.72l-.17,0"/><path class="cls-19" d="M172.35,183.22a3.75,3.75,0,0,0-1.79.13,24.59,24.59,0,0,0-2.77.82,34.14,34.14,0,0,0-14,9.27c-1,1.1-1.89,2.3-2.82,3.47a5.62,5.62,0,0,0-1.33,2.38,2.14,2.14,0,0,0,4,1.37,33,33,0,0,1,9-9.18,23.21,23.21,0,0,1,6.59-3.3c.82-.32,1.65-.6,2.5-.84a2.56,2.56,0,0,0,1.87-1.12,2.08,2.08,0,0,0-1.23-3"/><g class="cls-20"><g class="cls-21"><path d="M209.28,210.19a1.63,1.63,0,0,0-1.74-.34c-.21.06-1.27.46-1.5.56-1.64.62-3.26,1.31-4.95,1.81a92.83,92.83,0,0,1-9.77,2.53,63.82,63.82,0,0,1-12.39,1.31,39.06,39.06,0,0,1-12.15-2c-.76-.17-1.62-.68-2.37-.26a1.27,1.27,0,0,0,.3,2.3c5,1.46,10.06,2.93,15.31,2.77a74.3,74.3,0,0,0,9.13-.65c2.4-.4,4.76-1,7.12-1.56a109,109,0,0,0,10.62-3.05c.56-.19,1.11-.43,1.66-.66a1.84,1.84,0,0,0,.85-.61,1.57,1.57,0,0,0-.12-2.09"/></g></g><g class="cls-20"><g class="cls-22"><path d="M205.4,278.74c-.17-.63-.35-1.25-.53-1.88a22.4,22.4,0,0,1-1-3.57L203,269.9a.46.46,0,0,1,0-.34l-.09-.25a.45.45,0,0,1,.18-.57c-.79-.56-1.81.2-2.66.59a12.24,12.24,0,0,1-2.6.89c-1.06.29-4.45.44-5.43.65a1.11,1.11,0,0,0-.71.57l-1.76-.76-1.14-.51c-.91,0-1.81,0-2.72-.11,0,.11,0,.22,0,.33a2,2,0,0,1,0,.41c0,.1-.05.2-.08.29-.12.37-.25.73-.36,1.1a1.66,1.66,0,0,0,.25.18c3.38,1.71,6.85,3.25,10.17,5.08,1.65.92,3.32,1.82,5,2.7a10.78,10.78,0,0,0,2.24.94h0l.09,0,.18,0,.27,0h0a1.63,1.63,0,0,0,.46-.05,1.54,1.54,0,0,0,1.12-1.11,1.29,1.29,0,0,0,.23-.38c-.08-.3-.15-.6-.23-.89"/></g></g><g class="cls-20"><g class="cls-23"><path d="M278.46,364.61c-.71-.08-.53.07-1,.2a16.67,16.67,0,0,1-6.43.82,23.7,23.7,0,0,1-9-2,15.85,15.85,0,0,1-1.41-.77c-.29-.16-1.33-.93-1.62-1.13a13.68,13.68,0,0,1-2.21-2.11l0,0a43.46,43.46,0,0,1-3.49-6.63l-.08-.19a6.45,6.45,0,0,0-.67-1.6,1.69,1.69,0,0,0-.62-.53l-.57.61a.57.57,0,0,1-.18.33l-.66.63a54.14,54.14,0,0,0-3.33,4.39,1.34,1.34,0,0,0,.18.51,27,27,0,0,0,1.92,2.72c1.59,3.48,3.84,6.77,7.64,7.86a49.41,49.41,0,0,0,7.81,1.38,35.38,35.38,0,0,0,4.76-.22c1.18,0,2.37-.09,3.55-.05a7.2,7.2,0,0,0,2.15-.16,1.39,1.39,0,0,0,.88-1.4,13.24,13.24,0,0,0,1.7-.53c.4-.2.91-.26,1.19-.63a.94.94,0,0,0-.49-1.48"/></g></g><g class="cls-20"><g class="cls-24"><path d="M302.27,262.06h0"/></g></g><g class="cls-20"><g class="cls-25"><path d="M311.43,256.86a1.29,1.29,0,0,0-.88-.88,1.15,1.15,0,0,0-.26,0,1.06,1.06,0,0,0-1.75-.43A15.85,15.85,0,0,1,307,257.2l-.43.41a30.22,30.22,0,0,1-3,.95,22.59,22.59,0,0,1-4.11,1.2c-1.6.24-1.75.24-3.72.44a33.44,33.44,0,0,1-5,.43,17.61,17.61,0,0,1-3.77-.46H287a1.51,1.51,0,0,0-.35-1.22l0,0a1.41,1.41,0,0,0-2-2,7.51,7.51,0,0,1-1.29.91,2.78,2.78,0,0,0-1,.85,1.24,1.24,0,0,0-.07.16h-.16a1.21,1.21,0,0,0-.45,2.23,19.44,19.44,0,0,0,8.52,2.23c1,0,2-.16,3-.15a28.85,28.85,0,0,0,2.91-.07c2-.22,4-.61,6-1h.09l-.23,0,.25,0h0a13.86,13.86,0,0,0,2.74-.56c2.57-.9,5.25-1.94,5.94-3.14a3.45,3.45,0,0,0,.33-.53h0a1.28,1.28,0,0,0,.13-1"/></g></g><g class="cls-20"><g class="cls-26"><path d="M308,234.42a1.08,1.08,0,0,0-1.35-.9c-.69.19-.84,1-1.19,1.49-.16.28-.34.55-.51.81-.24.09-.2.18-.56.42l-.07.05a11.48,11.48,0,0,1-1.32,1,5,5,0,0,1-.65.35,6.58,6.58,0,0,1-2,.3c-1.46,0-1.88-.4-4-.43-.48,0-1,.1-1.45.1a4.27,4.27,0,0,1-1.5-.73l0,0c-.49-.39-.77-1-1.37-1.26a1.54,1.54,0,0,0-1.68,2.5,6.92,6.92,0,0,0,4.4,2.62h0a5,5,0,0,0,.52,0,10.45,10.45,0,0,1,3,.23c1,.14.56.15,2.09.31a5.76,5.76,0,0,0,2.39-.59,9,9,0,0,0,2.48-1.71,1.16,1.16,0,0,0,.29-.21l.25-.32,0,0a3.27,3.27,0,0,0,.89-1.18,9.84,9.84,0,0,0,.85-1.36c.19-.46.55-.94.47-1.46"/></g></g><g class="cls-20"><g class="cls-27"><path d="M304.38,236.26h0c.21-.16.3-.23,0,0"/></g></g><g class="cls-20"><g class="cls-28"><path d="M294.62,240.69l-.22,0,.22,0"/></g></g><g class="cls-20"><g class="cls-29"><path d="M294.76,240.71l-.14,0,.14,0"/></g></g><g class="cls-20"><g class="cls-30"><path d="M293.44,220.21a1.23,1.23,0,0,0-1.78-.73c-.68.47-.85,1.51-1.42,2.13-.76.85-4.38,4.12-5.71,6a1.18,1.18,0,0,0,1.92,1.3,57.81,57.81,0,0,1,5-5.11,8.17,8.17,0,0,0,1.71-2.45,1.52,1.52,0,0,0,.24-1.18"/></g></g><g class="cls-20"><g class="cls-31"><path d="M211.11,380a1.87,1.87,0,0,0-1.56-.72,16,16,0,0,0-2.92-.09,1.8,1.8,0,0,0-1.34.46,1.41,1.41,0,0,0-.37,1.46,12.36,12.36,0,0,0-1.3,1.22,24.87,24.87,0,0,0-4.68,8,28.72,28.72,0,0,0-1,4.32c-.54,2.76-.7,5.23.07,7,1.14,1.88,3.16.93,4.49-.19l.61-.46c.74-.52,1.3-1.29.81-2.2a1.56,1.56,0,0,0-1.67-.65c-.58,0-1.23,0-1.66.42a1.7,1.7,0,0,0-.28.42l0-.13v-.08a11.73,11.73,0,0,1,.46-4,22.2,22.2,0,0,1,2.57-7,17.57,17.57,0,0,1,3.28-4.49c1-.8.5-.54,1.5-1,.4-.17.87-.23,1.27-.41l.66-.05H210a1.25,1.25,0,0,0,1.06-1.87"/></g></g><g class="cls-20"><g class="cls-32"><path d="M159.93,344.44c-1,0-1.14,1.18-1.38,1.94-.45,1.57-.82,3.17-1.29,4.74a77.52,77.52,0,0,1-3.94,10.71c-.37,1-2.81,5.88-4.09,8.21-.38.71-.75,1.42-1.16,2.1a3.13,3.13,0,0,0-.64,1.44,2,2,0,0,0,.3,1.46,24.25,24.25,0,0,1,4.7-.37,1.21,1.21,0,0,0,.27-.22c1.94-1.62,2.68-4.17,3.25-6.54.16-.64.28-1.28.41-1.92a1.42,1.42,0,0,0-.06-1.15,1.07,1.07,0,0,0-.43-.41c1.1-3.19,2.14-6.4,3.18-9.61a67.43,67.43,0,0,0,1.56-7.16,14.63,14.63,0,0,0,.38-2.28,1.07,1.07,0,0,0-1.06-.94"/></g></g><g class="cls-20"><g class="cls-33"><path d="M214.7,401.58c-1.68-.65-3.73-2.08-6.58-2.33l.23,0a5,5,0,0,0-.87,0,3.76,3.76,0,0,0-2.1.58c-1.27,1-2.68,2.76-3.07,2.82l0,0a5.25,5.25,0,0,1-.55.3,7.22,7.22,0,0,1-1.17.31,39.8,39.8,0,0,1-5.94-.38c-2.07-.22-4.16-.23-6.24-.37-2.34-.15-4.68-.41-7-.61-4.19-.49-8.41-.34-12.62-.55-3.34-.24-6.67,0-10-.11-5.74,0-11.68.24-17.41.59-3.84.33-12.17.65-15.49-.4-.9-.16-1.83-.89-2.72-.42a1.26,1.26,0,0,0,.3,2.28,31.27,31.27,0,0,0,8.1,1.82,59.74,59.74,0,0,0,10.3.19c3.24-.24,6.5-.19,9.74-.37A90.34,90.34,0,0,1,162,405c2.09,0,4.18,0,6.27.08,2.95.15,5.9.07,8.85.17,4.07.25,8.12.71,12.18.92,2,.09,3.94.11,5.89.34,2.63.29,5.41.46,7.92-.55,1.67-.56,2.74-2,3.92-3.23h.12a16.24,16.24,0,0,1,2.44.55,17.91,17.91,0,0,1,8.31,4.52,4.09,4.09,0,0,1,1.07,1.4,1.92,1.92,0,0,0,.64.93,1.66,1.66,0,0,0,2.66-1.3c-.46-3-5.05-5.92-7.6-7.24"/></g></g><path class="cls-34" d="M244,360.35s.38,37.49,1.23,39.28"/></g></svg>