<svg xmlns="http://www.w3.org/2000/svg" xmlns:xlink="http://www.w3.org/1999/xlink" viewBox="122.72 109.37 331 296.84"><defs><style>.cls-1,.cls-4{fill:#fff;}.cls-2{fill:#5ae4a7;}.cls-3{fill:#f7dc6b;}.cls-4,.cls-6,.cls-7{fill-rule:evenodd;}.cls-5{fill:#182e35;}.cls-6{fill:#8b97cb;}.cls-7,.cls-8{fill:#35b995;}.cls-9{clip-path:url(#clip-path);}</style><clipPath id="clip-path"><path class="cls-1" d="M371.92,149.76l-7.05-4.49a2.27,2.27,0,0,0-3.13.7h0a2.27,2.27,0,0,0,.7,3.13l8.84,5.62a2.27,2.27,0,0,0,3-.57l16.32-22.08a2.27,2.27,0,0,0-.48-3.17h0a2.27,2.27,0,0,0-3.17.48Z"/></clipPath></defs><title>morut new</title><g id="Character"><path class="cls-2" d="M444,291.57c-10.49,28.09-31.92,58.49-62.07,67.49-45.56,13.6-51,50.33-132.61,46.93a164.66,164.66,0,0,1-35.29-5.17,137.08,137.08,0,0,1-16.59-5.52C149.79,376,124.92,333.48,122.85,289c-2.73-58.49,38.08-86.36,64.6-102.69s58.49-79.57,138.74-76.85a159.56,159.56,0,0,1,36.27,5.3c27,7.31,54.45,23.47,70.41,47.1q1.8,2.66,3.43,5.44C457.66,203.54,458.33,253.27,444,291.57Z"/><path class="cls-3" d="M444,291.57c-10.49,28.09-31.92,58.49-62.07,67.49-45.56,13.6-51,50.33-132.61,46.93a164.66,164.66,0,0,1-35.29-5.17,137.08,137.08,0,0,1-16.59-5.52C149.79,376,124.92,333.48,122.85,289c-2.73-58.49,38.08-86.36,64.6-102.69s58.49-79.57,138.74-76.85a159.56,159.56,0,0,1,36.27,5.3c27,7.31,54.45,23.47,70.41,47.1q1.8,2.66,3.43,5.44C457.66,203.54,458.33,253.27,444,291.57Z"/><path class="cls-4" d="M378.61,128.21H193.17a14.3,14.3,0,0,0-14.3,14.3V380.43a7,7,0,0,0,7,7h200.1a7,7,0,0,0,7-7V142.51A14.3,14.3,0,0,0,378.61,128.21Z"/><path class="cls-5" d="M378.61,126.34H291.37c-32.44,0-64.92-.45-97.36,0-8.65.12-16.11,5.84-16.95,14.79-.22,2.34-.07,4.75-.07,7.1V364.44c0,6.49-2.37,19.63,4.38,23.62,2.82,1.66,6.52,1.21,9.67,1.21H377.18c7.8,0,17.37.87,17.61-10,.22-10.38,0-20.78,0-31.16V149c0-4.47.43-9.12-1.52-13.28-2.74-5.83-8.33-9.07-14.65-9.37-2.41-.11-2.41,3.64,0,3.75,15.52.74,12.42,19.19,12.42,30.38v208.7c0,3.35.21,6.79,0,10.14-.17,2.65-.71,4.91-3.81,5.86a9.24,9.24,0,0,1-2.82.35c-11.07.48-22.27,0-33.35,0H190.38c-4.08,0-8.95.64-9.63-5.11a54.11,54.11,0,0,1,0-6.22V213.25c0-23.51-1-47.26,0-70.75.67-15.7,19.9-12.42,30.57-12.42H378.61A1.88,1.88,0,0,0,378.61,126.34Z"/><path class="cls-5" d="M378.61,128.21H193.17a14.3,14.3,0,0,0-14.3,14.3v37.3h214v-37.3A14.3,14.3,0,0,0,378.61,128.21Z"/><path class="cls-6" d="M369.13,198.49H195.84c-.91,0-1.66,1-1.66,2.31h0c0,1.27.74,2.31,1.66,2.31H369.13c.92,0,1.66-1,1.66-2.31h0C370.79,199.53,370,198.49,369.13,198.49Z"/><path class="cls-6" d="M369.13,214.51H195.84c-.91,0-1.66,1-1.66,2.31h0c0,1.27.74,2.31,1.66,2.31H369.13c.92,0,1.66-1,1.66-2.31h0C370.79,215.55,370,214.51,369.13,214.51Z"/><path class="cls-6" d="M340.07,230.54H195.56c-.76,0-1.38,1-1.38,2.31h0c0,1.27.62,2.31,1.38,2.31H340.07c.76,0,1.39-1,1.39-2.31h0C341.45,231.58,340.83,230.54,340.07,230.54Z"/><path class="cls-6" d="M369.13,248.69H195.84c-.91,0-1.66,1-1.66,2.31h0c0,1.27.74,2.31,1.66,2.31H369.13c.92,0,1.66-1,1.66-2.31h0C370.79,249.73,370,248.69,369.13,248.69Z"/><path class="cls-6" d="M307,264.71H195.25c-.59,0-1.07,1-1.07,2.31h0c0,1.27.48,2.31,1.07,2.31H307c.59,0,1.07-1,1.07-2.31h0C308.08,265.75,307.6,264.71,307,264.71Z"/><path class="cls-6" d="M322.35,282.87h-127c-.67,0-1.21,1-1.21,2.31h0c0,1.27.54,2.31,1.21,2.31h127c.67,0,1.22-1,1.22-2.31h0C323.56,283.91,323,282.87,322.35,282.87Z"/><path class="cls-7" d="M195.46,144.76h32.69a1.77,1.77,0,0,1,1.76,1.76h0a1.77,1.77,0,0,1-1.76,1.76H195.46a1.77,1.77,0,0,1-1.76-1.76h0A1.77,1.77,0,0,1,195.46,144.76Z"/><path class="cls-7" d="M195.46,152.52H214a1.77,1.77,0,0,1,1.76,1.76h0A1.77,1.77,0,0,1,214,156H195.46a1.77,1.77,0,0,1-1.76-1.76h0A1.77,1.77,0,0,1,195.46,152.52Z"/><path class="cls-7" d="M220.27,152.52H223a1.77,1.77,0,0,1,1.76,1.76h0A1.77,1.77,0,0,1,223,156h-2.71a1.77,1.77,0,0,1-1.76-1.76h0A1.77,1.77,0,0,1,220.27,152.52Z"/><path class="cls-7" d="M195.46,160.57h14.21a1.77,1.77,0,0,1,1.76,1.76h0a1.77,1.77,0,0,1-1.76,1.76H195.46a1.77,1.77,0,0,1-1.76-1.76h0A1.77,1.77,0,0,1,195.46,160.57Z"/><circle class="cls-8" cx="377.2" cy="141.77" r="23.88"/><path class="cls-5" d="M399.2,141.77c-.35,12-9.77,22-22,22a22,22,0,1,1,0-44c12.24,0,21.66,10,22,22,.07,2.41,3.82,2.42,3.75,0-.31-10.65-6.5-20.18-16.58-24.06a26,26,0,0,0-29.13,7.79c-14.77,18.19,1.54,45.78,24.6,41.59,12.33-2.24,20.76-13,21.11-25.33C403,139.36,399.27,139.36,399.2,141.77Z"/><path class="cls-1" d="M371.92,149.76l-7.05-4.49a2.27,2.27,0,0,0-3.13.7h0a2.27,2.27,0,0,0,.7,3.13l8.84,5.62a2.27,2.27,0,0,0,3-.57l16.32-22.08a2.27,2.27,0,0,0-.48-3.17h0a2.27,2.27,0,0,0-3.17.48Z"/><g class="cls-9"><rect class="cls-1" x="357.45" y="124.03" width="37.61" height="35.36" rx="2.27" ry="2.27" transform="matrix(0.97, -0.25, 0.25, 0.97, -23.64, 100.09)"/></g></g></svg>