<svg xmlns="http://www.w3.org/2000/svg" viewBox="50.69 101.57 479.1 279.31"><defs><style>.cls-1{fill:#f7dc6b;}.cls-12,.cls-2,.cls-8,.cls-9{fill:#fff;}.cls-3{fill:#192e35;}.cls-4{fill:#00a98c;}.cls-5{fill:#182e35;}.cls-10,.cls-11,.cls-6{fill:none;}.cls-10,.cls-11,.cls-12,.cls-6,.cls-8,.cls-9{stroke:#182e35;}.cls-10,.cls-11,.cls-6,.cls-8,.cls-9{stroke-linecap:round;}.cls-10,.cls-11,.cls-12,.cls-6,.cls-8{stroke-miterlimit:10;}.cls-12,.cls-6,.cls-8,.cls-9{stroke-width:1.92px;}.cls-7{opacity:0.8;}.cls-8{stroke-dasharray:8.96;}.cls-9{stroke-linejoin:round;}.cls-10{stroke-width:0.96px;}.cls-11{stroke-width:2.87px;}.cls-13{fill:#35b995;}.cls-14{opacity:0.4;}.cls-15{fill:#74c69c;}</style></defs><title>morut</title><g id="Layer_7" data-name="Layer 7"><path class="cls-1" d="M485.23,270.48a72,72,0,0,0-38.15-37.27c-17.54-7.1-37.67-4.52-56.14-6.89-16-2.07-27.62-9.23-37.19-22-9.18-12.2-17.41-25.71-32.41-31.35-11.86-4.46-25.34-3.22-37.12,1.42-21.71,8.56-38.12,26.77-51.93,44.9-12.61,16.56-22.9,34.69-46.22,35.28S140.5,241.89,117,245.42c-31.06,4.66-56.93,30.52-62.35,61.3-5.08,28.85,7.67,56.83,29.57,73.27H460.65c27.6-29.27,42.08-69.72,24.58-109.51"/><path class="cls-2" d="M144.94,380h1a79.42,79.42,0,0,0,16.41-28.14c5.8-17.23,5.55-35.32-.69-50.92-3.15-7.89-7.71-15.24-12.11-22.35s-9.08-14.66-12.22-22.65a50.55,50.55,0,0,1-2.83-10.47l-.78-.09a51.24,51.24,0,0,0,2.9,10.84c3.16,8.05,7.8,15.54,12.28,22.77,4.39,7.08,8.92,14.4,12.05,22.23,6.17,15.44,6.41,33.34.67,50.4A78.56,78.56,0,0,1,144.94,380"/><path class="cls-2" d="M458.83,347.17c7.76,1.65,15.23,3.13,22.46,4.07l.37-.72c-7.29-.93-14.83-2.42-22.67-4.09-11.93-2.54-24.84-5.29-37.65-5.29A66.82,66.82,0,0,0,397.93,345a47.71,47.71,0,0,0-8.28,4c-6.85-2.92-13.74-6.11-20.56-9.61,5-3.73,10-7.38,15-10.91,37.54-26.21,72.18-41.07,105.65-45.29l-.21-.74c-33.56,4.25-68.28,19.15-105.88,45.41-5.16,3.61-10.27,7.34-15.33,11.15a253.73,253.73,0,0,1-22.59-13.13,196.79,196.79,0,0,1-43-37.71c53.58-6,108.13-13.58,152.67-43.36,1.69-1.13,3.57-2.46,5.51-4l-.65-.45c-1.86,1.44-3.65,2.71-5.28,3.8C410.5,274,355.85,281.49,302.2,287.5a147.23,147.23,0,0,1-24.57-41.77c-9.45-25-9-49.59,1.37-67.39.45-.77.92-1.53,1.41-2.29l-1.28.61c-.27.43-.53.86-.78,1.3-10.43,18-11,42.8-1.42,68a147.81,147.81,0,0,0,24.38,41.6l-9.31,1c-11.17,1.23-22.72,2.51-33.94,4-4.09.53-8.26,1.14-12.4,1.91-8.88-18.74-18.64-37-31.25-52.71l-.55.53c12.5,15.56,22.2,33.71,31,52.33-18.07,3.45-35.62,9.92-45,25-8.75,14.08-8.74,33.55,0,57.86q.45,1.26.93,2.49h.81c-.35-.9-.69-1.81-1-2.75-8.68-24.08-8.71-43.33-.09-57.2,9.26-14.9,26.71-21.29,44.68-24.7,3.14,6.63,6.16,13.32,9.17,20l.33.72c10.45,23.08,21.27,45.35,35.42,64h.94c-14.29-18.65-25.16-41.05-35.68-64.27l-.33-.72c-3-6.59-6-13.22-9.1-19.8,4.06-.75,8.15-1.35,12.16-1.87,11.21-1.44,22.76-2.72,33.93-4l9.8-1.09a197.28,197.28,0,0,0,43.45,38.24,254.2,254.2,0,0,0,22.34,13c-12.88,9.74-25.4,20-37.63,30q-6.35,5.2-12.84,10.46h1.2q6.11-5,12.11-9.88c12.32-10.07,24.93-20.4,37.9-30.19,6.79,3.49,13.63,6.67,20.45,9.59a56.42,56.42,0,0,0-21.52,26.26c-.58,1.4-1.08,2.81-1.54,4.22h.8c.44-1.32.91-2.63,1.45-3.93a55.56,55.56,0,0,1,21.66-26.19,500.14,500.14,0,0,0,53.86,18.86l.61.18c6.78,2,13.71,4.06,19.85,7.36l.51-.59c-6.23-3.38-13.27-5.46-20.15-7.5l-.61-.18a501.17,501.17,0,0,1-53.28-18.62,46.9,46.9,0,0,1,7.69-3.68c19.64-7.28,41.42-2.64,60.63,1.46"/><path class="cls-2" d="M86.12,298.14A60.64,60.64,0,0,1,82,338.68a69.81,69.81,0,0,1-16.44,21.24l.42.64A70.58,70.58,0,0,0,82.7,339,61.41,61.41,0,0,0,86.85,298c-2.64-10.83-8-20-15.31-26.63l-.49.58c7.22,6.53,12.45,15.56,15.06,26.23"/><path class="cls-3" d="M51.94,380.49h428c5.56,0,11.94.87,17.45,0a5,5,0,0,1,.75,0,1.25,1.25,0,0,0,0-2.5h-428c-5.56,0-11.94-.87-17.45,0a5,5,0,0,1-.75,0,1.25,1.25,0,0,0,0,2.5Z"/><path class="cls-4" d="M185,323.21H169.13v46.37a10,10,0,0,0,10,10h0a10,10,0,0,0,10-10V327.42A4.21,4.21,0,0,0,185,323.21Z"/><path class="cls-5" d="M185,322H169.13a1.27,1.27,0,0,0-1.25,1.25v24.18c0,7.68-1,16.09.11,23.72,1.89,12.94,21,12.4,22.38-.5.8-7.7.05-15.76.05-23.51V333.76c0-4.69,1-10.76-5.12-11.75-1.57-.25-2.25,2.15-.66,2.41,1.35.22,3,2.68,3.29,3.91a10.81,10.81,0,0,1,0,2.29v36.09c0,5.24-1.33,10.48-7.45,11.44-6.65,1-10-4.49-10.09-10.25-.17-7.82,0-15.67,0-23.49v-21.2l-1.25,1.25H185A1.25,1.25,0,0,0,185,322Z"/><path class="cls-6" d="M231.66,139a95.75,95.75,0,0,1,11.71-4.6"/><path class="cls-6" d="M221.2,134.47q2.06-1.22,4.24-2.36a92,92,0,0,1,24.47-8.95"/><path class="cls-6" d="M207.65,132.05c2.49-1.52,5.12-3,7.86-4.34q2.71-1.35,5.42-2.5"/><path class="cls-6" d="M400.61,145.32a95.75,95.75,0,0,0-11.71-4.6"/><path class="cls-6" d="M411.06,140.79q-2.06-1.22-4.24-2.36a92,92,0,0,0-24.47-8.95"/><path class="cls-6" d="M424.61,138.37c-2.49-1.52-5.12-3-7.86-4.34q-2.71-1.35-5.42-2.5"/><g class="cls-7"><path class="cls-8" d="M357.95,119.07V194.7a9.27,9.27,0,0,1-.19,1.86,9.18,9.18,0,0,1-1.39,3.3,9.26,9.26,0,0,1-4.06,3.34,9.16,9.16,0,0,1-1.73.54,9.27,9.27,0,0,1-1.86.19h-59a9.27,9.27,0,0,1-1.86-.19,9.18,9.18,0,0,1-3.3-1.39,9.25,9.25,0,0,1-3.34-4.06,9.16,9.16,0,0,1-.54-1.73,9.27,9.27,0,0,1-.19-1.86V111.76a9.27,9.27,0,0,1,.19-1.86,9.18,9.18,0,0,1,1.39-3.3,9.26,9.26,0,0,1,4.06-3.34,9.16,9.16,0,0,1,1.73-.54,9.27,9.27,0,0,1,1.86-.19h51.67Z"/><path class="cls-9" d="M357.95,119.07h-7.38a9.27,9.27,0,0,1-1.86-.19,9.18,9.18,0,0,1-3.3-1.39,9.26,9.26,0,0,1-3.34-4.06,9.16,9.16,0,0,1-.54-1.73,9.27,9.27,0,0,1-.19-1.86v-7.31Z"/><line class="cls-10" x1="289.67" y1="120.62" x2="319.2" y2="120.62"/><line class="cls-10" x1="289.67" y1="128.77" x2="348.72" y2="128.77"/><line class="cls-10" x1="289.67" y1="136.93" x2="348.72" y2="136.93"/><line class="cls-10" x1="289.67" y1="145.08" x2="348.72" y2="145.08"/><line class="cls-10" x1="289.67" y1="153.23" x2="348.72" y2="153.23"/><line class="cls-10" x1="289.67" y1="161.38" x2="348.72" y2="161.38"/><line class="cls-10" x1="289.67" y1="169.54" x2="348.72" y2="169.54"/><line class="cls-10" x1="289.67" y1="177.69" x2="348.72" y2="177.69"/><line class="cls-11" x1="333.96" y1="190.94" x2="348.72" y2="190.94"/></g><rect class="cls-12" x="107.73" y="252.53" width="101.4" height="77.51" rx="8.67" ry="8.67" transform="translate(-132.85 449.71) rotate(-90)"/><rect class="cls-12" x="115.89" y="244.37" width="101.4" height="77.51" rx="8.67" ry="8.67" transform="translate(-116.54 449.71) rotate(-90)"/><line class="cls-10" x1="137.06" y1="250.52" x2="166.59" y2="250.52"/><line class="cls-10" x1="137.06" y1="258.67" x2="196.11" y2="258.67"/><line class="cls-10" x1="137.06" y1="266.82" x2="196.11" y2="266.82"/><line class="cls-10" x1="137.06" y1="274.98" x2="196.11" y2="274.98"/><line class="cls-10" x1="137.06" y1="283.13" x2="196.11" y2="283.13"/><line class="cls-10" x1="137.06" y1="291.28" x2="196.11" y2="291.28"/><line class="cls-10" x1="137.06" y1="299.43" x2="196.11" y2="299.43"/><line class="cls-10" x1="137.06" y1="307.59" x2="196.11" y2="307.59"/><line class="cls-11" x1="181.35" y1="320.83" x2="196.11" y2="320.83"/><path class="cls-13" d="M169.13,369.58V317.24a4.22,4.22,0,0,0-4.22-4.22h-30a5.41,5.41,0,0,1-4.06-1.84l-12.07-13.72A4.21,4.21,0,0,0,115.6,296H79.92a4.21,4.21,0,0,0-4.21,4.21v69.34a10,10,0,0,0,10,10h93.41A10,10,0,0,1,169.13,369.58Z"/><path class="cls-5" d="M170.38,369.58V333.68c0-5.25.29-10.6,0-15.84-.33-6-5-6.07-9.77-6.07h-19c-2.11,0-4.58.36-6.67,0-3.55-.61-5.81-4.4-8-6.87-3.1-3.52-6.5-9.53-11.51-10.11-5.73-.67-11.93,0-17.69,0s-11.76-.48-17.52,0c-6.95.58-5.77,7.43-5.77,12.55v46c0,6-1.21,13.35.4,19.21,1.93,7,8.26,8.27,14.52,8.27h89.77a1.25,1.25,0,0,0,0-2.5,9,9,0,0,1-8.77-8.77c-.11-1.6-2.61-1.61-2.5,0a11.57,11.57,0,0,0,11.27,11.27v-2.5H88c-3.88,0-7.67-.57-9.88-4.34-1.67-2.85-1.2-6.62-1.2-9.79V316.59c0-4.78-.47-9.75,0-14.49.65-6.58,7.8-4.82,12.65-4.82h20.77a27,27,0,0,1,5.06,0c2.69.55,4.25,3.14,5.94,5.06,3.44,3.91,7.6,11.12,13.17,11.88,4.91.67,10.33,0,15.28,0,3.59,0,16.65-1.79,18,3.07.39,1.37,0,3.45,0,4.85v47.4A1.25,1.25,0,0,0,170.38,369.58Z"/><g class="cls-14"><path class="cls-8" d="M195.43,147.5l9.49,9.49,7.33,7.33,7.33,7.33,7.33,7.33,7.33,7.33,7.33,7.33L248.9,201a9.26,9.26,0,0,1,1.18,1.45,9.18,9.18,0,0,1,1.35,3.32,9.26,9.26,0,0,1-.51,5.24,9.15,9.15,0,0,1-.84,1.61A9.26,9.26,0,0,1,248.9,214l-5.22,5.22-5.22,5.22-5.22,5.22L228,234.9l-5.22,5.22-5.22,5.22-5.22,5.22-5.22,5.22A9.28,9.28,0,0,1,205.7,257a9.18,9.18,0,0,1-3.32,1.35,9.26,9.26,0,0,1-5.24-.51,9.16,9.16,0,0,1-1.61-.84,9.28,9.28,0,0,1-1.45-1.18l-7.33-7.33-7.33-7.33-7.33-7.33-7.33-7.33-7.33-7.33-7.33-7.33-7.33-7.33-7.33-7.33a9.27,9.27,0,0,1-1.18-1.45,9.18,9.18,0,0,1-1.35-3.32,9.26,9.26,0,0,1,.51-5.24,9.16,9.16,0,0,1,.84-1.61,9.28,9.28,0,0,1,1.18-1.45l5.22-5.22,5.22-5.22,5.22-5.22,5.22-5.22,5.22-5.22,5.22-5.22,5.22-5.22Z"/><path class="cls-9" d="M195.43,147.5l-5.22,5.22a9.27,9.27,0,0,1-1.45,1.18,9.18,9.18,0,0,1-3.32,1.35,9.26,9.26,0,0,1-5.24-.51,9.16,9.16,0,0,1-1.61-.84,9.27,9.27,0,0,1-1.45-1.18L172,147.55Z"/><line class="cls-10" x1="148.24" y1="196.87" x2="169.12" y2="176"/><line class="cls-10" x1="154.01" y1="202.64" x2="195.76" y2="160.89"/><line class="cls-10" x1="159.77" y1="208.4" x2="201.52" y2="166.65"/><line class="cls-10" x1="165.54" y1="214.17" x2="207.29" y2="172.41"/><line class="cls-10" x1="171.3" y1="219.93" x2="213.05" y2="178.18"/><line class="cls-10" x1="177.06" y1="225.7" x2="218.82" y2="183.94"/><line class="cls-10" x1="182.83" y1="231.46" x2="224.58" y2="189.71"/><line class="cls-10" x1="188.59" y1="237.23" x2="230.35" y2="195.47"/><line class="cls-11" x1="229.28" y1="215.28" x2="239.71" y2="204.84"/></g><path class="cls-15" d="M415.75,292.92s4.56-18.43,18-24.18,46.48-4.42,48.44-21.23-15.26-27.75-26-24.55S445.69,235.6,440.33,234,405.85,219.3,416,204.61s39.48-27.38,64.12-15.77,56.78,28.35,48.27,62.42-26.58,40-47.75,39.12-22.29,21.09-29.77,20.38-37-12.14-35.07-17.84"/><path class="cls-15" d="M394,320.49c8.29-11.67,19.94-15.66,31.67-9.69s18.54,16.76,14.09,32.83c-3.4,12.26-23.21,14.13-34.94,8.17S386.64,330.86,394,320.49"/><path class="cls-3" d="M503.77,283.64c13.32-9.45,21.13-28.48,21.23-44.51.13-19.88-15.3-33.75-31.17-43.12-8.46-5-17.76-10.31-27.3-12.9a54.87,54.87,0,0,0-27.64,0,58.81,58.81,0,0,0-23.63,11.91c-5.33,4.53-10.88,10.88-8.33,18.35,2.82,8.26,12.26,13.82,19.61,17.46,2.4,1.19,6,3.44,8.89,3.26,3.2-.2,4.77-3.39,6.59-5.58,8.89-10.71,24.41-5.74,30.34,5.49,2.36,4.47,3.48,10.81,1.06,15.47-2.22,4.27-7.16,6.54-11.47,8.06-9.91,3.5-20.56,4-30.62,6.86a29.21,29.21,0,0,0-16.61,12.31c-2.65,3.92-5.69,9.25-6.46,14-.68,4.27,3.69,6.82,6.88,8.74A100.73,100.73,0,0,0,437.59,309c2.23.68,4.75,1.62,7.1,1.61,3.53,0,5.53-2.92,7.35-5.59,2.38-3.49,4.51-7.15,7.74-10,4.79-4.16,10.27-4.83,16.39-4.75,9.78.12,19.29-1.25,27.59-6.71,1.34-.88.09-3-1.26-2.16-7.67,5-16.42,6.49-25.47,6.38-7.12-.08-13.47.58-19,5.47a33.43,33.43,0,0,0-5,5.79c-2,2.82-4.33,8.64-8,9.07-4.53.54-11.15-2.93-15.21-4.52-5.51-2.15-13.75-4.84-17.78-9.49-2.77-3.19.44-8.2,2.1-11.46,3.57-7,8.76-12.9,16.39-15.44,8.64-2.88,18-3.45,26.78-5.72,6-1.56,13-3.75,17-8.89s3.45-12.64,1-18.31c-5.48-12.44-22.73-20-33.49-9.31-1.18,1.17-2.07,2.55-3.15,3.8-2.47,2.87-3.69,3-7,1.6a64,64,0,0,1-12.9-7.12c-4-2.9-8.8-6.93-9.82-12.07-1.1-5.54,3.37-10.2,7.14-13.59,13.74-12.38,35.14-17.29,52.71-11.28,10,3.41,20,9.14,28.83,14.91,9.55,6.27,18.81,14.47,22.8,25.49,3.69,10.19,1.79,20.73-1.63,30.71-3.19,9.31-8.1,18.18-16.27,24-1.3.92-.05,3.09,1.26,2.16Z"/><path class="cls-3" d="M450.57,302.11c-1.84,2.82-3.54,5.76-7.32,5.49a22.55,22.55,0,0,1-4.43-1.15,114,114,0,0,1-15.91-6.11c-3.49-1.64-7.56-3.44-10.38-6.15-1.6-1.54-1.58-1.78-1.26-3.55.93-5.16,4.45-10.9,7.7-14.89,6.08-7.47,14.54-9.15,23.58-10.83,10.95-2,31.64-3.68,34.61-17.45,3.09-14.31-11.09-30.26-25.85-27.77a18.2,18.2,0,0,0-8.3,3.81c-2.28,1.84-4.58,6.49-7.26,7.23-3.37.94-8-2.35-10.9-4A44.83,44.83,0,0,1,413.1,218c-16.26-18.11,23.21-32.68,36-33.62,17.87-1.31,35.18,8.37,49.57,18.12,12.82,8.68,23.93,21,23.49,37.39-.49,18.45-10.93,40.69-29.87,46-9.14,2.55-19.21-.28-28,3.2-6.23,2.47-10.18,7.65-13.72,13.08-.88,1.35,1.28,2.61,2.16,1.26,5.36-8.23,11.35-13.46,21.69-13.43,8.56,0,17-.27,24.83-4.09,15.11-7.36,23-25.71,25-41.57s-5.75-29.3-17.75-39.07a124.27,124.27,0,0,0-21.45-13.57c-7.89-4.09-15.83-8.17-24.73-9.42-17.31-2.43-37.61,3.93-49.22,17.38-5.2,6-5.89,12.67-.76,19,5.34,6.63,14.16,11.8,22.15,14.48,6.78,2.28,8.93-6,14-9,12.06-7.31,27.08,4.84,28.39,17.17,2.34,22.08-34.55,19.23-47.77,25-7.12,3.1-12.09,9.58-15.37,16.42-1.65,3.43-4.37,8.11-2.67,11.36,1.4,2.68,5.22,4.61,7.7,6a107.36,107.36,0,0,0,16,7c3.55,1.28,8,3.3,11.92,3.26s6.13-4,8.07-7c.88-1.35-1.28-2.6-2.16-1.26Z"/><path class="cls-3" d="M435,342.5c2.49-9.66,1.64-19.74-5.28-27.39s-17.82-12.08-27.79-8.89-19.39,13.38-18.55,24.36c.89,11.54,10.44,20.78,21.34,23.38s26.26.69,30.28-11.46c.51-1.53-1.91-2.19-2.41-.66-4.23,12.77-23.36,12.61-33.36,7.53a25,25,0,0,1-12.65-15.14c-2.13-7.59.81-14.14,6.26-19.48,8.75-8.59,20.55-8.91,30.41-2s12.22,17.88,9.33,29.07a1.25,1.25,0,0,0,2.41.66Z"/><path class="cls-3" d="M424.53,350c-10.69,4.26-24.56,2.38-32.41-6.49-9.22-10.43-6.71-23.62,4.45-31.44,10.71-7.51,25.21-3.24,32.61,7,6.8,9.4,6.32,25.59-4.95,31.08-1.45.7-.18,2.86,1.26,2.16,12-5.86,13.34-22.7,6.67-33.29-7.34-11.64-23.45-17.43-35.6-9.92-11.82,7.31-16.84,21.05-8.66,33.09,8,11.79,24.36,15.41,37.29,10.24,1.48-.59.83-3-.66-2.41Z"/></g></svg>